{"glyphs":{"0":{"ha":1260,"x_min":47,"x_max":1211,"o":"m 85 718 l 267 758 l 260 783 l 288 792 l 282 818 l 310 824 l 306 856 l 333 856 l 333 883 l 358 883 l 361 908 l 388 904 l 393 932 l 422 928 l 429 954 l 456 947 l 467 972 l 493 961 l 508 988 l 532 975 l 547 999 l 572 982 l 589 1004 l 613 986 l 631 1006 l 649 989 l 667 1004 l 685 985 l 708 1000 l 724 975 l 750 989 l 763 965 l 788 976 l 799 949 l 828 957 l 836 931 l 863 938 l 868 908 l 897 911 l 899 893 l 1172 953 l 1172 617 l 1047 589 l 1050 588 l 1033 569 l 1050 550 l 1028 532 l 1043 508 l 1018 493 l 1033 468 l 1010 454 l 1019 429 l 993 418 l 1001 389 l 976 381 l 981 354 l 954 349 l 954 319 l 928 317 l 928 290 l 904 290 l 900 267 l 874 267 l 868 242 l 839 246 l 832 218 l 806 226 l 796 200 l 767 211 l 754 185 l 729 199 l 714 175 l 689 190 l 672 168 l 651 186 l 631 168 l 613 185 l 594 168 l 578 189 l 554 174 l 538 199 l 513 185 l 500 208 l 474 197 l 461 225 l 435 217 l 426 242 l 399 236 l 393 265 l 364 263 l 361 290 l 333 290 l 333 314 l 310 317 l 313 344 l 285 349 l 290 378 l 263 386 l 271 411 l 251 419 l 85 383 l 85 718 m 826 647 l 842 663 q 840 658 840 661 q 844 647 840 651 q 854 642 847 642 q 881 653 865 642 l 894 663 q 899 667 897 665 q 904 672 901 669 l 913 681 l 913 678 q 912 676 913 676 q 911 674 911 675 l 911 669 q 910 665 910 668 q 912 658 910 663 q 917 654 914 654 l 928 654 l 932 657 l 946 665 l 979 694 l 976 686 q 974 674 974 682 l 974 669 q 976 668 976 669 q 981 667 976 667 q 988 669 982 667 q 994 674 993 671 l 1010 686 q 1018 692 1013 686 q 1029 704 1024 699 l 1042 718 l 1042 721 q 1040 722 1042 722 q 1035 719 1038 722 l 1033 717 l 1018 699 q 1010 690 1011 694 l 1000 682 l 989 676 q 988 675 989 676 q 985 676 986 675 l 992 686 q 997 694 994 692 l 1001 703 q 1007 710 1004 704 l 1050 772 q 1058 783 1057 779 l 1094 824 q 1106 838 1101 831 q 1117 851 1111 844 l 1124 864 l 1124 869 q 1118 871 1122 871 q 1108 868 1115 871 q 1096 860 1101 865 l 1090 856 l 1064 831 q 1053 818 1057 824 q 1042 801 1049 813 l 1006 743 l 988 710 l 976 700 q 971 693 974 696 q 964 686 968 690 l 951 675 l 940 667 q 938 665 940 667 l 935 663 l 928 663 l 936 676 q 942 687 936 679 q 950 697 947 694 l 961 717 l 976 739 l 982 747 q 983 750 979 747 q 988 754 988 753 q 983 758 988 758 l 969 751 l 947 735 q 933 747 947 747 q 923 745 929 747 q 913 740 917 743 l 896 732 l 883 721 q 858 696 868 710 q 844 669 849 682 l 842 669 l 831 657 q 816 644 824 651 q 800 638 808 638 l 799 638 q 797 639 797 638 l 799 640 l 807 653 l 829 681 q 835 690 832 685 q 842 700 839 694 l 847 711 q 849 718 849 714 q 843 729 849 729 q 838 728 839 729 l 821 719 l 807 708 q 799 703 801 703 l 785 688 q 778 681 782 685 q 772 675 775 678 l 758 660 l 760 663 l 794 711 q 797 715 794 713 q 799 721 799 718 l 794 725 q 792 726 793 725 q 790 726 792 726 q 788 726 789 726 q 783 725 786 725 l 774 718 q 771 715 771 717 q 769 713 771 714 l 714 618 q 713 615 713 617 l 713 614 q 715 613 714 614 q 717 613 715 613 q 722 614 719 613 l 728 617 q 733 622 728 622 l 736 626 q 739 629 736 629 l 764 658 l 790 686 l 817 711 l 832 719 q 833 718 833 719 l 829 715 q 824 710 828 711 l 813 696 q 808 691 810 693 q 804 686 807 689 l 785 657 l 781 644 q 779 638 779 642 q 786 629 779 629 l 799 629 q 805 633 801 631 q 814 638 808 635 l 826 647 m 551 581 q 576 591 564 581 q 594 608 588 601 l 600 621 q 604 633 604 626 l 604 644 q 601 654 604 649 l 597 665 l 593 669 q 591 674 593 672 q 589 678 589 676 l 589 685 l 583 685 q 581 682 581 682 l 572 676 l 568 667 l 543 632 l 536 621 l 535 619 q 532 618 533 619 l 525 607 l 500 581 l 492 576 q 483 574 489 574 l 483 575 l 493 589 l 503 601 l 515 621 l 518 631 q 519 640 519 635 q 518 646 518 642 l 517 649 q 515 653 517 651 l 515 668 l 519 675 l 519 678 q 517 682 519 679 q 513 685 515 685 q 495 678 506 685 q 485 663 485 672 q 486 654 485 657 l 489 653 q 492 650 489 653 l 483 642 l 454 606 q 451 603 451 606 l 450 600 q 449 599 450 599 l 442 589 q 421 572 431 579 q 400 558 411 564 l 386 553 q 378 550 381 550 q 368 558 368 550 q 371 565 368 560 l 379 582 q 388 581 382 581 l 400 581 q 415 588 407 583 q 435 599 422 592 l 444 610 q 449 615 447 613 q 451 621 451 618 l 457 629 q 449 646 457 640 l 436 646 q 430 646 433 646 q 424 643 426 646 l 410 638 q 369 609 388 626 q 346 568 351 592 l 346 557 q 364 543 350 543 q 396 551 378 543 q 429 574 414 558 l 456 597 q 458 601 456 599 q 460 604 460 603 l 463 608 l 483 633 q 490 640 488 636 q 496 647 493 644 l 503 642 q 504 639 503 640 l 504 638 q 503 635 504 636 q 500 631 501 633 l 489 619 l 471 593 l 468 581 q 467 575 467 579 l 469 565 l 475 565 q 486 567 482 565 l 497 574 q 510 586 503 579 q 524 597 517 593 l 535 613 l 540 619 q 543 622 543 622 l 565 654 q 567 642 565 647 q 569 635 569 638 l 572 629 q 556 621 561 626 l 542 611 q 535 599 538 604 q 532 588 532 594 q 539 581 532 583 l 551 581 m 621 611 q 624 606 621 606 l 631 600 q 633 599 632 600 q 636 599 635 599 l 638 600 l 646 600 q 656 603 651 601 q 664 606 660 604 l 682 615 l 710 640 l 719 654 l 731 678 q 731 681 731 679 q 732 683 732 682 q 731 691 732 681 q 710 701 729 701 q 701 700 706 701 q 689 696 696 699 l 681 693 l 649 669 l 629 644 q 621 626 622 633 l 621 611 m 174 11 q 163 29 165 18 q 160 51 160 40 l 160 63 q 176 94 160 82 q 210 106 192 106 l 214 106 q 246 92 233 106 q 256 72 258 79 l 233 72 q 225 83 232 79 q 211 88 218 88 l 201 88 l 192 79 q 183 68 185 76 q 182 50 182 60 q 207 15 182 15 l 210 15 q 227 21 218 15 q 236 38 236 26 l 211 38 l 211 56 l 256 56 l 256 -1 l 242 -1 l 239 13 q 204 -4 228 -4 q 187 0 196 -4 q 174 11 178 4 m 296 -96 q 322 -76 304 -76 q 335 -79 329 -76 q 343 -89 340 -82 l 344 -78 l 361 -78 l 361 -146 q 354 -169 361 -160 q 325 -178 347 -178 q 304 -173 313 -178 q 296 -157 296 -168 l 314 -157 l 318 -162 q 326 -164 319 -164 q 342 -158 342 -164 q 343 -153 343 -151 l 343 -140 q 324 -150 335 -150 q 303 -143 314 -150 q 292 -112 292 -136 q 293 -104 292 -108 q 296 -96 294 -100 m 803 68 q 814 38 814 57 q 806 12 814 26 q 775 -3 799 -3 q 745 8 756 -3 q 735 38 735 19 q 735 47 735 40 q 740 61 736 54 q 752 73 744 68 q 775 78 760 78 q 791 76 782 78 q 803 68 800 74 m 496 -78 l 513 -78 l 513 -89 l 515 -89 q 518 -87 517 -89 l 529 -78 q 535 -76 531 -76 q 554 -85 543 -76 q 565 -114 565 -93 q 556 -140 565 -129 q 535 -151 546 -151 q 525 -150 528 -151 l 519 -146 q 516 -144 518 -144 q 514 -142 514 -144 l 514 -176 l 496 -176 l 496 -78 m 1110 -78 l 1128 -78 l 1128 -89 q 1149 -76 1133 -76 q 1168 -87 1161 -76 q 1186 -76 1172 -76 q 1211 -101 1211 -76 l 1211 -150 l 1193 -150 l 1193 -107 q 1182 -92 1193 -92 q 1169 -107 1169 -92 l 1169 -150 l 1151 -150 l 1151 -100 q 1147 -94 1151 -96 q 1139 -92 1143 -92 q 1128 -107 1128 -92 l 1128 -150 l 1110 -150 l 1110 -78 m 1026 -100 q 1061 -76 1035 -76 q 1084 -84 1072 -76 q 1096 -114 1096 -92 q 1088 -140 1096 -129 q 1061 -151 1081 -151 q 1025 -114 1025 -151 q 1026 -100 1025 -106 m 172 479 l 179 486 l 192 500 q 197 508 194 506 l 240 567 l 267 608 q 274 619 271 614 q 281 629 278 624 l 292 651 q 292 653 292 653 q 293 654 293 653 q 289 657 293 657 q 282 656 283 657 l 276 653 l 254 625 q 244 613 250 621 l 233 599 l 178 517 l 160 483 l 160 476 l 167 476 l 172 479 m 1033 -1 q 1027 -2 1029 -1 q 1022 -3 1025 -3 q 1008 1 1017 -3 q 999 21 999 4 q 1006 38 999 33 q 1021 44 1013 42 l 1039 47 q 1046 53 1046 47 q 1033 63 1046 63 q 1019 50 1021 63 l 1001 50 q 1007 69 1001 60 q 1025 78 1013 78 l 1033 78 q 1057 74 1049 78 q 1065 56 1065 69 l 1065 7 q 1071 3 1065 3 l 1071 -1 l 1049 -1 q 1047 0 1047 -1 l 1047 1 l 1047 3 q 1047 6 1047 6 q 1046 8 1046 7 l 1040 3 q 1038 1 1039 1 q 1036 0 1038 1 q 1033 -1 1035 -1 m 340 31 l 288 31 q 292 19 288 25 q 306 14 296 14 q 316 17 313 14 q 319 22 319 19 l 340 22 l 333 8 l 322 0 q 314 -2 317 -1 q 306 -3 311 -3 q 268 39 268 -3 q 279 69 268 61 q 306 78 290 78 q 333 65 326 78 q 340 36 340 51 l 340 31 m 686 440 q 690 457 690 446 q 681 479 690 468 q 653 490 671 490 q 624 479 633 490 q 614 457 614 468 q 628 431 614 438 q 653 424 643 424 q 673 428 667 424 q 686 440 679 433 m 188 614 q 186 607 186 611 q 194 594 186 600 l 207 590 q 218 591 210 590 q 226 596 226 592 q 225 597 226 597 l 222 597 q 217 596 219 597 q 213 594 215 594 q 192 610 192 594 q 193 618 192 614 q 227 649 201 633 q 276 675 253 665 l 296 678 q 314 681 307 681 q 326 678 317 681 q 339 674 336 676 l 346 665 l 346 654 q 344 640 346 646 l 338 628 q 323 608 331 618 q 300 588 315 597 l 285 578 l 258 567 q 255 566 257 567 q 250 565 253 565 l 247 565 q 242 564 246 565 q 239 560 239 563 q 240 558 239 558 l 243 558 q 247 560 246 558 l 268 565 l 304 581 l 338 603 l 363 629 q 372 649 369 640 q 375 663 375 657 q 374 665 375 664 q 374 668 374 665 l 369 678 l 360 685 q 331 689 344 689 q 260 673 299 689 q 193 628 222 657 l 188 614 m 697 -115 q 711 -108 704 -108 l 728 -106 q 733 -101 733 -106 q 724 -90 733 -90 q 715 -94 718 -90 q 711 -101 711 -99 l 693 -101 q 706 -80 693 -83 q 724 -76 718 -76 q 753 -97 753 -76 l 753 -135 q 753 -143 753 -142 q 757 -147 754 -144 l 757 -150 l 736 -149 q 735 -147 736 -147 q 735 -146 735 -147 l 735 -142 q 723 -149 725 -146 q 713 -151 721 -151 q 703 -150 707 -151 l 693 -143 q 690 -131 690 -137 q 697 -115 690 -119 m 53 -115 q 67 -108 60 -108 l 85 -106 q 92 -101 92 -106 q 81 -90 92 -90 q 70 -94 74 -90 q 67 -101 67 -99 l 50 -101 q 60 -81 50 -85 q 81 -76 71 -76 q 104 -83 100 -76 q 108 -97 108 -90 l 108 -135 q 109 -143 108 -142 q 113 -147 110 -144 l 113 -150 l 93 -150 l 93 -146 q 92 -142 92 -144 l 86 -147 q 77 -151 81 -150 q 71 -151 74 -151 q 55 -147 63 -151 q 47 -131 47 -143 q 53 -115 47 -119 m 575 -96 q 604 -76 583 -76 q 639 -115 639 -76 l 639 -119 l 590 -119 q 606 -136 590 -136 q 615 -133 610 -136 l 619 -128 l 638 -128 q 626 -147 635 -143 q 606 -151 618 -151 q 572 -112 572 -151 q 575 -96 572 -101 m 842 -96 q 872 -76 850 -76 q 898 -88 890 -76 q 906 -115 906 -100 l 906 -119 l 857 -119 q 872 -136 857 -136 q 882 -133 876 -136 l 886 -128 l 904 -128 q 872 -151 897 -151 q 839 -112 839 -151 q 842 -96 839 -107 m 894 67 q 897 53 897 58 l 897 -1 l 878 -1 l 878 46 q 864 61 878 61 q 849 43 849 61 l 849 -1 l 828 -1 l 828 76 l 847 76 l 847 65 q 871 78 856 78 q 885 75 881 78 l 894 67 m 540 10 q 528 0 535 3 q 517 -3 521 -3 q 490 25 490 -3 l 490 76 l 510 76 l 510 29 q 524 15 510 15 l 531 15 l 538 22 q 539 26 538 24 q 540 31 540 28 l 540 76 l 558 76 l 558 -1 l 540 -1 l 540 10 m 415 -83 l 414 -78 l 436 -78 l 450 -131 l 464 -78 l 485 -78 l 460 -149 l 450 -172 q 433 -178 444 -178 l 424 -178 l 424 -162 l 435 -162 q 439 -160 436 -162 l 439 -157 q 440 -153 440 -156 l 415 -83 m 215 -78 l 232 -78 l 232 -89 q 254 -76 240 -76 q 271 -81 263 -76 q 279 -101 279 -86 l 279 -150 l 260 -150 l 260 -107 q 258 -96 260 -100 q 247 -92 256 -92 q 236 -97 239 -92 q 233 -108 233 -103 l 233 -150 l 215 -150 l 215 -78 m 957 -87 q 983 -76 965 -76 q 1006 -83 994 -76 q 1017 -104 1017 -90 l 997 -104 l 993 -96 q 985 -92 989 -92 q 974 -97 979 -92 q 969 -112 969 -103 q 983 -135 969 -135 q 996 -124 996 -135 l 1017 -124 q 1007 -143 1014 -135 q 983 -151 1000 -151 q 960 -144 971 -151 q 950 -115 950 -136 q 957 -87 950 -104 m 772 -87 q 799 -76 781 -76 q 822 -85 811 -76 q 832 -104 832 -93 l 811 -104 q 809 -97 811 -101 q 800 -92 807 -92 q 788 -98 793 -92 q 783 -112 783 -104 q 784 -119 783 -117 q 785 -125 785 -122 l 790 -132 q 799 -135 793 -135 q 806 -133 801 -135 q 811 -124 811 -131 l 829 -124 q 820 -144 829 -136 q 799 -151 811 -151 q 775 -143 785 -151 q 765 -115 765 -135 q 772 -87 765 -104 m 468 88 q 465 85 465 88 l 465 76 l 478 76 l 478 63 l 465 63 l 465 -1 l 444 -1 l 444 63 l 435 63 l 435 76 l 444 76 l 444 82 q 468 104 444 104 l 478 104 l 478 88 l 468 88 m 715 76 l 729 76 l 729 63 l 715 63 l 715 -1 l 694 -1 l 694 63 l 685 63 l 685 76 l 694 76 l 694 82 q 718 104 694 104 l 726 104 l 726 88 l 718 88 q 715 85 717 88 l 715 76 m 1119 -1 l 1107 -1 q 1093 1 1101 -1 q 1085 15 1085 3 l 1085 63 l 1075 63 l 1075 76 l 1085 76 l 1085 96 l 1107 96 l 1107 76 l 1119 76 l 1119 63 l 1107 63 l 1107 15 q 1110 15 1108 15 q 1114 14 1111 14 l 1119 15 l 1119 -1 m 378 96 l 378 76 l 389 76 l 389 63 l 378 63 l 378 21 q 378 15 378 17 q 386 14 379 14 l 388 15 l 389 -1 l 378 -1 q 364 0 371 -1 q 357 15 357 1 l 357 63 l 346 63 l 346 76 l 357 76 l 357 96 l 378 96 m 640 606 q 638 607 638 606 l 638 615 q 644 629 640 625 l 654 644 l 678 674 q 684 680 681 676 q 690 686 688 683 l 703 694 q 710 696 706 696 q 714 689 714 696 q 711 682 714 688 l 704 669 l 686 642 l 661 615 q 656 611 658 613 q 651 608 653 608 q 646 606 649 607 l 640 606 m 865 664 l 871 671 l 881 686 l 911 725 l 926 739 q 932 741 928 740 q 938 742 936 742 l 942 739 q 942 737 942 738 q 943 735 943 736 q 939 725 943 729 l 919 694 l 908 685 l 890 667 l 875 654 q 869 651 872 654 q 863 649 865 649 l 861 650 l 860 650 q 858 653 858 651 q 860 654 860 653 q 861 657 860 656 l 865 664 m 951 -1 l 938 -1 q 919 7 921 -1 l 919 63 l 907 63 l 907 76 l 919 76 l 919 96 l 938 96 l 938 76 l 951 76 l 951 63 l 938 63 l 938 21 q 946 14 938 14 l 951 15 l 951 -1 m 669 479 q 672 472 669 475 q 675 457 675 468 q 672 437 675 447 q 653 426 668 426 q 636 435 638 426 l 632 443 q 629 457 629 451 q 630 463 629 460 q 631 468 631 465 l 639 483 q 644 487 640 485 q 654 489 649 489 q 656 488 654 488 l 658 488 l 669 479 m 654 -92 l 643 -92 l 643 -78 l 654 -78 l 654 -72 q 675 -53 654 -53 l 683 -53 l 683 -68 l 675 -68 q 674 -69 674 -69 l 672 -78 l 685 -78 l 685 -92 l 672 -92 l 672 -150 l 654 -150 l 654 -92 m 379 -92 l 369 -92 l 369 -78 l 379 -78 l 379 -60 l 399 -60 l 399 -78 l 410 -78 l 410 -92 l 399 -92 l 399 -129 q 399 -134 399 -132 q 406 -136 399 -136 l 410 -135 l 410 -150 l 399 -150 q 379 -135 379 -150 l 379 -92 m 597 -1 l 578 -1 l 578 104 l 597 104 l 597 -1 m 632 -1 l 613 -1 l 613 104 l 632 104 l 632 -1 m 572 489 l 503 489 l 503 486 l 506 486 q 517 476 517 486 l 517 438 q 506 426 517 426 l 503 425 l 572 425 l 572 451 l 561 433 q 556 429 557 429 l 549 428 q 540 426 546 426 l 531 426 l 532 454 q 544 450 538 454 l 547 446 q 548 444 547 444 q 549 442 549 443 l 549 436 l 549 476 l 546 464 q 533 457 539 457 l 531 457 l 531 486 l 542 486 q 557 485 553 486 l 563 481 l 569 464 l 572 464 l 572 489 m 126 -78 l 143 -78 l 144 -90 l 149 -83 q 152 -78 151 -81 q 164 -76 153 -76 l 168 -76 l 168 -96 l 163 -96 q 144 -112 144 -96 l 144 -150 l 126 -150 l 126 -78 m 788 489 l 756 489 l 756 486 l 761 486 l 765 482 q 771 469 771 476 l 771 443 l 726 489 l 701 489 l 701 486 q 712 483 710 486 q 714 476 714 481 l 714 440 q 713 433 714 436 l 708 428 q 703 427 706 428 q 700 426 701 426 l 700 425 l 733 426 q 726 428 729 426 l 721 428 l 718 435 q 717 443 717 436 l 717 481 l 771 425 l 774 425 l 774 469 q 775 481 774 476 q 788 486 776 486 l 788 489 m 492 454 q 483 460 490 457 l 472 464 l 464 465 q 451 469 461 465 q 443 476 440 472 l 443 482 q 445 485 443 481 q 458 489 447 489 q 478 483 474 489 q 490 467 483 476 l 492 467 l 490 488 q 485 483 489 483 l 479 483 q 458 490 468 490 q 444 488 453 490 l 436 482 q 434 477 435 479 q 433 471 433 475 q 435 464 433 468 q 440 460 438 460 l 449 456 q 463 451 450 454 l 468 450 q 479 447 471 449 q 488 436 488 444 q 485 431 488 435 q 479 426 483 428 l 472 426 q 461 428 465 426 l 450 432 l 443 439 q 436 453 436 446 l 435 453 l 436 424 q 439 428 436 426 q 444 431 442 431 q 448 429 446 431 q 453 428 450 428 l 463 425 q 472 424 465 424 q 485 428 482 424 q 496 436 489 433 l 496 450 l 492 454 m 789 22 q 793 38 793 26 q 789 54 793 47 q 775 61 785 61 q 756 38 756 61 q 761 19 756 24 q 775 15 767 15 q 789 22 786 15 m 178 -78 l 197 -78 l 197 -150 l 178 -150 l 178 -78 m 938 483 q 940 485 938 483 q 944 486 942 485 l 944 489 l 913 489 l 913 486 l 917 486 q 926 481 926 486 q 922 474 926 478 l 910 456 l 893 476 q 890 482 890 482 l 890 483 q 896 486 890 486 l 901 486 l 901 489 l 860 489 l 861 486 q 869 485 865 486 q 876 478 874 485 l 896 451 l 896 438 q 885 426 896 426 l 881 425 l 926 425 l 921 426 q 910 438 910 426 l 910 453 l 929 481 q 936 483 935 483 l 938 483 m 864 453 l 863 453 q 858 446 860 450 q 856 439 856 442 l 853 435 q 846 428 849 431 q 835 426 843 426 l 818 426 l 818 476 q 831 486 818 486 l 835 486 l 835 489 l 792 489 l 792 486 l 794 486 q 806 476 806 486 l 806 438 q 794 426 806 426 l 792 425 l 864 425 l 864 453 m 1074 -99 q 1061 -92 1071 -92 q 1047 -99 1050 -92 q 1043 -114 1043 -106 q 1047 -128 1043 -122 q 1061 -135 1050 -135 q 1075 -128 1072 -135 q 1078 -114 1078 -121 q 1074 -99 1078 -106 m 401 590 q 393 589 397 589 q 385 590 386 589 l 394 606 l 411 625 l 425 638 l 433 640 q 435 641 435 640 q 439 642 436 642 q 441 641 440 642 q 443 640 442 640 l 443 633 l 439 628 q 431 615 433 622 q 417 601 428 607 l 401 590 m 518 -129 q 529 -135 522 -135 q 544 -114 544 -135 q 542 -99 544 -107 q 529 -92 539 -92 q 513 -115 513 -92 q 518 -129 513 -125 m 406 431 q 411 443 411 435 q 404 432 408 436 l 396 426 l 386 426 q 372 428 379 426 q 364 443 364 431 l 364 476 q 368 485 364 483 q 376 486 372 486 l 381 486 l 381 489 l 338 489 l 338 486 q 351 476 351 486 l 351 443 q 358 428 351 438 l 369 425 q 382 424 372 424 q 406 431 399 424 m 314 -124 q 319 -131 314 -129 q 326 -133 324 -133 q 343 -114 343 -133 q 338 -99 343 -107 q 326 -92 333 -92 q 313 -114 313 -92 q 314 -124 313 -119 m 572 626 q 573 622 572 624 q 574 619 574 621 q 572 614 572 617 l 572 606 l 569 600 l 558 589 q 551 587 556 589 q 544 585 547 585 q 538 589 539 585 l 538 594 l 544 607 q 557 619 550 614 l 572 626 m 1018 21 q 1022 14 1018 15 q 1028 13 1025 13 l 1036 14 q 1046 28 1046 18 l 1046 38 q 1038 33 1042 33 l 1028 31 q 1018 21 1018 31 m 917 -129 l 938 -129 l 938 -150 l 917 -150 l 917 -129 m 85 -118 l 78 -119 q 65 -129 65 -122 q 69 -135 65 -132 q 75 -139 72 -139 q 78 -138 76 -139 q 89 -132 81 -137 q 92 -124 92 -126 l 92 -115 q 85 -118 90 -115 m 321 46 q 315 57 318 51 q 306 63 313 63 q 290 46 290 63 l 321 46 m 728 -118 l 718 -119 q 710 -129 710 -119 q 718 -139 710 -139 q 722 -136 721 -139 l 732 -132 q 733 -124 733 -129 l 733 -115 q 728 -118 733 -115 m 886 -107 q 883 -97 886 -101 q 871 -92 879 -92 q 857 -107 860 -92 l 886 -107 m 619 -107 q 616 -97 619 -101 q 604 -92 613 -92 q 590 -107 593 -92 l 619 -107 m 178 -53 l 197 -53 l 197 -69 l 178 -69 l 178 -53 m 1068 799 q 1063 792 1065 793 l 1082 817 l 1090 832 l 1108 856 q 1110 858 1108 857 q 1114 861 1113 860 q 1113 854 1114 856 l 1107 847 l 1099 835 l 1075 807 l 1068 799 m 425 489 l 393 489 l 393 486 l 400 486 q 408 481 406 486 q 411 469 411 475 l 411 479 l 418 485 q 419 486 418 485 l 425 486 l 425 489 z "},"1":{"ha":1260,"x_min":47,"x_max":1211,"o":"m 85 718 l 267 758 l 260 783 l 288 792 l 282 818 l 310 824 l 306 856 l 333 856 l 333 883 l 358 883 l 361 908 l 388 904 l 393 932 l 422 928 l 429 954 l 456 947 l 467 972 l 493 961 l 508 988 l 532 975 l 547 999 l 572 982 l 589 1004 l 613 986 l 631 1006 l 649 989 l 667 1004 l 685 985 l 708 1000 l 724 975 l 750 989 l 763 965 l 788 976 l 799 949 l 828 957 l 836 931 l 863 938 l 868 908 l 897 911 l 899 893 l 1172 953 l 1172 617 l 1047 589 l 1050 588 l 1033 569 l 1050 550 l 1028 532 l 1043 508 l 1018 493 l 1033 468 l 1010 454 l 1019 429 l 993 418 l 1001 389 l 976 381 l 981 354 l 954 349 l 954 319 l 928 317 l 928 290 l 904 290 l 900 267 l 874 267 l 868 242 l 839 246 l 832 218 l 806 226 l 796 200 l 767 211 l 754 185 l 729 199 l 714 175 l 689 190 l 672 168 l 651 186 l 631 168 l 613 185 l 594 168 l 578 189 l 554 174 l 538 199 l 513 185 l 500 208 l 474 197 l 461 225 l 435 217 l 426 242 l 399 236 l 393 265 l 364 263 l 361 290 l 333 290 l 333 314 l 310 317 l 313 344 l 285 349 l 290 378 l 263 386 l 271 411 l 251 419 l 85 383 l 85 718 m 826 647 l 842 663 q 840 658 840 661 q 844 647 840 651 q 854 642 847 642 q 881 653 865 642 l 894 663 q 899 667 897 665 q 904 672 901 669 l 913 681 l 913 678 q 912 676 913 676 q 911 674 911 675 l 911 669 q 910 665 910 668 q 912 658 910 663 q 917 654 914 654 l 928 654 l 932 657 l 946 665 l 979 694 l 976 686 q 974 674 974 682 l 974 669 q 976 668 976 669 q 981 667 976 667 q 988 669 982 667 q 994 674 993 671 l 1010 686 q 1018 692 1013 686 q 1029 704 1024 699 l 1042 718 l 1042 721 q 1040 722 1042 722 q 1035 719 1038 722 l 1033 717 l 1018 699 q 1010 690 1011 694 l 1000 682 l 989 676 q 988 675 989 676 q 985 676 986 675 l 992 686 q 997 694 994 692 l 1001 703 q 1007 710 1004 704 l 1050 772 q 1058 783 1057 779 l 1094 824 q 1106 838 1101 831 q 1117 851 1111 844 l 1124 864 l 1124 869 q 1118 871 1122 871 q 1108 868 1115 871 q 1096 860 1101 865 l 1090 856 l 1064 831 q 1053 818 1057 824 q 1042 801 1049 813 l 1006 743 l 988 710 l 976 700 q 971 693 974 696 q 964 686 968 690 l 951 675 l 940 667 q 938 665 940 667 l 935 663 l 928 663 l 936 676 q 942 687 936 679 q 950 697 947 694 l 961 717 l 976 739 l 982 747 q 983 750 979 747 q 988 754 988 753 q 983 758 988 758 l 969 751 l 947 735 q 933 747 947 747 q 923 745 929 747 q 913 740 917 743 l 896 732 l 883 721 q 858 696 868 710 q 844 669 849 682 l 842 669 l 831 657 q 816 644 824 651 q 800 638 808 638 l 799 638 q 797 639 797 638 l 799 640 l 807 653 l 829 681 q 835 690 832 685 q 842 700 839 694 l 847 711 q 849 718 849 714 q 843 729 849 729 q 838 728 839 729 l 821 719 l 807 708 q 799 703 801 703 l 785 688 q 778 681 782 685 q 772 675 775 678 l 758 660 l 760 663 l 794 711 q 797 715 794 713 q 799 721 799 718 l 794 725 q 792 726 793 725 q 790 726 792 726 q 788 726 789 726 q 783 725 786 725 l 774 718 q 771 715 771 717 q 769 713 771 714 l 714 618 q 713 615 713 617 l 713 614 q 715 613 714 614 q 717 613 715 613 q 722 614 719 613 l 728 617 q 733 622 728 622 l 736 626 q 739 629 736 629 l 764 658 l 790 686 l 817 711 l 832 719 q 833 718 833 719 l 829 715 q 824 710 828 711 l 813 696 q 808 691 810 693 q 804 686 807 689 l 785 657 l 781 644 q 779 638 779 642 q 786 629 779 629 l 799 629 q 805 633 801 631 q 814 638 808 635 l 826 647 m 551 581 q 576 591 564 581 q 594 608 588 601 l 600 621 q 604 633 604 626 l 604 644 q 601 654 604 649 l 597 665 l 593 669 q 591 674 593 672 q 589 678 589 676 l 589 685 l 583 685 q 581 682 581 682 l 572 676 l 568 667 l 543 632 l 536 621 l 535 619 q 532 618 533 619 l 525 607 l 500 581 l 492 576 q 483 574 489 574 l 483 575 l 493 589 l 503 601 l 515 621 l 518 631 q 519 640 519 635 q 518 646 518 642 l 517 649 q 515 653 517 651 l 515 668 l 519 675 l 519 678 q 517 682 519 679 q 513 685 515 685 q 495 678 506 685 q 485 663 485 672 q 486 654 485 657 l 489 653 q 492 650 489 653 l 483 642 l 454 606 q 451 603 451 606 l 450 600 q 449 599 450 599 l 442 589 q 421 572 431 579 q 400 558 411 564 l 386 553 q 378 550 381 550 q 368 558 368 550 q 371 565 368 560 l 379 582 q 388 581 382 581 l 400 581 q 415 588 407 583 q 435 599 422 592 l 444 610 q 449 615 447 613 q 451 621 451 618 l 457 629 q 449 646 457 640 l 436 646 q 430 646 433 646 q 424 643 426 646 l 410 638 q 369 609 388 626 q 346 568 351 592 l 346 557 q 364 543 350 543 q 396 551 378 543 q 429 574 414 558 l 456 597 q 458 601 456 599 q 460 604 460 603 l 463 608 l 483 633 q 490 640 488 636 q 496 647 493 644 l 503 642 q 504 639 503 640 l 504 638 q 503 635 504 636 q 500 631 501 633 l 489 619 l 471 593 l 468 581 q 467 575 467 579 l 469 565 l 475 565 q 486 567 482 565 l 497 574 q 510 586 503 579 q 524 597 517 593 l 535 613 l 540 619 q 543 622 543 622 l 565 654 q 567 642 565 647 q 569 635 569 638 l 572 629 q 556 621 561 626 l 542 611 q 535 599 538 604 q 532 588 532 594 q 539 581 532 583 l 551 581 m 621 611 q 624 606 621 606 l 631 600 q 633 599 632 600 q 636 599 635 599 l 638 600 l 646 600 q 656 603 651 601 q 664 606 660 604 l 682 615 l 710 640 l 719 654 l 731 678 q 731 681 731 679 q 732 683 732 682 q 731 691 732 681 q 710 701 729 701 q 701 700 706 701 q 689 696 696 699 l 681 693 l 649 669 l 629 644 q 621 626 622 633 l 621 611 m 174 11 q 163 29 165 18 q 160 51 160 40 l 160 63 q 176 94 160 82 q 210 106 192 106 l 214 106 q 246 92 233 106 q 256 72 258 79 l 233 72 q 225 83 232 79 q 211 88 218 88 l 201 88 l 192 79 q 183 68 185 76 q 182 50 182 60 q 207 15 182 15 l 210 15 q 227 21 218 15 q 236 38 236 26 l 211 38 l 211 56 l 256 56 l 256 -1 l 242 -1 l 239 13 q 204 -4 228 -4 q 187 0 196 -4 q 174 11 178 4 m 296 -96 q 322 -76 304 -76 q 335 -79 329 -76 q 343 -89 340 -82 l 344 -78 l 361 -78 l 361 -146 q 354 -169 361 -160 q 325 -178 347 -178 q 304 -173 313 -178 q 296 -157 296 -168 l 314 -157 l 318 -162 q 326 -164 319 -164 q 342 -158 342 -164 q 343 -153 343 -151 l 343 -140 q 324 -150 335 -150 q 303 -143 314 -150 q 292 -112 292 -136 q 293 -104 292 -108 q 296 -96 294 -100 m 803 68 q 814 38 814 57 q 806 12 814 26 q 775 -3 799 -3 q 745 8 756 -3 q 735 38 735 19 q 735 47 735 40 q 740 61 736 54 q 752 73 744 68 q 775 78 760 78 q 791 76 782 78 q 803 68 800 74 m 496 -78 l 513 -78 l 513 -89 l 515 -89 q 518 -87 517 -89 l 529 -78 q 535 -76 531 -76 q 554 -85 543 -76 q 565 -114 565 -93 q 556 -140 565 -129 q 535 -151 546 -151 q 525 -150 528 -151 l 519 -146 q 516 -144 518 -144 q 514 -142 514 -144 l 514 -176 l 496 -176 l 496 -78 m 1110 -78 l 1128 -78 l 1128 -89 q 1149 -76 1133 -76 q 1168 -87 1161 -76 q 1186 -76 1172 -76 q 1211 -101 1211 -76 l 1211 -150 l 1193 -150 l 1193 -107 q 1182 -92 1193 -92 q 1169 -107 1169 -92 l 1169 -150 l 1151 -150 l 1151 -100 q 1147 -94 1151 -96 q 1139 -92 1143 -92 q 1128 -107 1128 -92 l 1128 -150 l 1110 -150 l 1110 -78 m 1026 -100 q 1061 -76 1035 -76 q 1084 -84 1072 -76 q 1096 -114 1096 -92 q 1088 -140 1096 -129 q 1061 -151 1081 -151 q 1025 -114 1025 -151 q 1026 -100 1025 -106 m 172 479 l 179 486 l 192 500 q 197 508 194 506 l 240 567 l 267 608 q 274 619 271 614 q 281 629 278 624 l 292 651 q 292 653 292 653 q 293 654 293 653 q 289 657 293 657 q 282 656 283 657 l 276 653 l 254 625 q 244 613 250 621 l 233 599 l 178 517 l 160 483 l 160 476 l 167 476 l 172 479 m 1033 -1 q 1027 -2 1029 -1 q 1022 -3 1025 -3 q 1008 1 1017 -3 q 999 21 999 4 q 1006 38 999 33 q 1021 44 1013 42 l 1039 47 q 1046 53 1046 47 q 1033 63 1046 63 q 1019 50 1021 63 l 1001 50 q 1007 69 1001 60 q 1025 78 1013 78 l 1033 78 q 1057 74 1049 78 q 1065 56 1065 69 l 1065 7 q 1071 3 1065 3 l 1071 -1 l 1049 -1 q 1047 0 1047 -1 l 1047 1 l 1047 3 q 1047 6 1047 6 q 1046 8 1046 7 l 1040 3 q 1038 1 1039 1 q 1036 0 1038 1 q 1033 -1 1035 -1 m 340 31 l 288 31 q 292 19 288 25 q 306 14 296 14 q 316 17 313 14 q 319 22 319 19 l 340 22 l 333 8 l 322 0 q 314 -2 317 -1 q 306 -3 311 -3 q 268 39 268 -3 q 279 69 268 61 q 306 78 290 78 q 333 65 326 78 q 340 36 340 51 l 340 31 m 686 440 q 690 457 690 446 q 681 479 690 468 q 653 490 671 490 q 624 479 633 490 q 614 457 614 468 q 628 431 614 438 q 653 424 643 424 q 673 428 667 424 q 686 440 679 433 m 188 614 q 186 607 186 611 q 194 594 186 600 l 207 590 q 218 591 210 590 q 226 596 226 592 q 225 597 226 597 l 222 597 q 217 596 219 597 q 213 594 215 594 q 192 610 192 594 q 193 618 192 614 q 227 649 201 633 q 276 675 253 665 l 296 678 q 314 681 307 681 q 326 678 317 681 q 339 674 336 676 l 346 665 l 346 654 q 344 640 346 646 l 338 628 q 323 608 331 618 q 300 588 315 597 l 285 578 l 258 567 q 255 566 257 567 q 250 565 253 565 l 247 565 q 242 564 246 565 q 239 560 239 563 q 240 558 239 558 l 243 558 q 247 560 246 558 l 268 565 l 304 581 l 338 603 l 363 629 q 372 649 369 640 q 375 663 375 657 q 374 665 375 664 q 374 668 374 665 l 369 678 l 360 685 q 331 689 344 689 q 260 673 299 689 q 193 628 222 657 l 188 614 m 697 -115 q 711 -108 704 -108 l 728 -106 q 733 -101 733 -106 q 724 -90 733 -90 q 715 -94 718 -90 q 711 -101 711 -99 l 693 -101 q 706 -80 693 -83 q 724 -76 718 -76 q 753 -97 753 -76 l 753 -135 q 753 -143 753 -142 q 757 -147 754 -144 l 757 -150 l 736 -149 q 735 -147 736 -147 q 735 -146 735 -147 l 735 -142 q 723 -149 725 -146 q 713 -151 721 -151 q 703 -150 707 -151 l 693 -143 q 690 -131 690 -137 q 697 -115 690 -119 m 53 -115 q 67 -108 60 -108 l 85 -106 q 92 -101 92 -106 q 81 -90 92 -90 q 70 -94 74 -90 q 67 -101 67 -99 l 50 -101 q 60 -81 50 -85 q 81 -76 71 -76 q 104 -83 100 -76 q 108 -97 108 -90 l 108 -135 q 109 -143 108 -142 q 113 -147 110 -144 l 113 -150 l 93 -150 l 93 -146 q 92 -142 92 -144 l 86 -147 q 77 -151 81 -150 q 71 -151 74 -151 q 55 -147 63 -151 q 47 -131 47 -143 q 53 -115 47 -119 m 575 -96 q 604 -76 583 -76 q 639 -115 639 -76 l 639 -119 l 590 -119 q 606 -136 590 -136 q 615 -133 610 -136 l 619 -128 l 638 -128 q 626 -147 635 -143 q 606 -151 618 -151 q 572 -112 572 -151 q 575 -96 572 -101 m 842 -96 q 872 -76 850 -76 q 898 -88 890 -76 q 906 -115 906 -100 l 906 -119 l 857 -119 q 872 -136 857 -136 q 882 -133 876 -136 l 886 -128 l 904 -128 q 872 -151 897 -151 q 839 -112 839 -151 q 842 -96 839 -107 m 894 67 q 897 53 897 58 l 897 -1 l 878 -1 l 878 46 q 864 61 878 61 q 849 43 849 61 l 849 -1 l 828 -1 l 828 76 l 847 76 l 847 65 q 871 78 856 78 q 885 75 881 78 l 894 67 m 540 10 q 528 0 535 3 q 517 -3 521 -3 q 490 25 490 -3 l 490 76 l 510 76 l 510 29 q 524 15 510 15 l 531 15 l 538 22 q 539 26 538 24 q 540 31 540 28 l 540 76 l 558 76 l 558 -1 l 540 -1 l 540 10 m 415 -83 l 414 -78 l 436 -78 l 450 -131 l 464 -78 l 485 -78 l 460 -149 l 450 -172 q 433 -178 444 -178 l 424 -178 l 424 -162 l 435 -162 q 439 -160 436 -162 l 439 -157 q 440 -153 440 -156 l 415 -83 m 215 -78 l 232 -78 l 232 -89 q 254 -76 240 -76 q 271 -81 263 -76 q 279 -101 279 -86 l 279 -150 l 260 -150 l 260 -107 q 258 -96 260 -100 q 247 -92 256 -92 q 236 -97 239 -92 q 233 -108 233 -103 l 233 -150 l 215 -150 l 215 -78 m 957 -87 q 983 -76 965 -76 q 1006 -83 994 -76 q 1017 -104 1017 -90 l 997 -104 l 993 -96 q 985 -92 989 -92 q 974 -97 979 -92 q 969 -112 969 -103 q 983 -135 969 -135 q 996 -124 996 -135 l 1017 -124 q 1007 -143 1014 -135 q 983 -151 1000 -151 q 960 -144 971 -151 q 950 -115 950 -136 q 957 -87 950 -104 m 772 -87 q 799 -76 781 -76 q 822 -85 811 -76 q 832 -104 832 -93 l 811 -104 q 809 -97 811 -101 q 800 -92 807 -92 q 788 -98 793 -92 q 783 -112 783 -104 q 784 -119 783 -117 q 785 -125 785 -122 l 790 -132 q 799 -135 793 -135 q 806 -133 801 -135 q 811 -124 811 -131 l 829 -124 q 820 -144 829 -136 q 799 -151 811 -151 q 775 -143 785 -151 q 765 -115 765 -135 q 772 -87 765 -104 m 468 88 q 465 85 465 88 l 465 76 l 478 76 l 478 63 l 465 63 l 465 -1 l 444 -1 l 444 63 l 435 63 l 435 76 l 444 76 l 444 82 q 468 104 444 104 l 478 104 l 478 88 l 468 88 m 715 76 l 729 76 l 729 63 l 715 63 l 715 -1 l 694 -1 l 694 63 l 685 63 l 685 76 l 694 76 l 694 82 q 718 104 694 104 l 726 104 l 726 88 l 718 88 q 715 85 717 88 l 715 76 m 1119 -1 l 1107 -1 q 1093 1 1101 -1 q 1085 15 1085 3 l 1085 63 l 1075 63 l 1075 76 l 1085 76 l 1085 96 l 1107 96 l 1107 76 l 1119 76 l 1119 63 l 1107 63 l 1107 15 q 1110 15 1108 15 q 1114 14 1111 14 l 1119 15 l 1119 -1 m 378 96 l 378 76 l 389 76 l 389 63 l 378 63 l 378 21 q 378 15 378 17 q 386 14 379 14 l 388 15 l 389 -1 l 378 -1 q 364 0 371 -1 q 357 15 357 1 l 357 63 l 346 63 l 346 76 l 357 76 l 357 96 l 378 96 m 640 606 q 638 607 638 606 l 638 615 q 644 629 640 625 l 654 644 l 678 674 q 684 680 681 676 q 690 686 688 683 l 703 694 q 710 696 706 696 q 714 689 714 696 q 711 682 714 688 l 704 669 l 686 642 l 661 615 q 656 611 658 613 q 651 608 653 608 q 646 606 649 607 l 640 606 m 865 664 l 871 671 l 881 686 l 911 725 l 926 739 q 932 741 928 740 q 938 742 936 742 l 942 739 q 942 737 942 738 q 943 735 943 736 q 939 725 943 729 l 919 694 l 908 685 l 890 667 l 875 654 q 869 651 872 654 q 863 649 865 649 l 861 650 l 860 650 q 858 653 858 651 q 860 654 860 653 q 861 657 860 656 l 865 664 m 951 -1 l 938 -1 q 919 7 921 -1 l 919 63 l 907 63 l 907 76 l 919 76 l 919 96 l 938 96 l 938 76 l 951 76 l 951 63 l 938 63 l 938 21 q 946 14 938 14 l 951 15 l 951 -1 m 669 479 q 672 472 669 475 q 675 457 675 468 q 672 437 675 447 q 653 426 668 426 q 636 435 638 426 l 632 443 q 629 457 629 451 q 630 463 629 460 q 631 468 631 465 l 639 483 q 644 487 640 485 q 654 489 649 489 q 656 488 654 488 l 658 488 l 669 479 m 654 -92 l 643 -92 l 643 -78 l 654 -78 l 654 -72 q 675 -53 654 -53 l 683 -53 l 683 -68 l 675 -68 q 674 -69 674 -69 l 672 -78 l 685 -78 l 685 -92 l 672 -92 l 672 -150 l 654 -150 l 654 -92 m 379 -92 l 369 -92 l 369 -78 l 379 -78 l 379 -60 l 399 -60 l 399 -78 l 410 -78 l 410 -92 l 399 -92 l 399 -129 q 399 -134 399 -132 q 406 -136 399 -136 l 410 -135 l 410 -150 l 399 -150 q 379 -135 379 -150 l 379 -92 m 597 -1 l 578 -1 l 578 104 l 597 104 l 597 -1 m 632 -1 l 613 -1 l 613 104 l 632 104 l 632 -1 m 572 489 l 503 489 l 503 486 l 506 486 q 517 476 517 486 l 517 438 q 506 426 517 426 l 503 425 l 572 425 l 572 451 l 561 433 q 556 429 557 429 l 549 428 q 540 426 546 426 l 531 426 l 532 454 q 544 450 538 454 l 547 446 q 548 444 547 444 q 549 442 549 443 l 549 436 l 549 476 l 546 464 q 533 457 539 457 l 531 457 l 531 486 l 542 486 q 557 485 553 486 l 563 481 l 569 464 l 572 464 l 572 489 m 126 -78 l 143 -78 l 144 -90 l 149 -83 q 152 -78 151 -81 q 164 -76 153 -76 l 168 -76 l 168 -96 l 163 -96 q 144 -112 144 -96 l 144 -150 l 126 -150 l 126 -78 m 788 489 l 756 489 l 756 486 l 761 486 l 765 482 q 771 469 771 476 l 771 443 l 726 489 l 701 489 l 701 486 q 712 483 710 486 q 714 476 714 481 l 714 440 q 713 433 714 436 l 708 428 q 703 427 706 428 q 700 426 701 426 l 700 425 l 733 426 q 726 428 729 426 l 721 428 l 718 435 q 717 443 717 436 l 717 481 l 771 425 l 774 425 l 774 469 q 775 481 774 476 q 788 486 776 486 l 788 489 m 492 454 q 483 460 490 457 l 472 464 l 464 465 q 451 469 461 465 q 443 476 440 472 l 443 482 q 445 485 443 481 q 458 489 447 489 q 478 483 474 489 q 490 467 483 476 l 492 467 l 490 488 q 485 483 489 483 l 479 483 q 458 490 468 490 q 444 488 453 490 l 436 482 q 434 477 435 479 q 433 471 433 475 q 435 464 433 468 q 440 460 438 460 l 449 456 q 463 451 450 454 l 468 450 q 479 447 471 449 q 488 436 488 444 q 485 431 488 435 q 479 426 483 428 l 472 426 q 461 428 465 426 l 450 432 l 443 439 q 436 453 436 446 l 435 453 l 436 424 q 439 428 436 426 q 444 431 442 431 q 448 429 446 431 q 453 428 450 428 l 463 425 q 472 424 465 424 q 485 428 482 424 q 496 436 489 433 l 496 450 l 492 454 m 789 22 q 793 38 793 26 q 789 54 793 47 q 775 61 785 61 q 756 38 756 61 q 761 19 756 24 q 775 15 767 15 q 789 22 786 15 m 178 -78 l 197 -78 l 197 -150 l 178 -150 l 178 -78 m 938 483 q 940 485 938 483 q 944 486 942 485 l 944 489 l 913 489 l 913 486 l 917 486 q 926 481 926 486 q 922 474 926 478 l 910 456 l 893 476 q 890 482 890 482 l 890 483 q 896 486 890 486 l 901 486 l 901 489 l 860 489 l 861 486 q 869 485 865 486 q 876 478 874 485 l 896 451 l 896 438 q 885 426 896 426 l 881 425 l 926 425 l 921 426 q 910 438 910 426 l 910 453 l 929 481 q 936 483 935 483 l 938 483 m 864 453 l 863 453 q 858 446 860 450 q 856 439 856 442 l 853 435 q 846 428 849 431 q 835 426 843 426 l 818 426 l 818 476 q 831 486 818 486 l 835 486 l 835 489 l 792 489 l 792 486 l 794 486 q 806 476 806 486 l 806 438 q 794 426 806 426 l 792 425 l 864 425 l 864 453 m 1074 -99 q 1061 -92 1071 -92 q 1047 -99 1050 -92 q 1043 -114 1043 -106 q 1047 -128 1043 -122 q 1061 -135 1050 -135 q 1075 -128 1072 -135 q 1078 -114 1078 -121 q 1074 -99 1078 -106 m 401 590 q 393 589 397 589 q 385 590 386 589 l 394 606 l 411 625 l 425 638 l 433 640 q 435 641 435 640 q 439 642 436 642 q 441 641 440 642 q 443 640 442 640 l 443 633 l 439 628 q 431 615 433 622 q 417 601 428 607 l 401 590 m 518 -129 q 529 -135 522 -135 q 544 -114 544 -135 q 542 -99 544 -107 q 529 -92 539 -92 q 513 -115 513 -92 q 518 -129 513 -125 m 406 431 q 411 443 411 435 q 404 432 408 436 l 396 426 l 386 426 q 372 428 379 426 q 364 443 364 431 l 364 476 q 368 485 364 483 q 376 486 372 486 l 381 486 l 381 489 l 338 489 l 338 486 q 351 476 351 486 l 351 443 q 358 428 351 438 l 369 425 q 382 424 372 424 q 406 431 399 424 m 314 -124 q 319 -131 314 -129 q 326 -133 324 -133 q 343 -114 343 -133 q 338 -99 343 -107 q 326 -92 333 -92 q 313 -114 313 -92 q 314 -124 313 -119 m 572 626 q 573 622 572 624 q 574 619 574 621 q 572 614 572 617 l 572 606 l 569 600 l 558 589 q 551 587 556 589 q 544 585 547 585 q 538 589 539 585 l 538 594 l 544 607 q 557 619 550 614 l 572 626 m 1018 21 q 1022 14 1018 15 q 1028 13 1025 13 l 1036 14 q 1046 28 1046 18 l 1046 38 q 1038 33 1042 33 l 1028 31 q 1018 21 1018 31 m 917 -129 l 938 -129 l 938 -150 l 917 -150 l 917 -129 m 85 -118 l 78 -119 q 65 -129 65 -122 q 69 -135 65 -132 q 75 -139 72 -139 q 78 -138 76 -139 q 89 -132 81 -137 q 92 -124 92 -126 l 92 -115 q 85 -118 90 -115 m 321 46 q 315 57 318 51 q 306 63 313 63 q 290 46 290 63 l 321 46 m 728 -118 l 718 -119 q 710 -129 710 -119 q 718 -139 710 -139 q 722 -136 721 -139 l 732 -132 q 733 -124 733 -129 l 733 -115 q 728 -118 733 -115 m 886 -107 q 883 -97 886 -101 q 871 -92 879 -92 q 857 -107 860 -92 l 886 -107 m 619 -107 q 616 -97 619 -101 q 604 -92 613 -92 q 590 -107 593 -92 l 619 -107 m 178 -53 l 197 -53 l 197 -69 l 178 -69 l 178 -53 m 1068 799 q 1063 792 1065 793 l 1082 817 l 1090 832 l 1108 856 q 1110 858 1108 857 q 1114 861 1113 860 q 1113 854 1114 856 l 1107 847 l 1099 835 l 1075 807 l 1068 799 m 425 489 l 393 489 l 393 486 l 400 486 q 408 481 406 486 q 411 469 411 475 l 411 479 l 418 485 q 419 486 418 485 l 425 486 l 425 489 z "},"2":{"ha":1260,"x_min":47,"x_max":1211,"o":"m 85 718 l 267 758 l 260 783 l 288 792 l 282 818 l 310 824 l 306 856 l 333 856 l 333 883 l 358 883 l 361 908 l 388 904 l 393 932 l 422 928 l 429 954 l 456 947 l 467 972 l 493 961 l 508 988 l 532 975 l 547 999 l 572 982 l 589 1004 l 613 986 l 631 1006 l 649 989 l 667 1004 l 685 985 l 708 1000 l 724 975 l 750 989 l 763 965 l 788 976 l 799 949 l 828 957 l 836 931 l 863 938 l 868 908 l 897 911 l 899 893 l 1172 953 l 1172 617 l 1047 589 l 1050 588 l 1033 569 l 1050 550 l 1028 532 l 1043 508 l 1018 493 l 1033 468 l 1010 454 l 1019 429 l 993 418 l 1001 389 l 976 381 l 981 354 l 954 349 l 954 319 l 928 317 l 928 290 l 904 290 l 900 267 l 874 267 l 868 242 l 839 246 l 832 218 l 806 226 l 796 200 l 767 211 l 754 185 l 729 199 l 714 175 l 689 190 l 672 168 l 651 186 l 631 168 l 613 185 l 594 168 l 578 189 l 554 174 l 538 199 l 513 185 l 500 208 l 474 197 l 461 225 l 435 217 l 426 242 l 399 236 l 393 265 l 364 263 l 361 290 l 333 290 l 333 314 l 310 317 l 313 344 l 285 349 l 290 378 l 263 386 l 271 411 l 251 419 l 85 383 l 85 718 m 826 647 l 842 663 q 840 658 840 661 q 844 647 840 651 q 854 642 847 642 q 881 653 865 642 l 894 663 q 899 667 897 665 q 904 672 901 669 l 913 681 l 913 678 q 912 676 913 676 q 911 674 911 675 l 911 669 q 910 665 910 668 q 912 658 910 663 q 917 654 914 654 l 928 654 l 932 657 l 946 665 l 979 694 l 976 686 q 974 674 974 682 l 974 669 q 976 668 976 669 q 981 667 976 667 q 988 669 982 667 q 994 674 993 671 l 1010 686 q 1018 692 1013 686 q 1029 704 1024 699 l 1042 718 l 1042 721 q 1040 722 1042 722 q 1035 719 1038 722 l 1033 717 l 1018 699 q 1010 690 1011 694 l 1000 682 l 989 676 q 988 675 989 676 q 985 676 986 675 l 992 686 q 997 694 994 692 l 1001 703 q 1007 710 1004 704 l 1050 772 q 1058 783 1057 779 l 1094 824 q 1106 838 1101 831 q 1117 851 1111 844 l 1124 864 l 1124 869 q 1118 871 1122 871 q 1108 868 1115 871 q 1096 860 1101 865 l 1090 856 l 1064 831 q 1053 818 1057 824 q 1042 801 1049 813 l 1006 743 l 988 710 l 976 700 q 971 693 974 696 q 964 686 968 690 l 951 675 l 940 667 q 938 665 940 667 l 935 663 l 928 663 l 936 676 q 942 687 936 679 q 950 697 947 694 l 961 717 l 976 739 l 982 747 q 983 750 979 747 q 988 754 988 753 q 983 758 988 758 l 969 751 l 947 735 q 933 747 947 747 q 923 745 929 747 q 913 740 917 743 l 896 732 l 883 721 q 858 696 868 710 q 844 669 849 682 l 842 669 l 831 657 q 816 644 824 651 q 800 638 808 638 l 799 638 q 797 639 797 638 l 799 640 l 807 653 l 829 681 q 835 690 832 685 q 842 700 839 694 l 847 711 q 849 718 849 714 q 843 729 849 729 q 838 728 839 729 l 821 719 l 807 708 q 799 703 801 703 l 785 688 q 778 681 782 685 q 772 675 775 678 l 758 660 l 760 663 l 794 711 q 797 715 794 713 q 799 721 799 718 l 794 725 q 792 726 793 725 q 790 726 792 726 q 788 726 789 726 q 783 725 786 725 l 774 718 q 771 715 771 717 q 769 713 771 714 l 714 618 q 713 615 713 617 l 713 614 q 715 613 714 614 q 717 613 715 613 q 722 614 719 613 l 728 617 q 733 622 728 622 l 736 626 q 739 629 736 629 l 764 658 l 790 686 l 817 711 l 832 719 q 833 718 833 719 l 829 715 q 824 710 828 711 l 813 696 q 808 691 810 693 q 804 686 807 689 l 785 657 l 781 644 q 779 638 779 642 q 786 629 779 629 l 799 629 q 805 633 801 631 q 814 638 808 635 l 826 647 m 551 581 q 576 591 564 581 q 594 608 588 601 l 600 621 q 604 633 604 626 l 604 644 q 601 654 604 649 l 597 665 l 593 669 q 591 674 593 672 q 589 678 589 676 l 589 685 l 583 685 q 581 682 581 682 l 572 676 l 568 667 l 543 632 l 536 621 l 535 619 q 532 618 533 619 l 525 607 l 500 581 l 492 576 q 483 574 489 574 l 483 575 l 493 589 l 503 601 l 515 621 l 518 631 q 519 640 519 635 q 518 646 518 642 l 517 649 q 515 653 517 651 l 515 668 l 519 675 l 519 678 q 517 682 519 679 q 513 685 515 685 q 495 678 506 685 q 485 663 485 672 q 486 654 485 657 l 489 653 q 492 650 489 653 l 483 642 l 454 606 q 451 603 451 606 l 450 600 q 449 599 450 599 l 442 589 q 421 572 431 579 q 400 558 411 564 l 386 553 q 378 550 381 550 q 368 558 368 550 q 371 565 368 560 l 379 582 q 388 581 382 581 l 400 581 q 415 588 407 583 q 435 599 422 592 l 444 610 q 449 615 447 613 q 451 621 451 618 l 457 629 q 449 646 457 640 l 436 646 q 430 646 433 646 q 424 643 426 646 l 410 638 q 369 609 388 626 q 346 568 351 592 l 346 557 q 364 543 350 543 q 396 551 378 543 q 429 574 414 558 l 456 597 q 458 601 456 599 q 460 604 460 603 l 463 608 l 483 633 q 490 640 488 636 q 496 647 493 644 l 503 642 q 504 639 503 640 l 504 638 q 503 635 504 636 q 500 631 501 633 l 489 619 l 471 593 l 468 581 q 467 575 467 579 l 469 565 l 475 565 q 486 567 482 565 l 497 574 q 510 586 503 579 q 524 597 517 593 l 535 613 l 540 619 q 543 622 543 622 l 565 654 q 567 642 565 647 q 569 635 569 638 l 572 629 q 556 621 561 626 l 542 611 q 535 599 538 604 q 532 588 532 594 q 539 581 532 583 l 551 581 m 621 611 q 624 606 621 606 l 631 600 q 633 599 632 600 q 636 599 635 599 l 638 600 l 646 600 q 656 603 651 601 q 664 606 660 604 l 682 615 l 710 640 l 719 654 l 731 678 q 731 681 731 679 q 732 683 732 682 q 731 691 732 681 q 710 701 729 701 q 701 700 706 701 q 689 696 696 699 l 681 693 l 649 669 l 629 644 q 621 626 622 633 l 621 611 m 174 11 q 163 29 165 18 q 160 51 160 40 l 160 63 q 176 94 160 82 q 210 106 192 106 l 214 106 q 246 92 233 106 q 256 72 258 79 l 233 72 q 225 83 232 79 q 211 88 218 88 l 201 88 l 192 79 q 183 68 185 76 q 182 50 182 60 q 207 15 182 15 l 210 15 q 227 21 218 15 q 236 38 236 26 l 211 38 l 211 56 l 256 56 l 256 -1 l 242 -1 l 239 13 q 204 -4 228 -4 q 187 0 196 -4 q 174 11 178 4 m 296 -96 q 322 -76 304 -76 q 335 -79 329 -76 q 343 -89 340 -82 l 344 -78 l 361 -78 l 361 -146 q 354 -169 361 -160 q 325 -178 347 -178 q 304 -173 313 -178 q 296 -157 296 -168 l 314 -157 l 318 -162 q 326 -164 319 -164 q 342 -158 342 -164 q 343 -153 343 -151 l 343 -140 q 324 -150 335 -150 q 303 -143 314 -150 q 292 -112 292 -136 q 293 -104 292 -108 q 296 -96 294 -100 m 803 68 q 814 38 814 57 q 806 12 814 26 q 775 -3 799 -3 q 745 8 756 -3 q 735 38 735 19 q 735 47 735 40 q 740 61 736 54 q 752 73 744 68 q 775 78 760 78 q 791 76 782 78 q 803 68 800 74 m 496 -78 l 513 -78 l 513 -89 l 515 -89 q 518 -87 517 -89 l 529 -78 q 535 -76 531 -76 q 554 -85 543 -76 q 565 -114 565 -93 q 556 -140 565 -129 q 535 -151 546 -151 q 525 -150 528 -151 l 519 -146 q 516 -144 518 -144 q 514 -142 514 -144 l 514 -176 l 496 -176 l 496 -78 m 1110 -78 l 1128 -78 l 1128 -89 q 1149 -76 1133 -76 q 1168 -87 1161 -76 q 1186 -76 1172 -76 q 1211 -101 1211 -76 l 1211 -150 l 1193 -150 l 1193 -107 q 1182 -92 1193 -92 q 1169 -107 1169 -92 l 1169 -150 l 1151 -150 l 1151 -100 q 1147 -94 1151 -96 q 1139 -92 1143 -92 q 1128 -107 1128 -92 l 1128 -150 l 1110 -150 l 1110 -78 m 1026 -100 q 1061 -76 1035 -76 q 1084 -84 1072 -76 q 1096 -114 1096 -92 q 1088 -140 1096 -129 q 1061 -151 1081 -151 q 1025 -114 1025 -151 q 1026 -100 1025 -106 m 172 479 l 179 486 l 192 500 q 197 508 194 506 l 240 567 l 267 608 q 274 619 271 614 q 281 629 278 624 l 292 651 q 292 653 292 653 q 293 654 293 653 q 289 657 293 657 q 282 656 283 657 l 276 653 l 254 625 q 244 613 250 621 l 233 599 l 178 517 l 160 483 l 160 476 l 167 476 l 172 479 m 1033 -1 q 1027 -2 1029 -1 q 1022 -3 1025 -3 q 1008 1 1017 -3 q 999 21 999 4 q 1006 38 999 33 q 1021 44 1013 42 l 1039 47 q 1046 53 1046 47 q 1033 63 1046 63 q 1019 50 1021 63 l 1001 50 q 1007 69 1001 60 q 1025 78 1013 78 l 1033 78 q 1057 74 1049 78 q 1065 56 1065 69 l 1065 7 q 1071 3 1065 3 l 1071 -1 l 1049 -1 q 1047 0 1047 -1 l 1047 1 l 1047 3 q 1047 6 1047 6 q 1046 8 1046 7 l 1040 3 q 1038 1 1039 1 q 1036 0 1038 1 q 1033 -1 1035 -1 m 340 31 l 288 31 q 292 19 288 25 q 306 14 296 14 q 316 17 313 14 q 319 22 319 19 l 340 22 l 333 8 l 322 0 q 314 -2 317 -1 q 306 -3 311 -3 q 268 39 268 -3 q 279 69 268 61 q 306 78 290 78 q 333 65 326 78 q 340 36 340 51 l 340 31 m 686 440 q 690 457 690 446 q 681 479 690 468 q 653 490 671 490 q 624 479 633 490 q 614 457 614 468 q 628 431 614 438 q 653 424 643 424 q 673 428 667 424 q 686 440 679 433 m 188 614 q 186 607 186 611 q 194 594 186 600 l 207 590 q 218 591 210 590 q 226 596 226 592 q 225 597 226 597 l 222 597 q 217 596 219 597 q 213 594 215 594 q 192 610 192 594 q 193 618 192 614 q 227 649 201 633 q 276 675 253 665 l 296 678 q 314 681 307 681 q 326 678 317 681 q 339 674 336 676 l 346 665 l 346 654 q 344 640 346 646 l 338 628 q 323 608 331 618 q 300 588 315 597 l 285 578 l 258 567 q 255 566 257 567 q 250 565 253 565 l 247 565 q 242 564 246 565 q 239 560 239 563 q 240 558 239 558 l 243 558 q 247 560 246 558 l 268 565 l 304 581 l 338 603 l 363 629 q 372 649 369 640 q 375 663 375 657 q 374 665 375 664 q 374 668 374 665 l 369 678 l 360 685 q 331 689 344 689 q 260 673 299 689 q 193 628 222 657 l 188 614 m 697 -115 q 711 -108 704 -108 l 728 -106 q 733 -101 733 -106 q 724 -90 733 -90 q 715 -94 718 -90 q 711 -101 711 -99 l 693 -101 q 706 -80 693 -83 q 724 -76 718 -76 q 753 -97 753 -76 l 753 -135 q 753 -143 753 -142 q 757 -147 754 -144 l 757 -150 l 736 -149 q 735 -147 736 -147 q 735 -146 735 -147 l 735 -142 q 723 -149 725 -146 q 713 -151 721 -151 q 703 -150 707 -151 l 693 -143 q 690 -131 690 -137 q 697 -115 690 -119 m 53 -115 q 67 -108 60 -108 l 85 -106 q 92 -101 92 -106 q 81 -90 92 -90 q 70 -94 74 -90 q 67 -101 67 -99 l 50 -101 q 60 -81 50 -85 q 81 -76 71 -76 q 104 -83 100 -76 q 108 -97 108 -90 l 108 -135 q 109 -143 108 -142 q 113 -147 110 -144 l 113 -150 l 93 -150 l 93 -146 q 92 -142 92 -144 l 86 -147 q 77 -151 81 -150 q 71 -151 74 -151 q 55 -147 63 -151 q 47 -131 47 -143 q 53 -115 47 -119 m 575 -96 q 604 -76 583 -76 q 639 -115 639 -76 l 639 -119 l 590 -119 q 606 -136 590 -136 q 615 -133 610 -136 l 619 -128 l 638 -128 q 626 -147 635 -143 q 606 -151 618 -151 q 572 -112 572 -151 q 575 -96 572 -101 m 842 -96 q 872 -76 850 -76 q 898 -88 890 -76 q 906 -115 906 -100 l 906 -119 l 857 -119 q 872 -136 857 -136 q 882 -133 876 -136 l 886 -128 l 904 -128 q 872 -151 897 -151 q 839 -112 839 -151 q 842 -96 839 -107 m 894 67 q 897 53 897 58 l 897 -1 l 878 -1 l 878 46 q 864 61 878 61 q 849 43 849 61 l 849 -1 l 828 -1 l 828 76 l 847 76 l 847 65 q 871 78 856 78 q 885 75 881 78 l 894 67 m 540 10 q 528 0 535 3 q 517 -3 521 -3 q 490 25 490 -3 l 490 76 l 510 76 l 510 29 q 524 15 510 15 l 531 15 l 538 22 q 539 26 538 24 q 540 31 540 28 l 540 76 l 558 76 l 558 -1 l 540 -1 l 540 10 m 415 -83 l 414 -78 l 436 -78 l 450 -131 l 464 -78 l 485 -78 l 460 -149 l 450 -172 q 433 -178 444 -178 l 424 -178 l 424 -162 l 435 -162 q 439 -160 436 -162 l 439 -157 q 440 -153 440 -156 l 415 -83 m 215 -78 l 232 -78 l 232 -89 q 254 -76 240 -76 q 271 -81 263 -76 q 279 -101 279 -86 l 279 -150 l 260 -150 l 260 -107 q 258 -96 260 -100 q 247 -92 256 -92 q 236 -97 239 -92 q 233 -108 233 -103 l 233 -150 l 215 -150 l 215 -78 m 957 -87 q 983 -76 965 -76 q 1006 -83 994 -76 q 1017 -104 1017 -90 l 997 -104 l 993 -96 q 985 -92 989 -92 q 974 -97 979 -92 q 969 -112 969 -103 q 983 -135 969 -135 q 996 -124 996 -135 l 1017 -124 q 1007 -143 1014 -135 q 983 -151 1000 -151 q 960 -144 971 -151 q 950 -115 950 -136 q 957 -87 950 -104 m 772 -87 q 799 -76 781 -76 q 822 -85 811 -76 q 832 -104 832 -93 l 811 -104 q 809 -97 811 -101 q 800 -92 807 -92 q 788 -98 793 -92 q 783 -112 783 -104 q 784 -119 783 -117 q 785 -125 785 -122 l 790 -132 q 799 -135 793 -135 q 806 -133 801 -135 q 811 -124 811 -131 l 829 -124 q 820 -144 829 -136 q 799 -151 811 -151 q 775 -143 785 -151 q 765 -115 765 -135 q 772 -87 765 -104 m 468 88 q 465 85 465 88 l 465 76 l 478 76 l 478 63 l 465 63 l 465 -1 l 444 -1 l 444 63 l 435 63 l 435 76 l 444 76 l 444 82 q 468 104 444 104 l 478 104 l 478 88 l 468 88 m 715 76 l 729 76 l 729 63 l 715 63 l 715 -1 l 694 -1 l 694 63 l 685 63 l 685 76 l 694 76 l 694 82 q 718 104 694 104 l 726 104 l 726 88 l 718 88 q 715 85 717 88 l 715 76 m 1119 -1 l 1107 -1 q 1093 1 1101 -1 q 1085 15 1085 3 l 1085 63 l 1075 63 l 1075 76 l 1085 76 l 1085 96 l 1107 96 l 1107 76 l 1119 76 l 1119 63 l 1107 63 l 1107 15 q 1110 15 1108 15 q 1114 14 1111 14 l 1119 15 l 1119 -1 m 378 96 l 378 76 l 389 76 l 389 63 l 378 63 l 378 21 q 378 15 378 17 q 386 14 379 14 l 388 15 l 389 -1 l 378 -1 q 364 0 371 -1 q 357 15 357 1 l 357 63 l 346 63 l 346 76 l 357 76 l 357 96 l 378 96 m 640 606 q 638 607 638 606 l 638 615 q 644 629 640 625 l 654 644 l 678 674 q 684 680 681 676 q 690 686 688 683 l 703 694 q 710 696 706 696 q 714 689 714 696 q 711 682 714 688 l 704 669 l 686 642 l 661 615 q 656 611 658 613 q 651 608 653 608 q 646 606 649 607 l 640 606 m 865 664 l 871 671 l 881 686 l 911 725 l 926 739 q 932 741 928 740 q 938 742 936 742 l 942 739 q 942 737 942 738 q 943 735 943 736 q 939 725 943 729 l 919 694 l 908 685 l 890 667 l 875 654 q 869 651 872 654 q 863 649 865 649 l 861 650 l 860 650 q 858 653 858 651 q 860 654 860 653 q 861 657 860 656 l 865 664 m 951 -1 l 938 -1 q 919 7 921 -1 l 919 63 l 907 63 l 907 76 l 919 76 l 919 96 l 938 96 l 938 76 l 951 76 l 951 63 l 938 63 l 938 21 q 946 14 938 14 l 951 15 l 951 -1 m 669 479 q 672 472 669 475 q 675 457 675 468 q 672 437 675 447 q 653 426 668 426 q 636 435 638 426 l 632 443 q 629 457 629 451 q 630 463 629 460 q 631 468 631 465 l 639 483 q 644 487 640 485 q 654 489 649 489 q 656 488 654 488 l 658 488 l 669 479 m 654 -92 l 643 -92 l 643 -78 l 654 -78 l 654 -72 q 675 -53 654 -53 l 683 -53 l 683 -68 l 675 -68 q 674 -69 674 -69 l 672 -78 l 685 -78 l 685 -92 l 672 -92 l 672 -150 l 654 -150 l 654 -92 m 379 -92 l 369 -92 l 369 -78 l 379 -78 l 379 -60 l 399 -60 l 399 -78 l 410 -78 l 410 -92 l 399 -92 l 399 -129 q 399 -134 399 -132 q 406 -136 399 -136 l 410 -135 l 410 -150 l 399 -150 q 379 -135 379 -150 l 379 -92 m 597 -1 l 578 -1 l 578 104 l 597 104 l 597 -1 m 632 -1 l 613 -1 l 613 104 l 632 104 l 632 -1 m 572 489 l 503 489 l 503 486 l 506 486 q 517 476 517 486 l 517 438 q 506 426 517 426 l 503 425 l 572 425 l 572 451 l 561 433 q 556 429 557 429 l 549 428 q 540 426 546 426 l 531 426 l 532 454 q 544 450 538 454 l 547 446 q 548 444 547 444 q 549 442 549 443 l 549 436 l 549 476 l 546 464 q 533 457 539 457 l 531 457 l 531 486 l 542 486 q 557 485 553 486 l 563 481 l 569 464 l 572 464 l 572 489 m 126 -78 l 143 -78 l 144 -90 l 149 -83 q 152 -78 151 -81 q 164 -76 153 -76 l 168 -76 l 168 -96 l 163 -96 q 144 -112 144 -96 l 144 -150 l 126 -150 l 126 -78 m 788 489 l 756 489 l 756 486 l 761 486 l 765 482 q 771 469 771 476 l 771 443 l 726 489 l 701 489 l 701 486 q 712 483 710 486 q 714 476 714 481 l 714 440 q 713 433 714 436 l 708 428 q 703 427 706 428 q 700 426 701 426 l 700 425 l 733 426 q 726 428 729 426 l 721 428 l 718 435 q 717 443 717 436 l 717 481 l 771 425 l 774 425 l 774 469 q 775 481 774 476 q 788 486 776 486 l 788 489 m 492 454 q 483 460 490 457 l 472 464 l 464 465 q 451 469 461 465 q 443 476 440 472 l 443 482 q 445 485 443 481 q 458 489 447 489 q 478 483 474 489 q 490 467 483 476 l 492 467 l 490 488 q 485 483 489 483 l 479 483 q 458 490 468 490 q 444 488 453 490 l 436 482 q 434 477 435 479 q 433 471 433 475 q 435 464 433 468 q 440 460 438 460 l 449 456 q 463 451 450 454 l 468 450 q 479 447 471 449 q 488 436 488 444 q 485 431 488 435 q 479 426 483 428 l 472 426 q 461 428 465 426 l 450 432 l 443 439 q 436 453 436 446 l 435 453 l 436 424 q 439 428 436 426 q 444 431 442 431 q 448 429 446 431 q 453 428 450 428 l 463 425 q 472 424 465 424 q 485 428 482 424 q 496 436 489 433 l 496 450 l 492 454 m 789 22 q 793 38 793 26 q 789 54 793 47 q 775 61 785 61 q 756 38 756 61 q 761 19 756 24 q 775 15 767 15 q 789 22 786 15 m 178 -78 l 197 -78 l 197 -150 l 178 -150 l 178 -78 m 938 483 q 940 485 938 483 q 944 486 942 485 l 944 489 l 913 489 l 913 486 l 917 486 q 926 481 926 486 q 922 474 926 478 l 910 456 l 893 476 q 890 482 890 482 l 890 483 q 896 486 890 486 l 901 486 l 901 489 l 860 489 l 861 486 q 869 485 865 486 q 876 478 874 485 l 896 451 l 896 438 q 885 426 896 426 l 881 425 l 926 425 l 921 426 q 910 438 910 426 l 910 453 l 929 481 q 936 483 935 483 l 938 483 m 864 453 l 863 453 q 858 446 860 450 q 856 439 856 442 l 853 435 q 846 428 849 431 q 835 426 843 426 l 818 426 l 818 476 q 831 486 818 486 l 835 486 l 835 489 l 792 489 l 792 486 l 794 486 q 806 476 806 486 l 806 438 q 794 426 806 426 l 792 425 l 864 425 l 864 453 m 1074 -99 q 1061 -92 1071 -92 q 1047 -99 1050 -92 q 1043 -114 1043 -106 q 1047 -128 1043 -122 q 1061 -135 1050 -135 q 1075 -128 1072 -135 q 1078 -114 1078 -121 q 1074 -99 1078 -106 m 401 590 q 393 589 397 589 q 385 590 386 589 l 394 606 l 411 625 l 425 638 l 433 640 q 435 641 435 640 q 439 642 436 642 q 441 641 440 642 q 443 640 442 640 l 443 633 l 439 628 q 431 615 433 622 q 417 601 428 607 l 401 590 m 518 -129 q 529 -135 522 -135 q 544 -114 544 -135 q 542 -99 544 -107 q 529 -92 539 -92 q 513 -115 513 -92 q 518 -129 513 -125 m 406 431 q 411 443 411 435 q 404 432 408 436 l 396 426 l 386 426 q 372 428 379 426 q 364 443 364 431 l 364 476 q 368 485 364 483 q 376 486 372 486 l 381 486 l 381 489 l 338 489 l 338 486 q 351 476 351 486 l 351 443 q 358 428 351 438 l 369 425 q 382 424 372 424 q 406 431 399 424 m 314 -124 q 319 -131 314 -129 q 326 -133 324 -133 q 343 -114 343 -133 q 338 -99 343 -107 q 326 -92 333 -92 q 313 -114 313 -92 q 314 -124 313 -119 m 572 626 q 573 622 572 624 q 574 619 574 621 q 572 614 572 617 l 572 606 l 569 600 l 558 589 q 551 587 556 589 q 544 585 547 585 q 538 589 539 585 l 538 594 l 544 607 q 557 619 550 614 l 572 626 m 1018 21 q 1022 14 1018 15 q 1028 13 1025 13 l 1036 14 q 1046 28 1046 18 l 1046 38 q 1038 33 1042 33 l 1028 31 q 1018 21 1018 31 m 917 -129 l 938 -129 l 938 -150 l 917 -150 l 917 -129 m 85 -118 l 78 -119 q 65 -129 65 -122 q 69 -135 65 -132 q 75 -139 72 -139 q 78 -138 76 -139 q 89 -132 81 -137 q 92 -124 92 -126 l 92 -115 q 85 -118 90 -115 m 321 46 q 315 57 318 51 q 306 63 313 63 q 290 46 290 63 l 321 46 m 728 -118 l 718 -119 q 710 -129 710 -119 q 718 -139 710 -139 q 722 -136 721 -139 l 732 -132 q 733 -124 733 -129 l 733 -115 q 728 -118 733 -115 m 886 -107 q 883 -97 886 -101 q 871 -92 879 -92 q 857 -107 860 -92 l 886 -107 m 619 -107 q 616 -97 619 -101 q 604 -92 613 -92 q 590 -107 593 -92 l 619 -107 m 178 -53 l 197 -53 l 197 -69 l 178 -69 l 178 -53 m 1068 799 q 1063 792 1065 793 l 1082 817 l 1090 832 l 1108 856 q 1110 858 1108 857 q 1114 861 1113 860 q 1113 854 1114 856 l 1107 847 l 1099 835 l 1075 807 l 1068 799 m 425 489 l 393 489 l 393 486 l 400 486 q 408 481 406 486 q 411 469 411 475 l 411 479 l 418 485 q 419 486 418 485 l 425 486 l 425 489 z "},"3":{"ha":1260,"x_min":47,"x_max":1211,"o":"m 85 718 l 267 758 l 260 783 l 288 792 l 282 818 l 310 824 l 306 856 l 333 856 l 333 883 l 358 883 l 361 908 l 388 904 l 393 932 l 422 928 l 429 954 l 456 947 l 467 972 l 493 961 l 508 988 l 532 975 l 547 999 l 572 982 l 589 1004 l 613 986 l 631 1006 l 649 989 l 667 1004 l 685 985 l 708 1000 l 724 975 l 750 989 l 763 965 l 788 976 l 799 949 l 828 957 l 836 931 l 863 938 l 868 908 l 897 911 l 899 893 l 1172 953 l 1172 617 l 1047 589 l 1050 588 l 1033 569 l 1050 550 l 1028 532 l 1043 508 l 1018 493 l 1033 468 l 1010 454 l 1019 429 l 993 418 l 1001 389 l 976 381 l 981 354 l 954 349 l 954 319 l 928 317 l 928 290 l 904 290 l 900 267 l 874 267 l 868 242 l 839 246 l 832 218 l 806 226 l 796 200 l 767 211 l 754 185 l 729 199 l 714 175 l 689 190 l 672 168 l 651 186 l 631 168 l 613 185 l 594 168 l 578 189 l 554 174 l 538 199 l 513 185 l 500 208 l 474 197 l 461 225 l 435 217 l 426 242 l 399 236 l 393 265 l 364 263 l 361 290 l 333 290 l 333 314 l 310 317 l 313 344 l 285 349 l 290 378 l 263 386 l 271 411 l 251 419 l 85 383 l 85 718 m 826 647 l 842 663 q 840 658 840 661 q 844 647 840 651 q 854 642 847 642 q 881 653 865 642 l 894 663 q 899 667 897 665 q 904 672 901 669 l 913 681 l 913 678 q 912 676 913 676 q 911 674 911 675 l 911 669 q 910 665 910 668 q 912 658 910 663 q 917 654 914 654 l 928 654 l 932 657 l 946 665 l 979 694 l 976 686 q 974 674 974 682 l 974 669 q 976 668 976 669 q 981 667 976 667 q 988 669 982 667 q 994 674 993 671 l 1010 686 q 1018 692 1013 686 q 1029 704 1024 699 l 1042 718 l 1042 721 q 1040 722 1042 722 q 1035 719 1038 722 l 1033 717 l 1018 699 q 1010 690 1011 694 l 1000 682 l 989 676 q 988 675 989 676 q 985 676 986 675 l 992 686 q 997 694 994 692 l 1001 703 q 1007 710 1004 704 l 1050 772 q 1058 783 1057 779 l 1094 824 q 1106 838 1101 831 q 1117 851 1111 844 l 1124 864 l 1124 869 q 1118 871 1122 871 q 1108 868 1115 871 q 1096 860 1101 865 l 1090 856 l 1064 831 q 1053 818 1057 824 q 1042 801 1049 813 l 1006 743 l 988 710 l 976 700 q 971 693 974 696 q 964 686 968 690 l 951 675 l 940 667 q 938 665 940 667 l 935 663 l 928 663 l 936 676 q 942 687 936 679 q 950 697 947 694 l 961 717 l 976 739 l 982 747 q 983 750 979 747 q 988 754 988 753 q 983 758 988 758 l 969 751 l 947 735 q 933 747 947 747 q 923 745 929 747 q 913 740 917 743 l 896 732 l 883 721 q 858 696 868 710 q 844 669 849 682 l 842 669 l 831 657 q 816 644 824 651 q 800 638 808 638 l 799 638 q 797 639 797 638 l 799 640 l 807 653 l 829 681 q 835 690 832 685 q 842 700 839 694 l 847 711 q 849 718 849 714 q 843 729 849 729 q 838 728 839 729 l 821 719 l 807 708 q 799 703 801 703 l 785 688 q 778 681 782 685 q 772 675 775 678 l 758 660 l 760 663 l 794 711 q 797 715 794 713 q 799 721 799 718 l 794 725 q 792 726 793 725 q 790 726 792 726 q 788 726 789 726 q 783 725 786 725 l 774 718 q 771 715 771 717 q 769 713 771 714 l 714 618 q 713 615 713 617 l 713 614 q 715 613 714 614 q 717 613 715 613 q 722 614 719 613 l 728 617 q 733 622 728 622 l 736 626 q 739 629 736 629 l 764 658 l 790 686 l 817 711 l 832 719 q 833 718 833 719 l 829 715 q 824 710 828 711 l 813 696 q 808 691 810 693 q 804 686 807 689 l 785 657 l 781 644 q 779 638 779 642 q 786 629 779 629 l 799 629 q 805 633 801 631 q 814 638 808 635 l 826 647 m 551 581 q 576 591 564 581 q 594 608 588 601 l 600 621 q 604 633 604 626 l 604 644 q 601 654 604 649 l 597 665 l 593 669 q 591 674 593 672 q 589 678 589 676 l 589 685 l 583 685 q 581 682 581 682 l 572 676 l 568 667 l 543 632 l 536 621 l 535 619 q 532 618 533 619 l 525 607 l 500 581 l 492 576 q 483 574 489 574 l 483 575 l 493 589 l 503 601 l 515 621 l 518 631 q 519 640 519 635 q 518 646 518 642 l 517 649 q 515 653 517 651 l 515 668 l 519 675 l 519 678 q 517 682 519 679 q 513 685 515 685 q 495 678 506 685 q 485 663 485 672 q 486 654 485 657 l 489 653 q 492 650 489 653 l 483 642 l 454 606 q 451 603 451 606 l 450 600 q 449 599 450 599 l 442 589 q 421 572 431 579 q 400 558 411 564 l 386 553 q 378 550 381 550 q 368 558 368 550 q 371 565 368 560 l 379 582 q 388 581 382 581 l 400 581 q 415 588 407 583 q 435 599 422 592 l 444 610 q 449 615 447 613 q 451 621 451 618 l 457 629 q 449 646 457 640 l 436 646 q 430 646 433 646 q 424 643 426 646 l 410 638 q 369 609 388 626 q 346 568 351 592 l 346 557 q 364 543 350 543 q 396 551 378 543 q 429 574 414 558 l 456 597 q 458 601 456 599 q 460 604 460 603 l 463 608 l 483 633 q 490 640 488 636 q 496 647 493 644 l 503 642 q 504 639 503 640 l 504 638 q 503 635 504 636 q 500 631 501 633 l 489 619 l 471 593 l 468 581 q 467 575 467 579 l 469 565 l 475 565 q 486 567 482 565 l 497 574 q 510 586 503 579 q 524 597 517 593 l 535 613 l 540 619 q 543 622 543 622 l 565 654 q 567 642 565 647 q 569 635 569 638 l 572 629 q 556 621 561 626 l 542 611 q 535 599 538 604 q 532 588 532 594 q 539 581 532 583 l 551 581 m 621 611 q 624 606 621 606 l 631 600 q 633 599 632 600 q 636 599 635 599 l 638 600 l 646 600 q 656 603 651 601 q 664 606 660 604 l 682 615 l 710 640 l 719 654 l 731 678 q 731 681 731 679 q 732 683 732 682 q 731 691 732 681 q 710 701 729 701 q 701 700 706 701 q 689 696 696 699 l 681 693 l 649 669 l 629 644 q 621 626 622 633 l 621 611 m 174 11 q 163 29 165 18 q 160 51 160 40 l 160 63 q 176 94 160 82 q 210 106 192 106 l 214 106 q 246 92 233 106 q 256 72 258 79 l 233 72 q 225 83 232 79 q 211 88 218 88 l 201 88 l 192 79 q 183 68 185 76 q 182 50 182 60 q 207 15 182 15 l 210 15 q 227 21 218 15 q 236 38 236 26 l 211 38 l 211 56 l 256 56 l 256 -1 l 242 -1 l 239 13 q 204 -4 228 -4 q 187 0 196 -4 q 174 11 178 4 m 296 -96 q 322 -76 304 -76 q 335 -79 329 -76 q 343 -89 340 -82 l 344 -78 l 361 -78 l 361 -146 q 354 -169 361 -160 q 325 -178 347 -178 q 304 -173 313 -178 q 296 -157 296 -168 l 314 -157 l 318 -162 q 326 -164 319 -164 q 342 -158 342 -164 q 343 -153 343 -151 l 343 -140 q 324 -150 335 -150 q 303 -143 314 -150 q 292 -112 292 -136 q 293 -104 292 -108 q 296 -96 294 -100 m 803 68 q 814 38 814 57 q 806 12 814 26 q 775 -3 799 -3 q 745 8 756 -3 q 735 38 735 19 q 735 47 735 40 q 740 61 736 54 q 752 73 744 68 q 775 78 760 78 q 791 76 782 78 q 803 68 800 74 m 496 -78 l 513 -78 l 513 -89 l 515 -89 q 518 -87 517 -89 l 529 -78 q 535 -76 531 -76 q 554 -85 543 -76 q 565 -114 565 -93 q 556 -140 565 -129 q 535 -151 546 -151 q 525 -150 528 -151 l 519 -146 q 516 -144 518 -144 q 514 -142 514 -144 l 514 -176 l 496 -176 l 496 -78 m 1110 -78 l 1128 -78 l 1128 -89 q 1149 -76 1133 -76 q 1168 -87 1161 -76 q 1186 -76 1172 -76 q 1211 -101 1211 -76 l 1211 -150 l 1193 -150 l 1193 -107 q 1182 -92 1193 -92 q 1169 -107 1169 -92 l 1169 -150 l 1151 -150 l 1151 -100 q 1147 -94 1151 -96 q 1139 -92 1143 -92 q 1128 -107 1128 -92 l 1128 -150 l 1110 -150 l 1110 -78 m 1026 -100 q 1061 -76 1035 -76 q 1084 -84 1072 -76 q 1096 -114 1096 -92 q 1088 -140 1096 -129 q 1061 -151 1081 -151 q 1025 -114 1025 -151 q 1026 -100 1025 -106 m 172 479 l 179 486 l 192 500 q 197 508 194 506 l 240 567 l 267 608 q 274 619 271 614 q 281 629 278 624 l 292 651 q 292 653 292 653 q 293 654 293 653 q 289 657 293 657 q 282 656 283 657 l 276 653 l 254 625 q 244 613 250 621 l 233 599 l 178 517 l 160 483 l 160 476 l 167 476 l 172 479 m 1033 -1 q 1027 -2 1029 -1 q 1022 -3 1025 -3 q 1008 1 1017 -3 q 999 21 999 4 q 1006 38 999 33 q 1021 44 1013 42 l 1039 47 q 1046 53 1046 47 q 1033 63 1046 63 q 1019 50 1021 63 l 1001 50 q 1007 69 1001 60 q 1025 78 1013 78 l 1033 78 q 1057 74 1049 78 q 1065 56 1065 69 l 1065 7 q 1071 3 1065 3 l 1071 -1 l 1049 -1 q 1047 0 1047 -1 l 1047 1 l 1047 3 q 1047 6 1047 6 q 1046 8 1046 7 l 1040 3 q 1038 1 1039 1 q 1036 0 1038 1 q 1033 -1 1035 -1 m 340 31 l 288 31 q 292 19 288 25 q 306 14 296 14 q 316 17 313 14 q 319 22 319 19 l 340 22 l 333 8 l 322 0 q 314 -2 317 -1 q 306 -3 311 -3 q 268 39 268 -3 q 279 69 268 61 q 306 78 290 78 q 333 65 326 78 q 340 36 340 51 l 340 31 m 686 440 q 690 457 690 446 q 681 479 690 468 q 653 490 671 490 q 624 479 633 490 q 614 457 614 468 q 628 431 614 438 q 653 424 643 424 q 673 428 667 424 q 686 440 679 433 m 188 614 q 186 607 186 611 q 194 594 186 600 l 207 590 q 218 591 210 590 q 226 596 226 592 q 225 597 226 597 l 222 597 q 217 596 219 597 q 213 594 215 594 q 192 610 192 594 q 193 618 192 614 q 227 649 201 633 q 276 675 253 665 l 296 678 q 314 681 307 681 q 326 678 317 681 q 339 674 336 676 l 346 665 l 346 654 q 344 640 346 646 l 338 628 q 323 608 331 618 q 300 588 315 597 l 285 578 l 258 567 q 255 566 257 567 q 250 565 253 565 l 247 565 q 242 564 246 565 q 239 560 239 563 q 240 558 239 558 l 243 558 q 247 560 246 558 l 268 565 l 304 581 l 338 603 l 363 629 q 372 649 369 640 q 375 663 375 657 q 374 665 375 664 q 374 668 374 665 l 369 678 l 360 685 q 331 689 344 689 q 260 673 299 689 q 193 628 222 657 l 188 614 m 697 -115 q 711 -108 704 -108 l 728 -106 q 733 -101 733 -106 q 724 -90 733 -90 q 715 -94 718 -90 q 711 -101 711 -99 l 693 -101 q 706 -80 693 -83 q 724 -76 718 -76 q 753 -97 753 -76 l 753 -135 q 753 -143 753 -142 q 757 -147 754 -144 l 757 -150 l 736 -149 q 735 -147 736 -147 q 735 -146 735 -147 l 735 -142 q 723 -149 725 -146 q 713 -151 721 -151 q 703 -150 707 -151 l 693 -143 q 690 -131 690 -137 q 697 -115 690 -119 m 53 -115 q 67 -108 60 -108 l 85 -106 q 92 -101 92 -106 q 81 -90 92 -90 q 70 -94 74 -90 q 67 -101 67 -99 l 50 -101 q 60 -81 50 -85 q 81 -76 71 -76 q 104 -83 100 -76 q 108 -97 108 -90 l 108 -135 q 109 -143 108 -142 q 113 -147 110 -144 l 113 -150 l 93 -150 l 93 -146 q 92 -142 92 -144 l 86 -147 q 77 -151 81 -150 q 71 -151 74 -151 q 55 -147 63 -151 q 47 -131 47 -143 q 53 -115 47 -119 m 575 -96 q 604 -76 583 -76 q 639 -115 639 -76 l 639 -119 l 590 -119 q 606 -136 590 -136 q 615 -133 610 -136 l 619 -128 l 638 -128 q 626 -147 635 -143 q 606 -151 618 -151 q 572 -112 572 -151 q 575 -96 572 -101 m 842 -96 q 872 -76 850 -76 q 898 -88 890 -76 q 906 -115 906 -100 l 906 -119 l 857 -119 q 872 -136 857 -136 q 882 -133 876 -136 l 886 -128 l 904 -128 q 872 -151 897 -151 q 839 -112 839 -151 q 842 -96 839 -107 m 894 67 q 897 53 897 58 l 897 -1 l 878 -1 l 878 46 q 864 61 878 61 q 849 43 849 61 l 849 -1 l 828 -1 l 828 76 l 847 76 l 847 65 q 871 78 856 78 q 885 75 881 78 l 894 67 m 540 10 q 528 0 535 3 q 517 -3 521 -3 q 490 25 490 -3 l 490 76 l 510 76 l 510 29 q 524 15 510 15 l 531 15 l 538 22 q 539 26 538 24 q 540 31 540 28 l 540 76 l 558 76 l 558 -1 l 540 -1 l 540 10 m 415 -83 l 414 -78 l 436 -78 l 450 -131 l 464 -78 l 485 -78 l 460 -149 l 450 -172 q 433 -178 444 -178 l 424 -178 l 424 -162 l 435 -162 q 439 -160 436 -162 l 439 -157 q 440 -153 440 -156 l 415 -83 m 215 -78 l 232 -78 l 232 -89 q 254 -76 240 -76 q 271 -81 263 -76 q 279 -101 279 -86 l 279 -150 l 260 -150 l 260 -107 q 258 -96 260 -100 q 247 -92 256 -92 q 236 -97 239 -92 q 233 -108 233 -103 l 233 -150 l 215 -150 l 215 -78 m 957 -87 q 983 -76 965 -76 q 1006 -83 994 -76 q 1017 -104 1017 -90 l 997 -104 l 993 -96 q 985 -92 989 -92 q 974 -97 979 -92 q 969 -112 969 -103 q 983 -135 969 -135 q 996 -124 996 -135 l 1017 -124 q 1007 -143 1014 -135 q 983 -151 1000 -151 q 960 -144 971 -151 q 950 -115 950 -136 q 957 -87 950 -104 m 772 -87 q 799 -76 781 -76 q 822 -85 811 -76 q 832 -104 832 -93 l 811 -104 q 809 -97 811 -101 q 800 -92 807 -92 q 788 -98 793 -92 q 783 -112 783 -104 q 784 -119 783 -117 q 785 -125 785 -122 l 790 -132 q 799 -135 793 -135 q 806 -133 801 -135 q 811 -124 811 -131 l 829 -124 q 820 -144 829 -136 q 799 -151 811 -151 q 775 -143 785 -151 q 765 -115 765 -135 q 772 -87 765 -104 m 468 88 q 465 85 465 88 l 465 76 l 478 76 l 478 63 l 465 63 l 465 -1 l 444 -1 l 444 63 l 435 63 l 435 76 l 444 76 l 444 82 q 468 104 444 104 l 478 104 l 478 88 l 468 88 m 715 76 l 729 76 l 729 63 l 715 63 l 715 -1 l 694 -1 l 694 63 l 685 63 l 685 76 l 694 76 l 694 82 q 718 104 694 104 l 726 104 l 726 88 l 718 88 q 715 85 717 88 l 715 76 m 1119 -1 l 1107 -1 q 1093 1 1101 -1 q 1085 15 1085 3 l 1085 63 l 1075 63 l 1075 76 l 1085 76 l 1085 96 l 1107 96 l 1107 76 l 1119 76 l 1119 63 l 1107 63 l 1107 15 q 1110 15 1108 15 q 1114 14 1111 14 l 1119 15 l 1119 -1 m 378 96 l 378 76 l 389 76 l 389 63 l 378 63 l 378 21 q 378 15 378 17 q 386 14 379 14 l 388 15 l 389 -1 l 378 -1 q 364 0 371 -1 q 357 15 357 1 l 357 63 l 346 63 l 346 76 l 357 76 l 357 96 l 378 96 m 640 606 q 638 607 638 606 l 638 615 q 644 629 640 625 l 654 644 l 678 674 q 684 680 681 676 q 690 686 688 683 l 703 694 q 710 696 706 696 q 714 689 714 696 q 711 682 714 688 l 704 669 l 686 642 l 661 615 q 656 611 658 613 q 651 608 653 608 q 646 606 649 607 l 640 606 m 865 664 l 871 671 l 881 686 l 911 725 l 926 739 q 932 741 928 740 q 938 742 936 742 l 942 739 q 942 737 942 738 q 943 735 943 736 q 939 725 943 729 l 919 694 l 908 685 l 890 667 l 875 654 q 869 651 872 654 q 863 649 865 649 l 861 650 l 860 650 q 858 653 858 651 q 860 654 860 653 q 861 657 860 656 l 865 664 m 951 -1 l 938 -1 q 919 7 921 -1 l 919 63 l 907 63 l 907 76 l 919 76 l 919 96 l 938 96 l 938 76 l 951 76 l 951 63 l 938 63 l 938 21 q 946 14 938 14 l 951 15 l 951 -1 m 669 479 q 672 472 669 475 q 675 457 675 468 q 672 437 675 447 q 653 426 668 426 q 636 435 638 426 l 632 443 q 629 457 629 451 q 630 463 629 460 q 631 468 631 465 l 639 483 q 644 487 640 485 q 654 489 649 489 q 656 488 654 488 l 658 488 l 669 479 m 654 -92 l 643 -92 l 643 -78 l 654 -78 l 654 -72 q 675 -53 654 -53 l 683 -53 l 683 -68 l 675 -68 q 674 -69 674 -69 l 672 -78 l 685 -78 l 685 -92 l 672 -92 l 672 -150 l 654 -150 l 654 -92 m 379 -92 l 369 -92 l 369 -78 l 379 -78 l 379 -60 l 399 -60 l 399 -78 l 410 -78 l 410 -92 l 399 -92 l 399 -129 q 399 -134 399 -132 q 406 -136 399 -136 l 410 -135 l 410 -150 l 399 -150 q 379 -135 379 -150 l 379 -92 m 597 -1 l 578 -1 l 578 104 l 597 104 l 597 -1 m 632 -1 l 613 -1 l 613 104 l 632 104 l 632 -1 m 572 489 l 503 489 l 503 486 l 506 486 q 517 476 517 486 l 517 438 q 506 426 517 426 l 503 425 l 572 425 l 572 451 l 561 433 q 556 429 557 429 l 549 428 q 540 426 546 426 l 531 426 l 532 454 q 544 450 538 454 l 547 446 q 548 444 547 444 q 549 442 549 443 l 549 436 l 549 476 l 546 464 q 533 457 539 457 l 531 457 l 531 486 l 542 486 q 557 485 553 486 l 563 481 l 569 464 l 572 464 l 572 489 m 126 -78 l 143 -78 l 144 -90 l 149 -83 q 152 -78 151 -81 q 164 -76 153 -76 l 168 -76 l 168 -96 l 163 -96 q 144 -112 144 -96 l 144 -150 l 126 -150 l 126 -78 m 788 489 l 756 489 l 756 486 l 761 486 l 765 482 q 771 469 771 476 l 771 443 l 726 489 l 701 489 l 701 486 q 712 483 710 486 q 714 476 714 481 l 714 440 q 713 433 714 436 l 708 428 q 703 427 706 428 q 700 426 701 426 l 700 425 l 733 426 q 726 428 729 426 l 721 428 l 718 435 q 717 443 717 436 l 717 481 l 771 425 l 774 425 l 774 469 q 775 481 774 476 q 788 486 776 486 l 788 489 m 492 454 q 483 460 490 457 l 472 464 l 464 465 q 451 469 461 465 q 443 476 440 472 l 443 482 q 445 485 443 481 q 458 489 447 489 q 478 483 474 489 q 490 467 483 476 l 492 467 l 490 488 q 485 483 489 483 l 479 483 q 458 490 468 490 q 444 488 453 490 l 436 482 q 434 477 435 479 q 433 471 433 475 q 435 464 433 468 q 440 460 438 460 l 449 456 q 463 451 450 454 l 468 450 q 479 447 471 449 q 488 436 488 444 q 485 431 488 435 q 479 426 483 428 l 472 426 q 461 428 465 426 l 450 432 l 443 439 q 436 453 436 446 l 435 453 l 436 424 q 439 428 436 426 q 444 431 442 431 q 448 429 446 431 q 453 428 450 428 l 463 425 q 472 424 465 424 q 485 428 482 424 q 496 436 489 433 l 496 450 l 492 454 m 789 22 q 793 38 793 26 q 789 54 793 47 q 775 61 785 61 q 756 38 756 61 q 761 19 756 24 q 775 15 767 15 q 789 22 786 15 m 178 -78 l 197 -78 l 197 -150 l 178 -150 l 178 -78 m 938 483 q 940 485 938 483 q 944 486 942 485 l 944 489 l 913 489 l 913 486 l 917 486 q 926 481 926 486 q 922 474 926 478 l 910 456 l 893 476 q 890 482 890 482 l 890 483 q 896 486 890 486 l 901 486 l 901 489 l 860 489 l 861 486 q 869 485 865 486 q 876 478 874 485 l 896 451 l 896 438 q 885 426 896 426 l 881 425 l 926 425 l 921 426 q 910 438 910 426 l 910 453 l 929 481 q 936 483 935 483 l 938 483 m 864 453 l 863 453 q 858 446 860 450 q 856 439 856 442 l 853 435 q 846 428 849 431 q 835 426 843 426 l 818 426 l 818 476 q 831 486 818 486 l 835 486 l 835 489 l 792 489 l 792 486 l 794 486 q 806 476 806 486 l 806 438 q 794 426 806 426 l 792 425 l 864 425 l 864 453 m 1074 -99 q 1061 -92 1071 -92 q 1047 -99 1050 -92 q 1043 -114 1043 -106 q 1047 -128 1043 -122 q 1061 -135 1050 -135 q 1075 -128 1072 -135 q 1078 -114 1078 -121 q 1074 -99 1078 -106 m 401 590 q 393 589 397 589 q 385 590 386 589 l 394 606 l 411 625 l 425 638 l 433 640 q 435 641 435 640 q 439 642 436 642 q 441 641 440 642 q 443 640 442 640 l 443 633 l 439 628 q 431 615 433 622 q 417 601 428 607 l 401 590 m 518 -129 q 529 -135 522 -135 q 544 -114 544 -135 q 542 -99 544 -107 q 529 -92 539 -92 q 513 -115 513 -92 q 518 -129 513 -125 m 406 431 q 411 443 411 435 q 404 432 408 436 l 396 426 l 386 426 q 372 428 379 426 q 364 443 364 431 l 364 476 q 368 485 364 483 q 376 486 372 486 l 381 486 l 381 489 l 338 489 l 338 486 q 351 476 351 486 l 351 443 q 358 428 351 438 l 369 425 q 382 424 372 424 q 406 431 399 424 m 314 -124 q 319 -131 314 -129 q 326 -133 324 -133 q 343 -114 343 -133 q 338 -99 343 -107 q 326 -92 333 -92 q 313 -114 313 -92 q 314 -124 313 -119 m 572 626 q 573 622 572 624 q 574 619 574 621 q 572 614 572 617 l 572 606 l 569 600 l 558 589 q 551 587 556 589 q 544 585 547 585 q 538 589 539 585 l 538 594 l 544 607 q 557 619 550 614 l 572 626 m 1018 21 q 1022 14 1018 15 q 1028 13 1025 13 l 1036 14 q 1046 28 1046 18 l 1046 38 q 1038 33 1042 33 l 1028 31 q 1018 21 1018 31 m 917 -129 l 938 -129 l 938 -150 l 917 -150 l 917 -129 m 85 -118 l 78 -119 q 65 -129 65 -122 q 69 -135 65 -132 q 75 -139 72 -139 q 78 -138 76 -139 q 89 -132 81 -137 q 92 -124 92 -126 l 92 -115 q 85 -118 90 -115 m 321 46 q 315 57 318 51 q 306 63 313 63 q 290 46 290 63 l 321 46 m 728 -118 l 718 -119 q 710 -129 710 -119 q 718 -139 710 -139 q 722 -136 721 -139 l 732 -132 q 733 -124 733 -129 l 733 -115 q 728 -118 733 -115 m 886 -107 q 883 -97 886 -101 q 871 -92 879 -92 q 857 -107 860 -92 l 886 -107 m 619 -107 q 616 -97 619 -101 q 604 -92 613 -92 q 590 -107 593 -92 l 619 -107 m 178 -53 l 197 -53 l 197 -69 l 178 -69 l 178 -53 m 1068 799 q 1063 792 1065 793 l 1082 817 l 1090 832 l 1108 856 q 1110 858 1108 857 q 1114 861 1113 860 q 1113 854 1114 856 l 1107 847 l 1099 835 l 1075 807 l 1068 799 m 425 489 l 393 489 l 393 486 l 400 486 q 408 481 406 486 q 411 469 411 475 l 411 479 l 418 485 q 419 486 418 485 l 425 486 l 425 489 z "},"4":{"ha":1260,"x_min":47,"x_max":1211,"o":"m 85 718 l 267 758 l 260 783 l 288 792 l 282 818 l 310 824 l 306 856 l 333 856 l 333 883 l 358 883 l 361 908 l 388 904 l 393 932 l 422 928 l 429 954 l 456 947 l 467 972 l 493 961 l 508 988 l 532 975 l 547 999 l 572 982 l 589 1004 l 613 986 l 631 1006 l 649 989 l 667 1004 l 685 985 l 708 1000 l 724 975 l 750 989 l 763 965 l 788 976 l 799 949 l 828 957 l 836 931 l 863 938 l 868 908 l 897 911 l 899 893 l 1172 953 l 1172 617 l 1047 589 l 1050 588 l 1033 569 l 1050 550 l 1028 532 l 1043 508 l 1018 493 l 1033 468 l 1010 454 l 1019 429 l 993 418 l 1001 389 l 976 381 l 981 354 l 954 349 l 954 319 l 928 317 l 928 290 l 904 290 l 900 267 l 874 267 l 868 242 l 839 246 l 832 218 l 806 226 l 796 200 l 767 211 l 754 185 l 729 199 l 714 175 l 689 190 l 672 168 l 651 186 l 631 168 l 613 185 l 594 168 l 578 189 l 554 174 l 538 199 l 513 185 l 500 208 l 474 197 l 461 225 l 435 217 l 426 242 l 399 236 l 393 265 l 364 263 l 361 290 l 333 290 l 333 314 l 310 317 l 313 344 l 285 349 l 290 378 l 263 386 l 271 411 l 251 419 l 85 383 l 85 718 m 826 647 l 842 663 q 840 658 840 661 q 844 647 840 651 q 854 642 847 642 q 881 653 865 642 l 894 663 q 899 667 897 665 q 904 672 901 669 l 913 681 l 913 678 q 912 676 913 676 q 911 674 911 675 l 911 669 q 910 665 910 668 q 912 658 910 663 q 917 654 914 654 l 928 654 l 932 657 l 946 665 l 979 694 l 976 686 q 974 674 974 682 l 974 669 q 976 668 976 669 q 981 667 976 667 q 988 669 982 667 q 994 674 993 671 l 1010 686 q 1018 692 1013 686 q 1029 704 1024 699 l 1042 718 l 1042 721 q 1040 722 1042 722 q 1035 719 1038 722 l 1033 717 l 1018 699 q 1010 690 1011 694 l 1000 682 l 989 676 q 988 675 989 676 q 985 676 986 675 l 992 686 q 997 694 994 692 l 1001 703 q 1007 710 1004 704 l 1050 772 q 1058 783 1057 779 l 1094 824 q 1106 838 1101 831 q 1117 851 1111 844 l 1124 864 l 1124 869 q 1118 871 1122 871 q 1108 868 1115 871 q 1096 860 1101 865 l 1090 856 l 1064 831 q 1053 818 1057 824 q 1042 801 1049 813 l 1006 743 l 988 710 l 976 700 q 971 693 974 696 q 964 686 968 690 l 951 675 l 940 667 q 938 665 940 667 l 935 663 l 928 663 l 936 676 q 942 687 936 679 q 950 697 947 694 l 961 717 l 976 739 l 982 747 q 983 750 979 747 q 988 754 988 753 q 983 758 988 758 l 969 751 l 947 735 q 933 747 947 747 q 923 745 929 747 q 913 740 917 743 l 896 732 l 883 721 q 858 696 868 710 q 844 669 849 682 l 842 669 l 831 657 q 816 644 824 651 q 800 638 808 638 l 799 638 q 797 639 797 638 l 799 640 l 807 653 l 829 681 q 835 690 832 685 q 842 700 839 694 l 847 711 q 849 718 849 714 q 843 729 849 729 q 838 728 839 729 l 821 719 l 807 708 q 799 703 801 703 l 785 688 q 778 681 782 685 q 772 675 775 678 l 758 660 l 760 663 l 794 711 q 797 715 794 713 q 799 721 799 718 l 794 725 q 792 726 793 725 q 790 726 792 726 q 788 726 789 726 q 783 725 786 725 l 774 718 q 771 715 771 717 q 769 713 771 714 l 714 618 q 713 615 713 617 l 713 614 q 715 613 714 614 q 717 613 715 613 q 722 614 719 613 l 728 617 q 733 622 728 622 l 736 626 q 739 629 736 629 l 764 658 l 790 686 l 817 711 l 832 719 q 833 718 833 719 l 829 715 q 824 710 828 711 l 813 696 q 808 691 810 693 q 804 686 807 689 l 785 657 l 781 644 q 779 638 779 642 q 786 629 779 629 l 799 629 q 805 633 801 631 q 814 638 808 635 l 826 647 m 551 581 q 576 591 564 581 q 594 608 588 601 l 600 621 q 604 633 604 626 l 604 644 q 601 654 604 649 l 597 665 l 593 669 q 591 674 593 672 q 589 678 589 676 l 589 685 l 583 685 q 581 682 581 682 l 572 676 l 568 667 l 543 632 l 536 621 l 535 619 q 532 618 533 619 l 525 607 l 500 581 l 492 576 q 483 574 489 574 l 483 575 l 493 589 l 503 601 l 515 621 l 518 631 q 519 640 519 635 q 518 646 518 642 l 517 649 q 515 653 517 651 l 515 668 l 519 675 l 519 678 q 517 682 519 679 q 513 685 515 685 q 495 678 506 685 q 485 663 485 672 q 486 654 485 657 l 489 653 q 492 650 489 653 l 483 642 l 454 606 q 451 603 451 606 l 450 600 q 449 599 450 599 l 442 589 q 421 572 431 579 q 400 558 411 564 l 386 553 q 378 550 381 550 q 368 558 368 550 q 371 565 368 560 l 379 582 q 388 581 382 581 l 400 581 q 415 588 407 583 q 435 599 422 592 l 444 610 q 449 615 447 613 q 451 621 451 618 l 457 629 q 449 646 457 640 l 436 646 q 430 646 433 646 q 424 643 426 646 l 410 638 q 369 609 388 626 q 346 568 351 592 l 346 557 q 364 543 350 543 q 396 551 378 543 q 429 574 414 558 l 456 597 q 458 601 456 599 q 460 604 460 603 l 463 608 l 483 633 q 490 640 488 636 q 496 647 493 644 l 503 642 q 504 639 503 640 l 504 638 q 503 635 504 636 q 500 631 501 633 l 489 619 l 471 593 l 468 581 q 467 575 467 579 l 469 565 l 475 565 q 486 567 482 565 l 497 574 q 510 586 503 579 q 524 597 517 593 l 535 613 l 540 619 q 543 622 543 622 l 565 654 q 567 642 565 647 q 569 635 569 638 l 572 629 q 556 621 561 626 l 542 611 q 535 599 538 604 q 532 588 532 594 q 539 581 532 583 l 551 581 m 621 611 q 624 606 621 606 l 631 600 q 633 599 632 600 q 636 599 635 599 l 638 600 l 646 600 q 656 603 651 601 q 664 606 660 604 l 682 615 l 710 640 l 719 654 l 731 678 q 731 681 731 679 q 732 683 732 682 q 731 691 732 681 q 710 701 729 701 q 701 700 706 701 q 689 696 696 699 l 681 693 l 649 669 l 629 644 q 621 626 622 633 l 621 611 m 174 11 q 163 29 165 18 q 160 51 160 40 l 160 63 q 176 94 160 82 q 210 106 192 106 l 214 106 q 246 92 233 106 q 256 72 258 79 l 233 72 q 225 83 232 79 q 211 88 218 88 l 201 88 l 192 79 q 183 68 185 76 q 182 50 182 60 q 207 15 182 15 l 210 15 q 227 21 218 15 q 236 38 236 26 l 211 38 l 211 56 l 256 56 l 256 -1 l 242 -1 l 239 13 q 204 -4 228 -4 q 187 0 196 -4 q 174 11 178 4 m 296 -96 q 322 -76 304 -76 q 335 -79 329 -76 q 343 -89 340 -82 l 344 -78 l 361 -78 l 361 -146 q 354 -169 361 -160 q 325 -178 347 -178 q 304 -173 313 -178 q 296 -157 296 -168 l 314 -157 l 318 -162 q 326 -164 319 -164 q 342 -158 342 -164 q 343 -153 343 -151 l 343 -140 q 324 -150 335 -150 q 303 -143 314 -150 q 292 -112 292 -136 q 293 -104 292 -108 q 296 -96 294 -100 m 803 68 q 814 38 814 57 q 806 12 814 26 q 775 -3 799 -3 q 745 8 756 -3 q 735 38 735 19 q 735 47 735 40 q 740 61 736 54 q 752 73 744 68 q 775 78 760 78 q 791 76 782 78 q 803 68 800 74 m 496 -78 l 513 -78 l 513 -89 l 515 -89 q 518 -87 517 -89 l 529 -78 q 535 -76 531 -76 q 554 -85 543 -76 q 565 -114 565 -93 q 556 -140 565 -129 q 535 -151 546 -151 q 525 -150 528 -151 l 519 -146 q 516 -144 518 -144 q 514 -142 514 -144 l 514 -176 l 496 -176 l 496 -78 m 1110 -78 l 1128 -78 l 1128 -89 q 1149 -76 1133 -76 q 1168 -87 1161 -76 q 1186 -76 1172 -76 q 1211 -101 1211 -76 l 1211 -150 l 1193 -150 l 1193 -107 q 1182 -92 1193 -92 q 1169 -107 1169 -92 l 1169 -150 l 1151 -150 l 1151 -100 q 1147 -94 1151 -96 q 1139 -92 1143 -92 q 1128 -107 1128 -92 l 1128 -150 l 1110 -150 l 1110 -78 m 1026 -100 q 1061 -76 1035 -76 q 1084 -84 1072 -76 q 1096 -114 1096 -92 q 1088 -140 1096 -129 q 1061 -151 1081 -151 q 1025 -114 1025 -151 q 1026 -100 1025 -106 m 172 479 l 179 486 l 192 500 q 197 508 194 506 l 240 567 l 267 608 q 274 619 271 614 q 281 629 278 624 l 292 651 q 292 653 292 653 q 293 654 293 653 q 289 657 293 657 q 282 656 283 657 l 276 653 l 254 625 q 244 613 250 621 l 233 599 l 178 517 l 160 483 l 160 476 l 167 476 l 172 479 m 1033 -1 q 1027 -2 1029 -1 q 1022 -3 1025 -3 q 1008 1 1017 -3 q 999 21 999 4 q 1006 38 999 33 q 1021 44 1013 42 l 1039 47 q 1046 53 1046 47 q 1033 63 1046 63 q 1019 50 1021 63 l 1001 50 q 1007 69 1001 60 q 1025 78 1013 78 l 1033 78 q 1057 74 1049 78 q 1065 56 1065 69 l 1065 7 q 1071 3 1065 3 l 1071 -1 l 1049 -1 q 1047 0 1047 -1 l 1047 1 l 1047 3 q 1047 6 1047 6 q 1046 8 1046 7 l 1040 3 q 1038 1 1039 1 q 1036 0 1038 1 q 1033 -1 1035 -1 m 340 31 l 288 31 q 292 19 288 25 q 306 14 296 14 q 316 17 313 14 q 319 22 319 19 l 340 22 l 333 8 l 322 0 q 314 -2 317 -1 q 306 -3 311 -3 q 268 39 268 -3 q 279 69 268 61 q 306 78 290 78 q 333 65 326 78 q 340 36 340 51 l 340 31 m 686 440 q 690 457 690 446 q 681 479 690 468 q 653 490 671 490 q 624 479 633 490 q 614 457 614 468 q 628 431 614 438 q 653 424 643 424 q 673 428 667 424 q 686 440 679 433 m 188 614 q 186 607 186 611 q 194 594 186 600 l 207 590 q 218 591 210 590 q 226 596 226 592 q 225 597 226 597 l 222 597 q 217 596 219 597 q 213 594 215 594 q 192 610 192 594 q 193 618 192 614 q 227 649 201 633 q 276 675 253 665 l 296 678 q 314 681 307 681 q 326 678 317 681 q 339 674 336 676 l 346 665 l 346 654 q 344 640 346 646 l 338 628 q 323 608 331 618 q 300 588 315 597 l 285 578 l 258 567 q 255 566 257 567 q 250 565 253 565 l 247 565 q 242 564 246 565 q 239 560 239 563 q 240 558 239 558 l 243 558 q 247 560 246 558 l 268 565 l 304 581 l 338 603 l 363 629 q 372 649 369 640 q 375 663 375 657 q 374 665 375 664 q 374 668 374 665 l 369 678 l 360 685 q 331 689 344 689 q 260 673 299 689 q 193 628 222 657 l 188 614 m 697 -115 q 711 -108 704 -108 l 728 -106 q 733 -101 733 -106 q 724 -90 733 -90 q 715 -94 718 -90 q 711 -101 711 -99 l 693 -101 q 706 -80 693 -83 q 724 -76 718 -76 q 753 -97 753 -76 l 753 -135 q 753 -143 753 -142 q 757 -147 754 -144 l 757 -150 l 736 -149 q 735 -147 736 -147 q 735 -146 735 -147 l 735 -142 q 723 -149 725 -146 q 713 -151 721 -151 q 703 -150 707 -151 l 693 -143 q 690 -131 690 -137 q 697 -115 690 -119 m 53 -115 q 67 -108 60 -108 l 85 -106 q 92 -101 92 -106 q 81 -90 92 -90 q 70 -94 74 -90 q 67 -101 67 -99 l 50 -101 q 60 -81 50 -85 q 81 -76 71 -76 q 104 -83 100 -76 q 108 -97 108 -90 l 108 -135 q 109 -143 108 -142 q 113 -147 110 -144 l 113 -150 l 93 -150 l 93 -146 q 92 -142 92 -144 l 86 -147 q 77 -151 81 -150 q 71 -151 74 -151 q 55 -147 63 -151 q 47 -131 47 -143 q 53 -115 47 -119 m 575 -96 q 604 -76 583 -76 q 639 -115 639 -76 l 639 -119 l 590 -119 q 606 -136 590 -136 q 615 -133 610 -136 l 619 -128 l 638 -128 q 626 -147 635 -143 q 606 -151 618 -151 q 572 -112 572 -151 q 575 -96 572 -101 m 842 -96 q 872 -76 850 -76 q 898 -88 890 -76 q 906 -115 906 -100 l 906 -119 l 857 -119 q 872 -136 857 -136 q 882 -133 876 -136 l 886 -128 l 904 -128 q 872 -151 897 -151 q 839 -112 839 -151 q 842 -96 839 -107 m 894 67 q 897 53 897 58 l 897 -1 l 878 -1 l 878 46 q 864 61 878 61 q 849 43 849 61 l 849 -1 l 828 -1 l 828 76 l 847 76 l 847 65 q 871 78 856 78 q 885 75 881 78 l 894 67 m 540 10 q 528 0 535 3 q 517 -3 521 -3 q 490 25 490 -3 l 490 76 l 510 76 l 510 29 q 524 15 510 15 l 531 15 l 538 22 q 539 26 538 24 q 540 31 540 28 l 540 76 l 558 76 l 558 -1 l 540 -1 l 540 10 m 415 -83 l 414 -78 l 436 -78 l 450 -131 l 464 -78 l 485 -78 l 460 -149 l 450 -172 q 433 -178 444 -178 l 424 -178 l 424 -162 l 435 -162 q 439 -160 436 -162 l 439 -157 q 440 -153 440 -156 l 415 -83 m 215 -78 l 232 -78 l 232 -89 q 254 -76 240 -76 q 271 -81 263 -76 q 279 -101 279 -86 l 279 -150 l 260 -150 l 260 -107 q 258 -96 260 -100 q 247 -92 256 -92 q 236 -97 239 -92 q 233 -108 233 -103 l 233 -150 l 215 -150 l 215 -78 m 957 -87 q 983 -76 965 -76 q 1006 -83 994 -76 q 1017 -104 1017 -90 l 997 -104 l 993 -96 q 985 -92 989 -92 q 974 -97 979 -92 q 969 -112 969 -103 q 983 -135 969 -135 q 996 -124 996 -135 l 1017 -124 q 1007 -143 1014 -135 q 983 -151 1000 -151 q 960 -144 971 -151 q 950 -115 950 -136 q 957 -87 950 -104 m 772 -87 q 799 -76 781 -76 q 822 -85 811 -76 q 832 -104 832 -93 l 811 -104 q 809 -97 811 -101 q 800 -92 807 -92 q 788 -98 793 -92 q 783 -112 783 -104 q 784 -119 783 -117 q 785 -125 785 -122 l 790 -132 q 799 -135 793 -135 q 806 -133 801 -135 q 811 -124 811 -131 l 829 -124 q 820 -144 829 -136 q 799 -151 811 -151 q 775 -143 785 -151 q 765 -115 765 -135 q 772 -87 765 -104 m 468 88 q 465 85 465 88 l 465 76 l 478 76 l 478 63 l 465 63 l 465 -1 l 444 -1 l 444 63 l 435 63 l 435 76 l 444 76 l 444 82 q 468 104 444 104 l 478 104 l 478 88 l 468 88 m 715 76 l 729 76 l 729 63 l 715 63 l 715 -1 l 694 -1 l 694 63 l 685 63 l 685 76 l 694 76 l 694 82 q 718 104 694 104 l 726 104 l 726 88 l 718 88 q 715 85 717 88 l 715 76 m 1119 -1 l 1107 -1 q 1093 1 1101 -1 q 1085 15 1085 3 l 1085 63 l 1075 63 l 1075 76 l 1085 76 l 1085 96 l 1107 96 l 1107 76 l 1119 76 l 1119 63 l 1107 63 l 1107 15 q 1110 15 1108 15 q 1114 14 1111 14 l 1119 15 l 1119 -1 m 378 96 l 378 76 l 389 76 l 389 63 l 378 63 l 378 21 q 378 15 378 17 q 386 14 379 14 l 388 15 l 389 -1 l 378 -1 q 364 0 371 -1 q 357 15 357 1 l 357 63 l 346 63 l 346 76 l 357 76 l 357 96 l 378 96 m 640 606 q 638 607 638 606 l 638 615 q 644 629 640 625 l 654 644 l 678 674 q 684 680 681 676 q 690 686 688 683 l 703 694 q 710 696 706 696 q 714 689 714 696 q 711 682 714 688 l 704 669 l 686 642 l 661 615 q 656 611 658 613 q 651 608 653 608 q 646 606 649 607 l 640 606 m 865 664 l 871 671 l 881 686 l 911 725 l 926 739 q 932 741 928 740 q 938 742 936 742 l 942 739 q 942 737 942 738 q 943 735 943 736 q 939 725 943 729 l 919 694 l 908 685 l 890 667 l 875 654 q 869 651 872 654 q 863 649 865 649 l 861 650 l 860 650 q 858 653 858 651 q 860 654 860 653 q 861 657 860 656 l 865 664 m 951 -1 l 938 -1 q 919 7 921 -1 l 919 63 l 907 63 l 907 76 l 919 76 l 919 96 l 938 96 l 938 76 l 951 76 l 951 63 l 938 63 l 938 21 q 946 14 938 14 l 951 15 l 951 -1 m 669 479 q 672 472 669 475 q 675 457 675 468 q 672 437 675 447 q 653 426 668 426 q 636 435 638 426 l 632 443 q 629 457 629 451 q 630 463 629 460 q 631 468 631 465 l 639 483 q 644 487 640 485 q 654 489 649 489 q 656 488 654 488 l 658 488 l 669 479 m 654 -92 l 643 -92 l 643 -78 l 654 -78 l 654 -72 q 675 -53 654 -53 l 683 -53 l 683 -68 l 675 -68 q 674 -69 674 -69 l 672 -78 l 685 -78 l 685 -92 l 672 -92 l 672 -150 l 654 -150 l 654 -92 m 379 -92 l 369 -92 l 369 -78 l 379 -78 l 379 -60 l 399 -60 l 399 -78 l 410 -78 l 410 -92 l 399 -92 l 399 -129 q 399 -134 399 -132 q 406 -136 399 -136 l 410 -135 l 410 -150 l 399 -150 q 379 -135 379 -150 l 379 -92 m 597 -1 l 578 -1 l 578 104 l 597 104 l 597 -1 m 632 -1 l 613 -1 l 613 104 l 632 104 l 632 -1 m 572 489 l 503 489 l 503 486 l 506 486 q 517 476 517 486 l 517 438 q 506 426 517 426 l 503 425 l 572 425 l 572 451 l 561 433 q 556 429 557 429 l 549 428 q 540 426 546 426 l 531 426 l 532 454 q 544 450 538 454 l 547 446 q 548 444 547 444 q 549 442 549 443 l 549 436 l 549 476 l 546 464 q 533 457 539 457 l 531 457 l 531 486 l 542 486 q 557 485 553 486 l 563 481 l 569 464 l 572 464 l 572 489 m 126 -78 l 143 -78 l 144 -90 l 149 -83 q 152 -78 151 -81 q 164 -76 153 -76 l 168 -76 l 168 -96 l 163 -96 q 144 -112 144 -96 l 144 -150 l 126 -150 l 126 -78 m 788 489 l 756 489 l 756 486 l 761 486 l 765 482 q 771 469 771 476 l 771 443 l 726 489 l 701 489 l 701 486 q 712 483 710 486 q 714 476 714 481 l 714 440 q 713 433 714 436 l 708 428 q 703 427 706 428 q 700 426 701 426 l 700 425 l 733 426 q 726 428 729 426 l 721 428 l 718 435 q 717 443 717 436 l 717 481 l 771 425 l 774 425 l 774 469 q 775 481 774 476 q 788 486 776 486 l 788 489 m 492 454 q 483 460 490 457 l 472 464 l 464 465 q 451 469 461 465 q 443 476 440 472 l 443 482 q 445 485 443 481 q 458 489 447 489 q 478 483 474 489 q 490 467 483 476 l 492 467 l 490 488 q 485 483 489 483 l 479 483 q 458 490 468 490 q 444 488 453 490 l 436 482 q 434 477 435 479 q 433 471 433 475 q 435 464 433 468 q 440 460 438 460 l 449 456 q 463 451 450 454 l 468 450 q 479 447 471 449 q 488 436 488 444 q 485 431 488 435 q 479 426 483 428 l 472 426 q 461 428 465 426 l 450 432 l 443 439 q 436 453 436 446 l 435 453 l 436 424 q 439 428 436 426 q 444 431 442 431 q 448 429 446 431 q 453 428 450 428 l 463 425 q 472 424 465 424 q 485 428 482 424 q 496 436 489 433 l 496 450 l 492 454 m 789 22 q 793 38 793 26 q 789 54 793 47 q 775 61 785 61 q 756 38 756 61 q 761 19 756 24 q 775 15 767 15 q 789 22 786 15 m 178 -78 l 197 -78 l 197 -150 l 178 -150 l 178 -78 m 938 483 q 940 485 938 483 q 944 486 942 485 l 944 489 l 913 489 l 913 486 l 917 486 q 926 481 926 486 q 922 474 926 478 l 910 456 l 893 476 q 890 482 890 482 l 890 483 q 896 486 890 486 l 901 486 l 901 489 l 860 489 l 861 486 q 869 485 865 486 q 876 478 874 485 l 896 451 l 896 438 q 885 426 896 426 l 881 425 l 926 425 l 921 426 q 910 438 910 426 l 910 453 l 929 481 q 936 483 935 483 l 938 483 m 864 453 l 863 453 q 858 446 860 450 q 856 439 856 442 l 853 435 q 846 428 849 431 q 835 426 843 426 l 818 426 l 818 476 q 831 486 818 486 l 835 486 l 835 489 l 792 489 l 792 486 l 794 486 q 806 476 806 486 l 806 438 q 794 426 806 426 l 792 425 l 864 425 l 864 453 m 1074 -99 q 1061 -92 1071 -92 q 1047 -99 1050 -92 q 1043 -114 1043 -106 q 1047 -128 1043 -122 q 1061 -135 1050 -135 q 1075 -128 1072 -135 q 1078 -114 1078 -121 q 1074 -99 1078 -106 m 401 590 q 393 589 397 589 q 385 590 386 589 l 394 606 l 411 625 l 425 638 l 433 640 q 435 641 435 640 q 439 642 436 642 q 441 641 440 642 q 443 640 442 640 l 443 633 l 439 628 q 431 615 433 622 q 417 601 428 607 l 401 590 m 518 -129 q 529 -135 522 -135 q 544 -114 544 -135 q 542 -99 544 -107 q 529 -92 539 -92 q 513 -115 513 -92 q 518 -129 513 -125 m 406 431 q 411 443 411 435 q 404 432 408 436 l 396 426 l 386 426 q 372 428 379 426 q 364 443 364 431 l 364 476 q 368 485 364 483 q 376 486 372 486 l 381 486 l 381 489 l 338 489 l 338 486 q 351 476 351 486 l 351 443 q 358 428 351 438 l 369 425 q 382 424 372 424 q 406 431 399 424 m 314 -124 q 319 -131 314 -129 q 326 -133 324 -133 q 343 -114 343 -133 q 338 -99 343 -107 q 326 -92 333 -92 q 313 -114 313 -92 q 314 -124 313 -119 m 572 626 q 573 622 572 624 q 574 619 574 621 q 572 614 572 617 l 572 606 l 569 600 l 558 589 q 551 587 556 589 q 544 585 547 585 q 538 589 539 585 l 538 594 l 544 607 q 557 619 550 614 l 572 626 m 1018 21 q 1022 14 1018 15 q 1028 13 1025 13 l 1036 14 q 1046 28 1046 18 l 1046 38 q 1038 33 1042 33 l 1028 31 q 1018 21 1018 31 m 917 -129 l 938 -129 l 938 -150 l 917 -150 l 917 -129 m 85 -118 l 78 -119 q 65 -129 65 -122 q 69 -135 65 -132 q 75 -139 72 -139 q 78 -138 76 -139 q 89 -132 81 -137 q 92 -124 92 -126 l 92 -115 q 85 -118 90 -115 m 321 46 q 315 57 318 51 q 306 63 313 63 q 290 46 290 63 l 321 46 m 728 -118 l 718 -119 q 710 -129 710 -119 q 718 -139 710 -139 q 722 -136 721 -139 l 732 -132 q 733 -124 733 -129 l 733 -115 q 728 -118 733 -115 m 886 -107 q 883 -97 886 -101 q 871 -92 879 -92 q 857 -107 860 -92 l 886 -107 m 619 -107 q 616 -97 619 -101 q 604 -92 613 -92 q 590 -107 593 -92 l 619 -107 m 178 -53 l 197 -53 l 197 -69 l 178 -69 l 178 -53 m 1068 799 q 1063 792 1065 793 l 1082 817 l 1090 832 l 1108 856 q 1110 858 1108 857 q 1114 861 1113 860 q 1113 854 1114 856 l 1107 847 l 1099 835 l 1075 807 l 1068 799 m 425 489 l 393 489 l 393 486 l 400 486 q 408 481 406 486 q 411 469 411 475 l 411 479 l 418 485 q 419 486 418 485 l 425 486 l 425 489 z "},"5":{"ha":1260,"x_min":47,"x_max":1211,"o":"m 85 718 l 267 758 l 260 783 l 288 792 l 282 818 l 310 824 l 306 856 l 333 856 l 333 883 l 358 883 l 361 908 l 388 904 l 393 932 l 422 928 l 429 954 l 456 947 l 467 972 l 493 961 l 508 988 l 532 975 l 547 999 l 572 982 l 589 1004 l 613 986 l 631 1006 l 649 989 l 667 1004 l 685 985 l 708 1000 l 724 975 l 750 989 l 763 965 l 788 976 l 799 949 l 828 957 l 836 931 l 863 938 l 868 908 l 897 911 l 899 893 l 1172 953 l 1172 617 l 1047 589 l 1050 588 l 1033 569 l 1050 550 l 1028 532 l 1043 508 l 1018 493 l 1033 468 l 1010 454 l 1019 429 l 993 418 l 1001 389 l 976 381 l 981 354 l 954 349 l 954 319 l 928 317 l 928 290 l 904 290 l 900 267 l 874 267 l 868 242 l 839 246 l 832 218 l 806 226 l 796 200 l 767 211 l 754 185 l 729 199 l 714 175 l 689 190 l 672 168 l 651 186 l 631 168 l 613 185 l 594 168 l 578 189 l 554 174 l 538 199 l 513 185 l 500 208 l 474 197 l 461 225 l 435 217 l 426 242 l 399 236 l 393 265 l 364 263 l 361 290 l 333 290 l 333 314 l 310 317 l 313 344 l 285 349 l 290 378 l 263 386 l 271 411 l 251 419 l 85 383 l 85 718 m 826 647 l 842 663 q 840 658 840 661 q 844 647 840 651 q 854 642 847 642 q 881 653 865 642 l 894 663 q 899 667 897 665 q 904 672 901 669 l 913 681 l 913 678 q 912 676 913 676 q 911 674 911 675 l 911 669 q 910 665 910 668 q 912 658 910 663 q 917 654 914 654 l 928 654 l 932 657 l 946 665 l 979 694 l 976 686 q 974 674 974 682 l 974 669 q 976 668 976 669 q 981 667 976 667 q 988 669 982 667 q 994 674 993 671 l 1010 686 q 1018 692 1013 686 q 1029 704 1024 699 l 1042 718 l 1042 721 q 1040 722 1042 722 q 1035 719 1038 722 l 1033 717 l 1018 699 q 1010 690 1011 694 l 1000 682 l 989 676 q 988 675 989 676 q 985 676 986 675 l 992 686 q 997 694 994 692 l 1001 703 q 1007 710 1004 704 l 1050 772 q 1058 783 1057 779 l 1094 824 q 1106 838 1101 831 q 1117 851 1111 844 l 1124 864 l 1124 869 q 1118 871 1122 871 q 1108 868 1115 871 q 1096 860 1101 865 l 1090 856 l 1064 831 q 1053 818 1057 824 q 1042 801 1049 813 l 1006 743 l 988 710 l 976 700 q 971 693 974 696 q 964 686 968 690 l 951 675 l 940 667 q 938 665 940 667 l 935 663 l 928 663 l 936 676 q 942 687 936 679 q 950 697 947 694 l 961 717 l 976 739 l 982 747 q 983 750 979 747 q 988 754 988 753 q 983 758 988 758 l 969 751 l 947 735 q 933 747 947 747 q 923 745 929 747 q 913 740 917 743 l 896 732 l 883 721 q 858 696 868 710 q 844 669 849 682 l 842 669 l 831 657 q 816 644 824 651 q 800 638 808 638 l 799 638 q 797 639 797 638 l 799 640 l 807 653 l 829 681 q 835 690 832 685 q 842 700 839 694 l 847 711 q 849 718 849 714 q 843 729 849 729 q 838 728 839 729 l 821 719 l 807 708 q 799 703 801 703 l 785 688 q 778 681 782 685 q 772 675 775 678 l 758 660 l 760 663 l 794 711 q 797 715 794 713 q 799 721 799 718 l 794 725 q 792 726 793 725 q 790 726 792 726 q 788 726 789 726 q 783 725 786 725 l 774 718 q 771 715 771 717 q 769 713 771 714 l 714 618 q 713 615 713 617 l 713 614 q 715 613 714 614 q 717 613 715 613 q 722 614 719 613 l 728 617 q 733 622 728 622 l 736 626 q 739 629 736 629 l 764 658 l 790 686 l 817 711 l 832 719 q 833 718 833 719 l 829 715 q 824 710 828 711 l 813 696 q 808 691 810 693 q 804 686 807 689 l 785 657 l 781 644 q 779 638 779 642 q 786 629 779 629 l 799 629 q 805 633 801 631 q 814 638 808 635 l 826 647 m 551 581 q 576 591 564 581 q 594 608 588 601 l 600 621 q 604 633 604 626 l 604 644 q 601 654 604 649 l 597 665 l 593 669 q 591 674 593 672 q 589 678 589 676 l 589 685 l 583 685 q 581 682 581 682 l 572 676 l 568 667 l 543 632 l 536 621 l 535 619 q 532 618 533 619 l 525 607 l 500 581 l 492 576 q 483 574 489 574 l 483 575 l 493 589 l 503 601 l 515 621 l 518 631 q 519 640 519 635 q 518 646 518 642 l 517 649 q 515 653 517 651 l 515 668 l 519 675 l 519 678 q 517 682 519 679 q 513 685 515 685 q 495 678 506 685 q 485 663 485 672 q 486 654 485 657 l 489 653 q 492 650 489 653 l 483 642 l 454 606 q 451 603 451 606 l 450 600 q 449 599 450 599 l 442 589 q 421 572 431 579 q 400 558 411 564 l 386 553 q 378 550 381 550 q 368 558 368 550 q 371 565 368 560 l 379 582 q 388 581 382 581 l 400 581 q 415 588 407 583 q 435 599 422 592 l 444 610 q 449 615 447 613 q 451 621 451 618 l 457 629 q 449 646 457 640 l 436 646 q 430 646 433 646 q 424 643 426 646 l 410 638 q 369 609 388 626 q 346 568 351 592 l 346 557 q 364 543 350 543 q 396 551 378 543 q 429 574 414 558 l 456 597 q 458 601 456 599 q 460 604 460 603 l 463 608 l 483 633 q 490 640 488 636 q 496 647 493 644 l 503 642 q 504 639 503 640 l 504 638 q 503 635 504 636 q 500 631 501 633 l 489 619 l 471 593 l 468 581 q 467 575 467 579 l 469 565 l 475 565 q 486 567 482 565 l 497 574 q 510 586 503 579 q 524 597 517 593 l 535 613 l 540 619 q 543 622 543 622 l 565 654 q 567 642 565 647 q 569 635 569 638 l 572 629 q 556 621 561 626 l 542 611 q 535 599 538 604 q 532 588 532 594 q 539 581 532 583 l 551 581 m 621 611 q 624 606 621 606 l 631 600 q 633 599 632 600 q 636 599 635 599 l 638 600 l 646 600 q 656 603 651 601 q 664 606 660 604 l 682 615 l 710 640 l 719 654 l 731 678 q 731 681 731 679 q 732 683 732 682 q 731 691 732 681 q 710 701 729 701 q 701 700 706 701 q 689 696 696 699 l 681 693 l 649 669 l 629 644 q 621 626 622 633 l 621 611 m 174 11 q 163 29 165 18 q 160 51 160 40 l 160 63 q 176 94 160 82 q 210 106 192 106 l 214 106 q 246 92 233 106 q 256 72 258 79 l 233 72 q 225 83 232 79 q 211 88 218 88 l 201 88 l 192 79 q 183 68 185 76 q 182 50 182 60 q 207 15 182 15 l 210 15 q 227 21 218 15 q 236 38 236 26 l 211 38 l 211 56 l 256 56 l 256 -1 l 242 -1 l 239 13 q 204 -4 228 -4 q 187 0 196 -4 q 174 11 178 4 m 296 -96 q 322 -76 304 -76 q 335 -79 329 -76 q 343 -89 340 -82 l 344 -78 l 361 -78 l 361 -146 q 354 -169 361 -160 q 325 -178 347 -178 q 304 -173 313 -178 q 296 -157 296 -168 l 314 -157 l 318 -162 q 326 -164 319 -164 q 342 -158 342 -164 q 343 -153 343 -151 l 343 -140 q 324 -150 335 -150 q 303 -143 314 -150 q 292 -112 292 -136 q 293 -104 292 -108 q 296 -96 294 -100 m 803 68 q 814 38 814 57 q 806 12 814 26 q 775 -3 799 -3 q 745 8 756 -3 q 735 38 735 19 q 735 47 735 40 q 740 61 736 54 q 752 73 744 68 q 775 78 760 78 q 791 76 782 78 q 803 68 800 74 m 496 -78 l 513 -78 l 513 -89 l 515 -89 q 518 -87 517 -89 l 529 -78 q 535 -76 531 -76 q 554 -85 543 -76 q 565 -114 565 -93 q 556 -140 565 -129 q 535 -151 546 -151 q 525 -150 528 -151 l 519 -146 q 516 -144 518 -144 q 514 -142 514 -144 l 514 -176 l 496 -176 l 496 -78 m 1110 -78 l 1128 -78 l 1128 -89 q 1149 -76 1133 -76 q 1168 -87 1161 -76 q 1186 -76 1172 -76 q 1211 -101 1211 -76 l 1211 -150 l 1193 -150 l 1193 -107 q 1182 -92 1193 -92 q 1169 -107 1169 -92 l 1169 -150 l 1151 -150 l 1151 -100 q 1147 -94 1151 -96 q 1139 -92 1143 -92 q 1128 -107 1128 -92 l 1128 -150 l 1110 -150 l 1110 -78 m 1026 -100 q 1061 -76 1035 -76 q 1084 -84 1072 -76 q 1096 -114 1096 -92 q 1088 -140 1096 -129 q 1061 -151 1081 -151 q 1025 -114 1025 -151 q 1026 -100 1025 -106 m 172 479 l 179 486 l 192 500 q 197 508 194 506 l 240 567 l 267 608 q 274 619 271 614 q 281 629 278 624 l 292 651 q 292 653 292 653 q 293 654 293 653 q 289 657 293 657 q 282 656 283 657 l 276 653 l 254 625 q 244 613 250 621 l 233 599 l 178 517 l 160 483 l 160 476 l 167 476 l 172 479 m 1033 -1 q 1027 -2 1029 -1 q 1022 -3 1025 -3 q 1008 1 1017 -3 q 999 21 999 4 q 1006 38 999 33 q 1021 44 1013 42 l 1039 47 q 1046 53 1046 47 q 1033 63 1046 63 q 1019 50 1021 63 l 1001 50 q 1007 69 1001 60 q 1025 78 1013 78 l 1033 78 q 1057 74 1049 78 q 1065 56 1065 69 l 1065 7 q 1071 3 1065 3 l 1071 -1 l 1049 -1 q 1047 0 1047 -1 l 1047 1 l 1047 3 q 1047 6 1047 6 q 1046 8 1046 7 l 1040 3 q 1038 1 1039 1 q 1036 0 1038 1 q 1033 -1 1035 -1 m 340 31 l 288 31 q 292 19 288 25 q 306 14 296 14 q 316 17 313 14 q 319 22 319 19 l 340 22 l 333 8 l 322 0 q 314 -2 317 -1 q 306 -3 311 -3 q 268 39 268 -3 q 279 69 268 61 q 306 78 290 78 q 333 65 326 78 q 340 36 340 51 l 340 31 m 686 440 q 690 457 690 446 q 681 479 690 468 q 653 490 671 490 q 624 479 633 490 q 614 457 614 468 q 628 431 614 438 q 653 424 643 424 q 673 428 667 424 q 686 440 679 433 m 188 614 q 186 607 186 611 q 194 594 186 600 l 207 590 q 218 591 210 590 q 226 596 226 592 q 225 597 226 597 l 222 597 q 217 596 219 597 q 213 594 215 594 q 192 610 192 594 q 193 618 192 614 q 227 649 201 633 q 276 675 253 665 l 296 678 q 314 681 307 681 q 326 678 317 681 q 339 674 336 676 l 346 665 l 346 654 q 344 640 346 646 l 338 628 q 323 608 331 618 q 300 588 315 597 l 285 578 l 258 567 q 255 566 257 567 q 250 565 253 565 l 247 565 q 242 564 246 565 q 239 560 239 563 q 240 558 239 558 l 243 558 q 247 560 246 558 l 268 565 l 304 581 l 338 603 l 363 629 q 372 649 369 640 q 375 663 375 657 q 374 665 375 664 q 374 668 374 665 l 369 678 l 360 685 q 331 689 344 689 q 260 673 299 689 q 193 628 222 657 l 188 614 m 697 -115 q 711 -108 704 -108 l 728 -106 q 733 -101 733 -106 q 724 -90 733 -90 q 715 -94 718 -90 q 711 -101 711 -99 l 693 -101 q 706 -80 693 -83 q 724 -76 718 -76 q 753 -97 753 -76 l 753 -135 q 753 -143 753 -142 q 757 -147 754 -144 l 757 -150 l 736 -149 q 735 -147 736 -147 q 735 -146 735 -147 l 735 -142 q 723 -149 725 -146 q 713 -151 721 -151 q 703 -150 707 -151 l 693 -143 q 690 -131 690 -137 q 697 -115 690 -119 m 53 -115 q 67 -108 60 -108 l 85 -106 q 92 -101 92 -106 q 81 -90 92 -90 q 70 -94 74 -90 q 67 -101 67 -99 l 50 -101 q 60 -81 50 -85 q 81 -76 71 -76 q 104 -83 100 -76 q 108 -97 108 -90 l 108 -135 q 109 -143 108 -142 q 113 -147 110 -144 l 113 -150 l 93 -150 l 93 -146 q 92 -142 92 -144 l 86 -147 q 77 -151 81 -150 q 71 -151 74 -151 q 55 -147 63 -151 q 47 -131 47 -143 q 53 -115 47 -119 m 575 -96 q 604 -76 583 -76 q 639 -115 639 -76 l 639 -119 l 590 -119 q 606 -136 590 -136 q 615 -133 610 -136 l 619 -128 l 638 -128 q 626 -147 635 -143 q 606 -151 618 -151 q 572 -112 572 -151 q 575 -96 572 -101 m 842 -96 q 872 -76 850 -76 q 898 -88 890 -76 q 906 -115 906 -100 l 906 -119 l 857 -119 q 872 -136 857 -136 q 882 -133 876 -136 l 886 -128 l 904 -128 q 872 -151 897 -151 q 839 -112 839 -151 q 842 -96 839 -107 m 894 67 q 897 53 897 58 l 897 -1 l 878 -1 l 878 46 q 864 61 878 61 q 849 43 849 61 l 849 -1 l 828 -1 l 828 76 l 847 76 l 847 65 q 871 78 856 78 q 885 75 881 78 l 894 67 m 540 10 q 528 0 535 3 q 517 -3 521 -3 q 490 25 490 -3 l 490 76 l 510 76 l 510 29 q 524 15 510 15 l 531 15 l 538 22 q 539 26 538 24 q 540 31 540 28 l 540 76 l 558 76 l 558 -1 l 540 -1 l 540 10 m 415 -83 l 414 -78 l 436 -78 l 450 -131 l 464 -78 l 485 -78 l 460 -149 l 450 -172 q 433 -178 444 -178 l 424 -178 l 424 -162 l 435 -162 q 439 -160 436 -162 l 439 -157 q 440 -153 440 -156 l 415 -83 m 215 -78 l 232 -78 l 232 -89 q 254 -76 240 -76 q 271 -81 263 -76 q 279 -101 279 -86 l 279 -150 l 260 -150 l 260 -107 q 258 -96 260 -100 q 247 -92 256 -92 q 236 -97 239 -92 q 233 -108 233 -103 l 233 -150 l 215 -150 l 215 -78 m 957 -87 q 983 -76 965 -76 q 1006 -83 994 -76 q 1017 -104 1017 -90 l 997 -104 l 993 -96 q 985 -92 989 -92 q 974 -97 979 -92 q 969 -112 969 -103 q 983 -135 969 -135 q 996 -124 996 -135 l 1017 -124 q 1007 -143 1014 -135 q 983 -151 1000 -151 q 960 -144 971 -151 q 950 -115 950 -136 q 957 -87 950 -104 m 772 -87 q 799 -76 781 -76 q 822 -85 811 -76 q 832 -104 832 -93 l 811 -104 q 809 -97 811 -101 q 800 -92 807 -92 q 788 -98 793 -92 q 783 -112 783 -104 q 784 -119 783 -117 q 785 -125 785 -122 l 790 -132 q 799 -135 793 -135 q 806 -133 801 -135 q 811 -124 811 -131 l 829 -124 q 820 -144 829 -136 q 799 -151 811 -151 q 775 -143 785 -151 q 765 -115 765 -135 q 772 -87 765 -104 m 468 88 q 465 85 465 88 l 465 76 l 478 76 l 478 63 l 465 63 l 465 -1 l 444 -1 l 444 63 l 435 63 l 435 76 l 444 76 l 444 82 q 468 104 444 104 l 478 104 l 478 88 l 468 88 m 715 76 l 729 76 l 729 63 l 715 63 l 715 -1 l 694 -1 l 694 63 l 685 63 l 685 76 l 694 76 l 694 82 q 718 104 694 104 l 726 104 l 726 88 l 718 88 q 715 85 717 88 l 715 76 m 1119 -1 l 1107 -1 q 1093 1 1101 -1 q 1085 15 1085 3 l 1085 63 l 1075 63 l 1075 76 l 1085 76 l 1085 96 l 1107 96 l 1107 76 l 1119 76 l 1119 63 l 1107 63 l 1107 15 q 1110 15 1108 15 q 1114 14 1111 14 l 1119 15 l 1119 -1 m 378 96 l 378 76 l 389 76 l 389 63 l 378 63 l 378 21 q 378 15 378 17 q 386 14 379 14 l 388 15 l 389 -1 l 378 -1 q 364 0 371 -1 q 357 15 357 1 l 357 63 l 346 63 l 346 76 l 357 76 l 357 96 l 378 96 m 640 606 q 638 607 638 606 l 638 615 q 644 629 640 625 l 654 644 l 678 674 q 684 680 681 676 q 690 686 688 683 l 703 694 q 710 696 706 696 q 714 689 714 696 q 711 682 714 688 l 704 669 l 686 642 l 661 615 q 656 611 658 613 q 651 608 653 608 q 646 606 649 607 l 640 606 m 865 664 l 871 671 l 881 686 l 911 725 l 926 739 q 932 741 928 740 q 938 742 936 742 l 942 739 q 942 737 942 738 q 943 735 943 736 q 939 725 943 729 l 919 694 l 908 685 l 890 667 l 875 654 q 869 651 872 654 q 863 649 865 649 l 861 650 l 860 650 q 858 653 858 651 q 860 654 860 653 q 861 657 860 656 l 865 664 m 951 -1 l 938 -1 q 919 7 921 -1 l 919 63 l 907 63 l 907 76 l 919 76 l 919 96 l 938 96 l 938 76 l 951 76 l 951 63 l 938 63 l 938 21 q 946 14 938 14 l 951 15 l 951 -1 m 669 479 q 672 472 669 475 q 675 457 675 468 q 672 437 675 447 q 653 426 668 426 q 636 435 638 426 l 632 443 q 629 457 629 451 q 630 463 629 460 q 631 468 631 465 l 639 483 q 644 487 640 485 q 654 489 649 489 q 656 488 654 488 l 658 488 l 669 479 m 654 -92 l 643 -92 l 643 -78 l 654 -78 l 654 -72 q 675 -53 654 -53 l 683 -53 l 683 -68 l 675 -68 q 674 -69 674 -69 l 672 -78 l 685 -78 l 685 -92 l 672 -92 l 672 -150 l 654 -150 l 654 -92 m 379 -92 l 369 -92 l 369 -78 l 379 -78 l 379 -60 l 399 -60 l 399 -78 l 410 -78 l 410 -92 l 399 -92 l 399 -129 q 399 -134 399 -132 q 406 -136 399 -136 l 410 -135 l 410 -150 l 399 -150 q 379 -135 379 -150 l 379 -92 m 597 -1 l 578 -1 l 578 104 l 597 104 l 597 -1 m 632 -1 l 613 -1 l 613 104 l 632 104 l 632 -1 m 572 489 l 503 489 l 503 486 l 506 486 q 517 476 517 486 l 517 438 q 506 426 517 426 l 503 425 l 572 425 l 572 451 l 561 433 q 556 429 557 429 l 549 428 q 540 426 546 426 l 531 426 l 532 454 q 544 450 538 454 l 547 446 q 548 444 547 444 q 549 442 549 443 l 549 436 l 549 476 l 546 464 q 533 457 539 457 l 531 457 l 531 486 l 542 486 q 557 485 553 486 l 563 481 l 569 464 l 572 464 l 572 489 m 126 -78 l 143 -78 l 144 -90 l 149 -83 q 152 -78 151 -81 q 164 -76 153 -76 l 168 -76 l 168 -96 l 163 -96 q 144 -112 144 -96 l 144 -150 l 126 -150 l 126 -78 m 788 489 l 756 489 l 756 486 l 761 486 l 765 482 q 771 469 771 476 l 771 443 l 726 489 l 701 489 l 701 486 q 712 483 710 486 q 714 476 714 481 l 714 440 q 713 433 714 436 l 708 428 q 703 427 706 428 q 700 426 701 426 l 700 425 l 733 426 q 726 428 729 426 l 721 428 l 718 435 q 717 443 717 436 l 717 481 l 771 425 l 774 425 l 774 469 q 775 481 774 476 q 788 486 776 486 l 788 489 m 492 454 q 483 460 490 457 l 472 464 l 464 465 q 451 469 461 465 q 443 476 440 472 l 443 482 q 445 485 443 481 q 458 489 447 489 q 478 483 474 489 q 490 467 483 476 l 492 467 l 490 488 q 485 483 489 483 l 479 483 q 458 490 468 490 q 444 488 453 490 l 436 482 q 434 477 435 479 q 433 471 433 475 q 435 464 433 468 q 440 460 438 460 l 449 456 q 463 451 450 454 l 468 450 q 479 447 471 449 q 488 436 488 444 q 485 431 488 435 q 479 426 483 428 l 472 426 q 461 428 465 426 l 450 432 l 443 439 q 436 453 436 446 l 435 453 l 436 424 q 439 428 436 426 q 444 431 442 431 q 448 429 446 431 q 453 428 450 428 l 463 425 q 472 424 465 424 q 485 428 482 424 q 496 436 489 433 l 496 450 l 492 454 m 789 22 q 793 38 793 26 q 789 54 793 47 q 775 61 785 61 q 756 38 756 61 q 761 19 756 24 q 775 15 767 15 q 789 22 786 15 m 178 -78 l 197 -78 l 197 -150 l 178 -150 l 178 -78 m 938 483 q 940 485 938 483 q 944 486 942 485 l 944 489 l 913 489 l 913 486 l 917 486 q 926 481 926 486 q 922 474 926 478 l 910 456 l 893 476 q 890 482 890 482 l 890 483 q 896 486 890 486 l 901 486 l 901 489 l 860 489 l 861 486 q 869 485 865 486 q 876 478 874 485 l 896 451 l 896 438 q 885 426 896 426 l 881 425 l 926 425 l 921 426 q 910 438 910 426 l 910 453 l 929 481 q 936 483 935 483 l 938 483 m 864 453 l 863 453 q 858 446 860 450 q 856 439 856 442 l 853 435 q 846 428 849 431 q 835 426 843 426 l 818 426 l 818 476 q 831 486 818 486 l 835 486 l 835 489 l 792 489 l 792 486 l 794 486 q 806 476 806 486 l 806 438 q 794 426 806 426 l 792 425 l 864 425 l 864 453 m 1074 -99 q 1061 -92 1071 -92 q 1047 -99 1050 -92 q 1043 -114 1043 -106 q 1047 -128 1043 -122 q 1061 -135 1050 -135 q 1075 -128 1072 -135 q 1078 -114 1078 -121 q 1074 -99 1078 -106 m 401 590 q 393 589 397 589 q 385 590 386 589 l 394 606 l 411 625 l 425 638 l 433 640 q 435 641 435 640 q 439 642 436 642 q 441 641 440 642 q 443 640 442 640 l 443 633 l 439 628 q 431 615 433 622 q 417 601 428 607 l 401 590 m 518 -129 q 529 -135 522 -135 q 544 -114 544 -135 q 542 -99 544 -107 q 529 -92 539 -92 q 513 -115 513 -92 q 518 -129 513 -125 m 406 431 q 411 443 411 435 q 404 432 408 436 l 396 426 l 386 426 q 372 428 379 426 q 364 443 364 431 l 364 476 q 368 485 364 483 q 376 486 372 486 l 381 486 l 381 489 l 338 489 l 338 486 q 351 476 351 486 l 351 443 q 358 428 351 438 l 369 425 q 382 424 372 424 q 406 431 399 424 m 314 -124 q 319 -131 314 -129 q 326 -133 324 -133 q 343 -114 343 -133 q 338 -99 343 -107 q 326 -92 333 -92 q 313 -114 313 -92 q 314 -124 313 -119 m 572 626 q 573 622 572 624 q 574 619 574 621 q 572 614 572 617 l 572 606 l 569 600 l 558 589 q 551 587 556 589 q 544 585 547 585 q 538 589 539 585 l 538 594 l 544 607 q 557 619 550 614 l 572 626 m 1018 21 q 1022 14 1018 15 q 1028 13 1025 13 l 1036 14 q 1046 28 1046 18 l 1046 38 q 1038 33 1042 33 l 1028 31 q 1018 21 1018 31 m 917 -129 l 938 -129 l 938 -150 l 917 -150 l 917 -129 m 85 -118 l 78 -119 q 65 -129 65 -122 q 69 -135 65 -132 q 75 -139 72 -139 q 78 -138 76 -139 q 89 -132 81 -137 q 92 -124 92 -126 l 92 -115 q 85 -118 90 -115 m 321 46 q 315 57 318 51 q 306 63 313 63 q 290 46 290 63 l 321 46 m 728 -118 l 718 -119 q 710 -129 710 -119 q 718 -139 710 -139 q 722 -136 721 -139 l 732 -132 q 733 -124 733 -129 l 733 -115 q 728 -118 733 -115 m 886 -107 q 883 -97 886 -101 q 871 -92 879 -92 q 857 -107 860 -92 l 886 -107 m 619 -107 q 616 -97 619 -101 q 604 -92 613 -92 q 590 -107 593 -92 l 619 -107 m 178 -53 l 197 -53 l 197 -69 l 178 -69 l 178 -53 m 1068 799 q 1063 792 1065 793 l 1082 817 l 1090 832 l 1108 856 q 1110 858 1108 857 q 1114 861 1113 860 q 1113 854 1114 856 l 1107 847 l 1099 835 l 1075 807 l 1068 799 m 425 489 l 393 489 l 393 486 l 400 486 q 408 481 406 486 q 411 469 411 475 l 411 479 l 418 485 q 419 486 418 485 l 425 486 l 425 489 z "},"6":{"ha":1260,"x_min":47,"x_max":1211,"o":"m 85 718 l 267 758 l 260 783 l 288 792 l 282 818 l 310 824 l 306 856 l 333 856 l 333 883 l 358 883 l 361 908 l 388 904 l 393 932 l 422 928 l 429 954 l 456 947 l 467 972 l 493 961 l 508 988 l 532 975 l 547 999 l 572 982 l 589 1004 l 613 986 l 631 1006 l 649 989 l 667 1004 l 685 985 l 708 1000 l 724 975 l 750 989 l 763 965 l 788 976 l 799 949 l 828 957 l 836 931 l 863 938 l 868 908 l 897 911 l 899 893 l 1172 953 l 1172 617 l 1047 589 l 1050 588 l 1033 569 l 1050 550 l 1028 532 l 1043 508 l 1018 493 l 1033 468 l 1010 454 l 1019 429 l 993 418 l 1001 389 l 976 381 l 981 354 l 954 349 l 954 319 l 928 317 l 928 290 l 904 290 l 900 267 l 874 267 l 868 242 l 839 246 l 832 218 l 806 226 l 796 200 l 767 211 l 754 185 l 729 199 l 714 175 l 689 190 l 672 168 l 651 186 l 631 168 l 613 185 l 594 168 l 578 189 l 554 174 l 538 199 l 513 185 l 500 208 l 474 197 l 461 225 l 435 217 l 426 242 l 399 236 l 393 265 l 364 263 l 361 290 l 333 290 l 333 314 l 310 317 l 313 344 l 285 349 l 290 378 l 263 386 l 271 411 l 251 419 l 85 383 l 85 718 m 826 647 l 842 663 q 840 658 840 661 q 844 647 840 651 q 854 642 847 642 q 881 653 865 642 l 894 663 q 899 667 897 665 q 904 672 901 669 l 913 681 l 913 678 q 912 676 913 676 q 911 674 911 675 l 911 669 q 910 665 910 668 q 912 658 910 663 q 917 654 914 654 l 928 654 l 932 657 l 946 665 l 979 694 l 976 686 q 974 674 974 682 l 974 669 q 976 668 976 669 q 981 667 976 667 q 988 669 982 667 q 994 674 993 671 l 1010 686 q 1018 692 1013 686 q 1029 704 1024 699 l 1042 718 l 1042 721 q 1040 722 1042 722 q 1035 719 1038 722 l 1033 717 l 1018 699 q 1010 690 1011 694 l 1000 682 l 989 676 q 988 675 989 676 q 985 676 986 675 l 992 686 q 997 694 994 692 l 1001 703 q 1007 710 1004 704 l 1050 772 q 1058 783 1057 779 l 1094 824 q 1106 838 1101 831 q 1117 851 1111 844 l 1124 864 l 1124 869 q 1118 871 1122 871 q 1108 868 1115 871 q 1096 860 1101 865 l 1090 856 l 1064 831 q 1053 818 1057 824 q 1042 801 1049 813 l 1006 743 l 988 710 l 976 700 q 971 693 974 696 q 964 686 968 690 l 951 675 l 940 667 q 938 665 940 667 l 935 663 l 928 663 l 936 676 q 942 687 936 679 q 950 697 947 694 l 961 717 l 976 739 l 982 747 q 983 750 979 747 q 988 754 988 753 q 983 758 988 758 l 969 751 l 947 735 q 933 747 947 747 q 923 745 929 747 q 913 740 917 743 l 896 732 l 883 721 q 858 696 868 710 q 844 669 849 682 l 842 669 l 831 657 q 816 644 824 651 q 800 638 808 638 l 799 638 q 797 639 797 638 l 799 640 l 807 653 l 829 681 q 835 690 832 685 q 842 700 839 694 l 847 711 q 849 718 849 714 q 843 729 849 729 q 838 728 839 729 l 821 719 l 807 708 q 799 703 801 703 l 785 688 q 778 681 782 685 q 772 675 775 678 l 758 660 l 760 663 l 794 711 q 797 715 794 713 q 799 721 799 718 l 794 725 q 792 726 793 725 q 790 726 792 726 q 788 726 789 726 q 783 725 786 725 l 774 718 q 771 715 771 717 q 769 713 771 714 l 714 618 q 713 615 713 617 l 713 614 q 715 613 714 614 q 717 613 715 613 q 722 614 719 613 l 728 617 q 733 622 728 622 l 736 626 q 739 629 736 629 l 764 658 l 790 686 l 817 711 l 832 719 q 833 718 833 719 l 829 715 q 824 710 828 711 l 813 696 q 808 691 810 693 q 804 686 807 689 l 785 657 l 781 644 q 779 638 779 642 q 786 629 779 629 l 799 629 q 805 633 801 631 q 814 638 808 635 l 826 647 m 551 581 q 576 591 564 581 q 594 608 588 601 l 600 621 q 604 633 604 626 l 604 644 q 601 654 604 649 l 597 665 l 593 669 q 591 674 593 672 q 589 678 589 676 l 589 685 l 583 685 q 581 682 581 682 l 572 676 l 568 667 l 543 632 l 536 621 l 535 619 q 532 618 533 619 l 525 607 l 500 581 l 492 576 q 483 574 489 574 l 483 575 l 493 589 l 503 601 l 515 621 l 518 631 q 519 640 519 635 q 518 646 518 642 l 517 649 q 515 653 517 651 l 515 668 l 519 675 l 519 678 q 517 682 519 679 q 513 685 515 685 q 495 678 506 685 q 485 663 485 672 q 486 654 485 657 l 489 653 q 492 650 489 653 l 483 642 l 454 606 q 451 603 451 606 l 450 600 q 449 599 450 599 l 442 589 q 421 572 431 579 q 400 558 411 564 l 386 553 q 378 550 381 550 q 368 558 368 550 q 371 565 368 560 l 379 582 q 388 581 382 581 l 400 581 q 415 588 407 583 q 435 599 422 592 l 444 610 q 449 615 447 613 q 451 621 451 618 l 457 629 q 449 646 457 640 l 436 646 q 430 646 433 646 q 424 643 426 646 l 410 638 q 369 609 388 626 q 346 568 351 592 l 346 557 q 364 543 350 543 q 396 551 378 543 q 429 574 414 558 l 456 597 q 458 601 456 599 q 460 604 460 603 l 463 608 l 483 633 q 490 640 488 636 q 496 647 493 644 l 503 642 q 504 639 503 640 l 504 638 q 503 635 504 636 q 500 631 501 633 l 489 619 l 471 593 l 468 581 q 467 575 467 579 l 469 565 l 475 565 q 486 567 482 565 l 497 574 q 510 586 503 579 q 524 597 517 593 l 535 613 l 540 619 q 543 622 543 622 l 565 654 q 567 642 565 647 q 569 635 569 638 l 572 629 q 556 621 561 626 l 542 611 q 535 599 538 604 q 532 588 532 594 q 539 581 532 583 l 551 581 m 621 611 q 624 606 621 606 l 631 600 q 633 599 632 600 q 636 599 635 599 l 638 600 l 646 600 q 656 603 651 601 q 664 606 660 604 l 682 615 l 710 640 l 719 654 l 731 678 q 731 681 731 679 q 732 683 732 682 q 731 691 732 681 q 710 701 729 701 q 701 700 706 701 q 689 696 696 699 l 681 693 l 649 669 l 629 644 q 621 626 622 633 l 621 611 m 174 11 q 163 29 165 18 q 160 51 160 40 l 160 63 q 176 94 160 82 q 210 106 192 106 l 214 106 q 246 92 233 106 q 256 72 258 79 l 233 72 q 225 83 232 79 q 211 88 218 88 l 201 88 l 192 79 q 183 68 185 76 q 182 50 182 60 q 207 15 182 15 l 210 15 q 227 21 218 15 q 236 38 236 26 l 211 38 l 211 56 l 256 56 l 256 -1 l 242 -1 l 239 13 q 204 -4 228 -4 q 187 0 196 -4 q 174 11 178 4 m 296 -96 q 322 -76 304 -76 q 335 -79 329 -76 q 343 -89 340 -82 l 344 -78 l 361 -78 l 361 -146 q 354 -169 361 -160 q 325 -178 347 -178 q 304 -173 313 -178 q 296 -157 296 -168 l 314 -157 l 318 -162 q 326 -164 319 -164 q 342 -158 342 -164 q 343 -153 343 -151 l 343 -140 q 324 -150 335 -150 q 303 -143 314 -150 q 292 -112 292 -136 q 293 -104 292 -108 q 296 -96 294 -100 m 803 68 q 814 38 814 57 q 806 12 814 26 q 775 -3 799 -3 q 745 8 756 -3 q 735 38 735 19 q 735 47 735 40 q 740 61 736 54 q 752 73 744 68 q 775 78 760 78 q 791 76 782 78 q 803 68 800 74 m 496 -78 l 513 -78 l 513 -89 l 515 -89 q 518 -87 517 -89 l 529 -78 q 535 -76 531 -76 q 554 -85 543 -76 q 565 -114 565 -93 q 556 -140 565 -129 q 535 -151 546 -151 q 525 -150 528 -151 l 519 -146 q 516 -144 518 -144 q 514 -142 514 -144 l 514 -176 l 496 -176 l 496 -78 m 1110 -78 l 1128 -78 l 1128 -89 q 1149 -76 1133 -76 q 1168 -87 1161 -76 q 1186 -76 1172 -76 q 1211 -101 1211 -76 l 1211 -150 l 1193 -150 l 1193 -107 q 1182 -92 1193 -92 q 1169 -107 1169 -92 l 1169 -150 l 1151 -150 l 1151 -100 q 1147 -94 1151 -96 q 1139 -92 1143 -92 q 1128 -107 1128 -92 l 1128 -150 l 1110 -150 l 1110 -78 m 1026 -100 q 1061 -76 1035 -76 q 1084 -84 1072 -76 q 1096 -114 1096 -92 q 1088 -140 1096 -129 q 1061 -151 1081 -151 q 1025 -114 1025 -151 q 1026 -100 1025 -106 m 172 479 l 179 486 l 192 500 q 197 508 194 506 l 240 567 l 267 608 q 274 619 271 614 q 281 629 278 624 l 292 651 q 292 653 292 653 q 293 654 293 653 q 289 657 293 657 q 282 656 283 657 l 276 653 l 254 625 q 244 613 250 621 l 233 599 l 178 517 l 160 483 l 160 476 l 167 476 l 172 479 m 1033 -1 q 1027 -2 1029 -1 q 1022 -3 1025 -3 q 1008 1 1017 -3 q 999 21 999 4 q 1006 38 999 33 q 1021 44 1013 42 l 1039 47 q 1046 53 1046 47 q 1033 63 1046 63 q 1019 50 1021 63 l 1001 50 q 1007 69 1001 60 q 1025 78 1013 78 l 1033 78 q 1057 74 1049 78 q 1065 56 1065 69 l 1065 7 q 1071 3 1065 3 l 1071 -1 l 1049 -1 q 1047 0 1047 -1 l 1047 1 l 1047 3 q 1047 6 1047 6 q 1046 8 1046 7 l 1040 3 q 1038 1 1039 1 q 1036 0 1038 1 q 1033 -1 1035 -1 m 340 31 l 288 31 q 292 19 288 25 q 306 14 296 14 q 316 17 313 14 q 319 22 319 19 l 340 22 l 333 8 l 322 0 q 314 -2 317 -1 q 306 -3 311 -3 q 268 39 268 -3 q 279 69 268 61 q 306 78 290 78 q 333 65 326 78 q 340 36 340 51 l 340 31 m 686 440 q 690 457 690 446 q 681 479 690 468 q 653 490 671 490 q 624 479 633 490 q 614 457 614 468 q 628 431 614 438 q 653 424 643 424 q 673 428 667 424 q 686 440 679 433 m 188 614 q 186 607 186 611 q 194 594 186 600 l 207 590 q 218 591 210 590 q 226 596 226 592 q 225 597 226 597 l 222 597 q 217 596 219 597 q 213 594 215 594 q 192 610 192 594 q 193 618 192 614 q 227 649 201 633 q 276 675 253 665 l 296 678 q 314 681 307 681 q 326 678 317 681 q 339 674 336 676 l 346 665 l 346 654 q 344 640 346 646 l 338 628 q 323 608 331 618 q 300 588 315 597 l 285 578 l 258 567 q 255 566 257 567 q 250 565 253 565 l 247 565 q 242 564 246 565 q 239 560 239 563 q 240 558 239 558 l 243 558 q 247 560 246 558 l 268 565 l 304 581 l 338 603 l 363 629 q 372 649 369 640 q 375 663 375 657 q 374 665 375 664 q 374 668 374 665 l 369 678 l 360 685 q 331 689 344 689 q 260 673 299 689 q 193 628 222 657 l 188 614 m 697 -115 q 711 -108 704 -108 l 728 -106 q 733 -101 733 -106 q 724 -90 733 -90 q 715 -94 718 -90 q 711 -101 711 -99 l 693 -101 q 706 -80 693 -83 q 724 -76 718 -76 q 753 -97 753 -76 l 753 -135 q 753 -143 753 -142 q 757 -147 754 -144 l 757 -150 l 736 -149 q 735 -147 736 -147 q 735 -146 735 -147 l 735 -142 q 723 -149 725 -146 q 713 -151 721 -151 q 703 -150 707 -151 l 693 -143 q 690 -131 690 -137 q 697 -115 690 -119 m 53 -115 q 67 -108 60 -108 l 85 -106 q 92 -101 92 -106 q 81 -90 92 -90 q 70 -94 74 -90 q 67 -101 67 -99 l 50 -101 q 60 -81 50 -85 q 81 -76 71 -76 q 104 -83 100 -76 q 108 -97 108 -90 l 108 -135 q 109 -143 108 -142 q 113 -147 110 -144 l 113 -150 l 93 -150 l 93 -146 q 92 -142 92 -144 l 86 -147 q 77 -151 81 -150 q 71 -151 74 -151 q 55 -147 63 -151 q 47 -131 47 -143 q 53 -115 47 -119 m 575 -96 q 604 -76 583 -76 q 639 -115 639 -76 l 639 -119 l 590 -119 q 606 -136 590 -136 q 615 -133 610 -136 l 619 -128 l 638 -128 q 626 -147 635 -143 q 606 -151 618 -151 q 572 -112 572 -151 q 575 -96 572 -101 m 842 -96 q 872 -76 850 -76 q 898 -88 890 -76 q 906 -115 906 -100 l 906 -119 l 857 -119 q 872 -136 857 -136 q 882 -133 876 -136 l 886 -128 l 904 -128 q 872 -151 897 -151 q 839 -112 839 -151 q 842 -96 839 -107 m 894 67 q 897 53 897 58 l 897 -1 l 878 -1 l 878 46 q 864 61 878 61 q 849 43 849 61 l 849 -1 l 828 -1 l 828 76 l 847 76 l 847 65 q 871 78 856 78 q 885 75 881 78 l 894 67 m 540 10 q 528 0 535 3 q 517 -3 521 -3 q 490 25 490 -3 l 490 76 l 510 76 l 510 29 q 524 15 510 15 l 531 15 l 538 22 q 539 26 538 24 q 540 31 540 28 l 540 76 l 558 76 l 558 -1 l 540 -1 l 540 10 m 415 -83 l 414 -78 l 436 -78 l 450 -131 l 464 -78 l 485 -78 l 460 -149 l 450 -172 q 433 -178 444 -178 l 424 -178 l 424 -162 l 435 -162 q 439 -160 436 -162 l 439 -157 q 440 -153 440 -156 l 415 -83 m 215 -78 l 232 -78 l 232 -89 q 254 -76 240 -76 q 271 -81 263 -76 q 279 -101 279 -86 l 279 -150 l 260 -150 l 260 -107 q 258 -96 260 -100 q 247 -92 256 -92 q 236 -97 239 -92 q 233 -108 233 -103 l 233 -150 l 215 -150 l 215 -78 m 957 -87 q 983 -76 965 -76 q 1006 -83 994 -76 q 1017 -104 1017 -90 l 997 -104 l 993 -96 q 985 -92 989 -92 q 974 -97 979 -92 q 969 -112 969 -103 q 983 -135 969 -135 q 996 -124 996 -135 l 1017 -124 q 1007 -143 1014 -135 q 983 -151 1000 -151 q 960 -144 971 -151 q 950 -115 950 -136 q 957 -87 950 -104 m 772 -87 q 799 -76 781 -76 q 822 -85 811 -76 q 832 -104 832 -93 l 811 -104 q 809 -97 811 -101 q 800 -92 807 -92 q 788 -98 793 -92 q 783 -112 783 -104 q 784 -119 783 -117 q 785 -125 785 -122 l 790 -132 q 799 -135 793 -135 q 806 -133 801 -135 q 811 -124 811 -131 l 829 -124 q 820 -144 829 -136 q 799 -151 811 -151 q 775 -143 785 -151 q 765 -115 765 -135 q 772 -87 765 -104 m 468 88 q 465 85 465 88 l 465 76 l 478 76 l 478 63 l 465 63 l 465 -1 l 444 -1 l 444 63 l 435 63 l 435 76 l 444 76 l 444 82 q 468 104 444 104 l 478 104 l 478 88 l 468 88 m 715 76 l 729 76 l 729 63 l 715 63 l 715 -1 l 694 -1 l 694 63 l 685 63 l 685 76 l 694 76 l 694 82 q 718 104 694 104 l 726 104 l 726 88 l 718 88 q 715 85 717 88 l 715 76 m 1119 -1 l 1107 -1 q 1093 1 1101 -1 q 1085 15 1085 3 l 1085 63 l 1075 63 l 1075 76 l 1085 76 l 1085 96 l 1107 96 l 1107 76 l 1119 76 l 1119 63 l 1107 63 l 1107 15 q 1110 15 1108 15 q 1114 14 1111 14 l 1119 15 l 1119 -1 m 378 96 l 378 76 l 389 76 l 389 63 l 378 63 l 378 21 q 378 15 378 17 q 386 14 379 14 l 388 15 l 389 -1 l 378 -1 q 364 0 371 -1 q 357 15 357 1 l 357 63 l 346 63 l 346 76 l 357 76 l 357 96 l 378 96 m 640 606 q 638 607 638 606 l 638 615 q 644 629 640 625 l 654 644 l 678 674 q 684 680 681 676 q 690 686 688 683 l 703 694 q 710 696 706 696 q 714 689 714 696 q 711 682 714 688 l 704 669 l 686 642 l 661 615 q 656 611 658 613 q 651 608 653 608 q 646 606 649 607 l 640 606 m 865 664 l 871 671 l 881 686 l 911 725 l 926 739 q 932 741 928 740 q 938 742 936 742 l 942 739 q 942 737 942 738 q 943 735 943 736 q 939 725 943 729 l 919 694 l 908 685 l 890 667 l 875 654 q 869 651 872 654 q 863 649 865 649 l 861 650 l 860 650 q 858 653 858 651 q 860 654 860 653 q 861 657 860 656 l 865 664 m 951 -1 l 938 -1 q 919 7 921 -1 l 919 63 l 907 63 l 907 76 l 919 76 l 919 96 l 938 96 l 938 76 l 951 76 l 951 63 l 938 63 l 938 21 q 946 14 938 14 l 951 15 l 951 -1 m 669 479 q 672 472 669 475 q 675 457 675 468 q 672 437 675 447 q 653 426 668 426 q 636 435 638 426 l 632 443 q 629 457 629 451 q 630 463 629 460 q 631 468 631 465 l 639 483 q 644 487 640 485 q 654 489 649 489 q 656 488 654 488 l 658 488 l 669 479 m 654 -92 l 643 -92 l 643 -78 l 654 -78 l 654 -72 q 675 -53 654 -53 l 683 -53 l 683 -68 l 675 -68 q 674 -69 674 -69 l 672 -78 l 685 -78 l 685 -92 l 672 -92 l 672 -150 l 654 -150 l 654 -92 m 379 -92 l 369 -92 l 369 -78 l 379 -78 l 379 -60 l 399 -60 l 399 -78 l 410 -78 l 410 -92 l 399 -92 l 399 -129 q 399 -134 399 -132 q 406 -136 399 -136 l 410 -135 l 410 -150 l 399 -150 q 379 -135 379 -150 l 379 -92 m 597 -1 l 578 -1 l 578 104 l 597 104 l 597 -1 m 632 -1 l 613 -1 l 613 104 l 632 104 l 632 -1 m 572 489 l 503 489 l 503 486 l 506 486 q 517 476 517 486 l 517 438 q 506 426 517 426 l 503 425 l 572 425 l 572 451 l 561 433 q 556 429 557 429 l 549 428 q 540 426 546 426 l 531 426 l 532 454 q 544 450 538 454 l 547 446 q 548 444 547 444 q 549 442 549 443 l 549 436 l 549 476 l 546 464 q 533 457 539 457 l 531 457 l 531 486 l 542 486 q 557 485 553 486 l 563 481 l 569 464 l 572 464 l 572 489 m 126 -78 l 143 -78 l 144 -90 l 149 -83 q 152 -78 151 -81 q 164 -76 153 -76 l 168 -76 l 168 -96 l 163 -96 q 144 -112 144 -96 l 144 -150 l 126 -150 l 126 -78 m 788 489 l 756 489 l 756 486 l 761 486 l 765 482 q 771 469 771 476 l 771 443 l 726 489 l 701 489 l 701 486 q 712 483 710 486 q 714 476 714 481 l 714 440 q 713 433 714 436 l 708 428 q 703 427 706 428 q 700 426 701 426 l 700 425 l 733 426 q 726 428 729 426 l 721 428 l 718 435 q 717 443 717 436 l 717 481 l 771 425 l 774 425 l 774 469 q 775 481 774 476 q 788 486 776 486 l 788 489 m 492 454 q 483 460 490 457 l 472 464 l 464 465 q 451 469 461 465 q 443 476 440 472 l 443 482 q 445 485 443 481 q 458 489 447 489 q 478 483 474 489 q 490 467 483 476 l 492 467 l 490 488 q 485 483 489 483 l 479 483 q 458 490 468 490 q 444 488 453 490 l 436 482 q 434 477 435 479 q 433 471 433 475 q 435 464 433 468 q 440 460 438 460 l 449 456 q 463 451 450 454 l 468 450 q 479 447 471 449 q 488 436 488 444 q 485 431 488 435 q 479 426 483 428 l 472 426 q 461 428 465 426 l 450 432 l 443 439 q 436 453 436 446 l 435 453 l 436 424 q 439 428 436 426 q 444 431 442 431 q 448 429 446 431 q 453 428 450 428 l 463 425 q 472 424 465 424 q 485 428 482 424 q 496 436 489 433 l 496 450 l 492 454 m 789 22 q 793 38 793 26 q 789 54 793 47 q 775 61 785 61 q 756 38 756 61 q 761 19 756 24 q 775 15 767 15 q 789 22 786 15 m 178 -78 l 197 -78 l 197 -150 l 178 -150 l 178 -78 m 938 483 q 940 485 938 483 q 944 486 942 485 l 944 489 l 913 489 l 913 486 l 917 486 q 926 481 926 486 q 922 474 926 478 l 910 456 l 893 476 q 890 482 890 482 l 890 483 q 896 486 890 486 l 901 486 l 901 489 l 860 489 l 861 486 q 869 485 865 486 q 876 478 874 485 l 896 451 l 896 438 q 885 426 896 426 l 881 425 l 926 425 l 921 426 q 910 438 910 426 l 910 453 l 929 481 q 936 483 935 483 l 938 483 m 864 453 l 863 453 q 858 446 860 450 q 856 439 856 442 l 853 435 q 846 428 849 431 q 835 426 843 426 l 818 426 l 818 476 q 831 486 818 486 l 835 486 l 835 489 l 792 489 l 792 486 l 794 486 q 806 476 806 486 l 806 438 q 794 426 806 426 l 792 425 l 864 425 l 864 453 m 1074 -99 q 1061 -92 1071 -92 q 1047 -99 1050 -92 q 1043 -114 1043 -106 q 1047 -128 1043 -122 q 1061 -135 1050 -135 q 1075 -128 1072 -135 q 1078 -114 1078 -121 q 1074 -99 1078 -106 m 401 590 q 393 589 397 589 q 385 590 386 589 l 394 606 l 411 625 l 425 638 l 433 640 q 435 641 435 640 q 439 642 436 642 q 441 641 440 642 q 443 640 442 640 l 443 633 l 439 628 q 431 615 433 622 q 417 601 428 607 l 401 590 m 518 -129 q 529 -135 522 -135 q 544 -114 544 -135 q 542 -99 544 -107 q 529 -92 539 -92 q 513 -115 513 -92 q 518 -129 513 -125 m 406 431 q 411 443 411 435 q 404 432 408 436 l 396 426 l 386 426 q 372 428 379 426 q 364 443 364 431 l 364 476 q 368 485 364 483 q 376 486 372 486 l 381 486 l 381 489 l 338 489 l 338 486 q 351 476 351 486 l 351 443 q 358 428 351 438 l 369 425 q 382 424 372 424 q 406 431 399 424 m 314 -124 q 319 -131 314 -129 q 326 -133 324 -133 q 343 -114 343 -133 q 338 -99 343 -107 q 326 -92 333 -92 q 313 -114 313 -92 q 314 -124 313 -119 m 572 626 q 573 622 572 624 q 574 619 574 621 q 572 614 572 617 l 572 606 l 569 600 l 558 589 q 551 587 556 589 q 544 585 547 585 q 538 589 539 585 l 538 594 l 544 607 q 557 619 550 614 l 572 626 m 1018 21 q 1022 14 1018 15 q 1028 13 1025 13 l 1036 14 q 1046 28 1046 18 l 1046 38 q 1038 33 1042 33 l 1028 31 q 1018 21 1018 31 m 917 -129 l 938 -129 l 938 -150 l 917 -150 l 917 -129 m 85 -118 l 78 -119 q 65 -129 65 -122 q 69 -135 65 -132 q 75 -139 72 -139 q 78 -138 76 -139 q 89 -132 81 -137 q 92 -124 92 -126 l 92 -115 q 85 -118 90 -115 m 321 46 q 315 57 318 51 q 306 63 313 63 q 290 46 290 63 l 321 46 m 728 -118 l 718 -119 q 710 -129 710 -119 q 718 -139 710 -139 q 722 -136 721 -139 l 732 -132 q 733 -124 733 -129 l 733 -115 q 728 -118 733 -115 m 886 -107 q 883 -97 886 -101 q 871 -92 879 -92 q 857 -107 860 -92 l 886 -107 m 619 -107 q 616 -97 619 -101 q 604 -92 613 -92 q 590 -107 593 -92 l 619 -107 m 178 -53 l 197 -53 l 197 -69 l 178 -69 l 178 -53 m 1068 799 q 1063 792 1065 793 l 1082 817 l 1090 832 l 1108 856 q 1110 858 1108 857 q 1114 861 1113 860 q 1113 854 1114 856 l 1107 847 l 1099 835 l 1075 807 l 1068 799 m 425 489 l 393 489 l 393 486 l 400 486 q 408 481 406 486 q 411 469 411 475 l 411 479 l 418 485 q 419 486 418 485 l 425 486 l 425 489 z "},"7":{"ha":1260,"x_min":47,"x_max":1211,"o":"m 85 718 l 267 758 l 260 783 l 288 792 l 282 818 l 310 824 l 306 856 l 333 856 l 333 883 l 358 883 l 361 908 l 388 904 l 393 932 l 422 928 l 429 954 l 456 947 l 467 972 l 493 961 l 508 988 l 532 975 l 547 999 l 572 982 l 589 1004 l 613 986 l 631 1006 l 649 989 l 667 1004 l 685 985 l 708 1000 l 724 975 l 750 989 l 763 965 l 788 976 l 799 949 l 828 957 l 836 931 l 863 938 l 868 908 l 897 911 l 899 893 l 1172 953 l 1172 617 l 1047 589 l 1050 588 l 1033 569 l 1050 550 l 1028 532 l 1043 508 l 1018 493 l 1033 468 l 1010 454 l 1019 429 l 993 418 l 1001 389 l 976 381 l 981 354 l 954 349 l 954 319 l 928 317 l 928 290 l 904 290 l 900 267 l 874 267 l 868 242 l 839 246 l 832 218 l 806 226 l 796 200 l 767 211 l 754 185 l 729 199 l 714 175 l 689 190 l 672 168 l 651 186 l 631 168 l 613 185 l 594 168 l 578 189 l 554 174 l 538 199 l 513 185 l 500 208 l 474 197 l 461 225 l 435 217 l 426 242 l 399 236 l 393 265 l 364 263 l 361 290 l 333 290 l 333 314 l 310 317 l 313 344 l 285 349 l 290 378 l 263 386 l 271 411 l 251 419 l 85 383 l 85 718 m 826 647 l 842 663 q 840 658 840 661 q 844 647 840 651 q 854 642 847 642 q 881 653 865 642 l 894 663 q 899 667 897 665 q 904 672 901 669 l 913 681 l 913 678 q 912 676 913 676 q 911 674 911 675 l 911 669 q 910 665 910 668 q 912 658 910 663 q 917 654 914 654 l 928 654 l 932 657 l 946 665 l 979 694 l 976 686 q 974 674 974 682 l 974 669 q 976 668 976 669 q 981 667 976 667 q 988 669 982 667 q 994 674 993 671 l 1010 686 q 1018 692 1013 686 q 1029 704 1024 699 l 1042 718 l 1042 721 q 1040 722 1042 722 q 1035 719 1038 722 l 1033 717 l 1018 699 q 1010 690 1011 694 l 1000 682 l 989 676 q 988 675 989 676 q 985 676 986 675 l 992 686 q 997 694 994 692 l 1001 703 q 1007 710 1004 704 l 1050 772 q 1058 783 1057 779 l 1094 824 q 1106 838 1101 831 q 1117 851 1111 844 l 1124 864 l 1124 869 q 1118 871 1122 871 q 1108 868 1115 871 q 1096 860 1101 865 l 1090 856 l 1064 831 q 1053 818 1057 824 q 1042 801 1049 813 l 1006 743 l 988 710 l 976 700 q 971 693 974 696 q 964 686 968 690 l 951 675 l 940 667 q 938 665 940 667 l 935 663 l 928 663 l 936 676 q 942 687 936 679 q 950 697 947 694 l 961 717 l 976 739 l 982 747 q 983 750 979 747 q 988 754 988 753 q 983 758 988 758 l 969 751 l 947 735 q 933 747 947 747 q 923 745 929 747 q 913 740 917 743 l 896 732 l 883 721 q 858 696 868 710 q 844 669 849 682 l 842 669 l 831 657 q 816 644 824 651 q 800 638 808 638 l 799 638 q 797 639 797 638 l 799 640 l 807 653 l 829 681 q 835 690 832 685 q 842 700 839 694 l 847 711 q 849 718 849 714 q 843 729 849 729 q 838 728 839 729 l 821 719 l 807 708 q 799 703 801 703 l 785 688 q 778 681 782 685 q 772 675 775 678 l 758 660 l 760 663 l 794 711 q 797 715 794 713 q 799 721 799 718 l 794 725 q 792 726 793 725 q 790 726 792 726 q 788 726 789 726 q 783 725 786 725 l 774 718 q 771 715 771 717 q 769 713 771 714 l 714 618 q 713 615 713 617 l 713 614 q 715 613 714 614 q 717 613 715 613 q 722 614 719 613 l 728 617 q 733 622 728 622 l 736 626 q 739 629 736 629 l 764 658 l 790 686 l 817 711 l 832 719 q 833 718 833 719 l 829 715 q 824 710 828 711 l 813 696 q 808 691 810 693 q 804 686 807 689 l 785 657 l 781 644 q 779 638 779 642 q 786 629 779 629 l 799 629 q 805 633 801 631 q 814 638 808 635 l 826 647 m 551 581 q 576 591 564 581 q 594 608 588 601 l 600 621 q 604 633 604 626 l 604 644 q 601 654 604 649 l 597 665 l 593 669 q 591 674 593 672 q 589 678 589 676 l 589 685 l 583 685 q 581 682 581 682 l 572 676 l 568 667 l 543 632 l 536 621 l 535 619 q 532 618 533 619 l 525 607 l 500 581 l 492 576 q 483 574 489 574 l 483 575 l 493 589 l 503 601 l 515 621 l 518 631 q 519 640 519 635 q 518 646 518 642 l 517 649 q 515 653 517 651 l 515 668 l 519 675 l 519 678 q 517 682 519 679 q 513 685 515 685 q 495 678 506 685 q 485 663 485 672 q 486 654 485 657 l 489 653 q 492 650 489 653 l 483 642 l 454 606 q 451 603 451 606 l 450 600 q 449 599 450 599 l 442 589 q 421 572 431 579 q 400 558 411 564 l 386 553 q 378 550 381 550 q 368 558 368 550 q 371 565 368 560 l 379 582 q 388 581 382 581 l 400 581 q 415 588 407 583 q 435 599 422 592 l 444 610 q 449 615 447 613 q 451 621 451 618 l 457 629 q 449 646 457 640 l 436 646 q 430 646 433 646 q 424 643 426 646 l 410 638 q 369 609 388 626 q 346 568 351 592 l 346 557 q 364 543 350 543 q 396 551 378 543 q 429 574 414 558 l 456 597 q 458 601 456 599 q 460 604 460 603 l 463 608 l 483 633 q 490 640 488 636 q 496 647 493 644 l 503 642 q 504 639 503 640 l 504 638 q 503 635 504 636 q 500 631 501 633 l 489 619 l 471 593 l 468 581 q 467 575 467 579 l 469 565 l 475 565 q 486 567 482 565 l 497 574 q 510 586 503 579 q 524 597 517 593 l 535 613 l 540 619 q 543 622 543 622 l 565 654 q 567 642 565 647 q 569 635 569 638 l 572 629 q 556 621 561 626 l 542 611 q 535 599 538 604 q 532 588 532 594 q 539 581 532 583 l 551 581 m 621 611 q 624 606 621 606 l 631 600 q 633 599 632 600 q 636 599 635 599 l 638 600 l 646 600 q 656 603 651 601 q 664 606 660 604 l 682 615 l 710 640 l 719 654 l 731 678 q 731 681 731 679 q 732 683 732 682 q 731 691 732 681 q 710 701 729 701 q 701 700 706 701 q 689 696 696 699 l 681 693 l 649 669 l 629 644 q 621 626 622 633 l 621 611 m 174 11 q 163 29 165 18 q 160 51 160 40 l 160 63 q 176 94 160 82 q 210 106 192 106 l 214 106 q 246 92 233 106 q 256 72 258 79 l 233 72 q 225 83 232 79 q 211 88 218 88 l 201 88 l 192 79 q 183 68 185 76 q 182 50 182 60 q 207 15 182 15 l 210 15 q 227 21 218 15 q 236 38 236 26 l 211 38 l 211 56 l 256 56 l 256 -1 l 242 -1 l 239 13 q 204 -4 228 -4 q 187 0 196 -4 q 174 11 178 4 m 296 -96 q 322 -76 304 -76 q 335 -79 329 -76 q 343 -89 340 -82 l 344 -78 l 361 -78 l 361 -146 q 354 -169 361 -160 q 325 -178 347 -178 q 304 -173 313 -178 q 296 -157 296 -168 l 314 -157 l 318 -162 q 326 -164 319 -164 q 342 -158 342 -164 q 343 -153 343 -151 l 343 -140 q 324 -150 335 -150 q 303 -143 314 -150 q 292 -112 292 -136 q 293 -104 292 -108 q 296 -96 294 -100 m 803 68 q 814 38 814 57 q 806 12 814 26 q 775 -3 799 -3 q 745 8 756 -3 q 735 38 735 19 q 735 47 735 40 q 740 61 736 54 q 752 73 744 68 q 775 78 760 78 q 791 76 782 78 q 803 68 800 74 m 496 -78 l 513 -78 l 513 -89 l 515 -89 q 518 -87 517 -89 l 529 -78 q 535 -76 531 -76 q 554 -85 543 -76 q 565 -114 565 -93 q 556 -140 565 -129 q 535 -151 546 -151 q 525 -150 528 -151 l 519 -146 q 516 -144 518 -144 q 514 -142 514 -144 l 514 -176 l 496 -176 l 496 -78 m 1110 -78 l 1128 -78 l 1128 -89 q 1149 -76 1133 -76 q 1168 -87 1161 -76 q 1186 -76 1172 -76 q 1211 -101 1211 -76 l 1211 -150 l 1193 -150 l 1193 -107 q 1182 -92 1193 -92 q 1169 -107 1169 -92 l 1169 -150 l 1151 -150 l 1151 -100 q 1147 -94 1151 -96 q 1139 -92 1143 -92 q 1128 -107 1128 -92 l 1128 -150 l 1110 -150 l 1110 -78 m 1026 -100 q 1061 -76 1035 -76 q 1084 -84 1072 -76 q 1096 -114 1096 -92 q 1088 -140 1096 -129 q 1061 -151 1081 -151 q 1025 -114 1025 -151 q 1026 -100 1025 -106 m 172 479 l 179 486 l 192 500 q 197 508 194 506 l 240 567 l 267 608 q 274 619 271 614 q 281 629 278 624 l 292 651 q 292 653 292 653 q 293 654 293 653 q 289 657 293 657 q 282 656 283 657 l 276 653 l 254 625 q 244 613 250 621 l 233 599 l 178 517 l 160 483 l 160 476 l 167 476 l 172 479 m 1033 -1 q 1027 -2 1029 -1 q 1022 -3 1025 -3 q 1008 1 1017 -3 q 999 21 999 4 q 1006 38 999 33 q 1021 44 1013 42 l 1039 47 q 1046 53 1046 47 q 1033 63 1046 63 q 1019 50 1021 63 l 1001 50 q 1007 69 1001 60 q 1025 78 1013 78 l 1033 78 q 1057 74 1049 78 q 1065 56 1065 69 l 1065 7 q 1071 3 1065 3 l 1071 -1 l 1049 -1 q 1047 0 1047 -1 l 1047 1 l 1047 3 q 1047 6 1047 6 q 1046 8 1046 7 l 1040 3 q 1038 1 1039 1 q 1036 0 1038 1 q 1033 -1 1035 -1 m 340 31 l 288 31 q 292 19 288 25 q 306 14 296 14 q 316 17 313 14 q 319 22 319 19 l 340 22 l 333 8 l 322 0 q 314 -2 317 -1 q 306 -3 311 -3 q 268 39 268 -3 q 279 69 268 61 q 306 78 290 78 q 333 65 326 78 q 340 36 340 51 l 340 31 m 686 440 q 690 457 690 446 q 681 479 690 468 q 653 490 671 490 q 624 479 633 490 q 614 457 614 468 q 628 431 614 438 q 653 424 643 424 q 673 428 667 424 q 686 440 679 433 m 188 614 q 186 607 186 611 q 194 594 186 600 l 207 590 q 218 591 210 590 q 226 596 226 592 q 225 597 226 597 l 222 597 q 217 596 219 597 q 213 594 215 594 q 192 610 192 594 q 193 618 192 614 q 227 649 201 633 q 276 675 253 665 l 296 678 q 314 681 307 681 q 326 678 317 681 q 339 674 336 676 l 346 665 l 346 654 q 344 640 346 646 l 338 628 q 323 608 331 618 q 300 588 315 597 l 285 578 l 258 567 q 255 566 257 567 q 250 565 253 565 l 247 565 q 242 564 246 565 q 239 560 239 563 q 240 558 239 558 l 243 558 q 247 560 246 558 l 268 565 l 304 581 l 338 603 l 363 629 q 372 649 369 640 q 375 663 375 657 q 374 665 375 664 q 374 668 374 665 l 369 678 l 360 685 q 331 689 344 689 q 260 673 299 689 q 193 628 222 657 l 188 614 m 697 -115 q 711 -108 704 -108 l 728 -106 q 733 -101 733 -106 q 724 -90 733 -90 q 715 -94 718 -90 q 711 -101 711 -99 l 693 -101 q 706 -80 693 -83 q 724 -76 718 -76 q 753 -97 753 -76 l 753 -135 q 753 -143 753 -142 q 757 -147 754 -144 l 757 -150 l 736 -149 q 735 -147 736 -147 q 735 -146 735 -147 l 735 -142 q 723 -149 725 -146 q 713 -151 721 -151 q 703 -150 707 -151 l 693 -143 q 690 -131 690 -137 q 697 -115 690 -119 m 53 -115 q 67 -108 60 -108 l 85 -106 q 92 -101 92 -106 q 81 -90 92 -90 q 70 -94 74 -90 q 67 -101 67 -99 l 50 -101 q 60 -81 50 -85 q 81 -76 71 -76 q 104 -83 100 -76 q 108 -97 108 -90 l 108 -135 q 109 -143 108 -142 q 113 -147 110 -144 l 113 -150 l 93 -150 l 93 -146 q 92 -142 92 -144 l 86 -147 q 77 -151 81 -150 q 71 -151 74 -151 q 55 -147 63 -151 q 47 -131 47 -143 q 53 -115 47 -119 m 575 -96 q 604 -76 583 -76 q 639 -115 639 -76 l 639 -119 l 590 -119 q 606 -136 590 -136 q 615 -133 610 -136 l 619 -128 l 638 -128 q 626 -147 635 -143 q 606 -151 618 -151 q 572 -112 572 -151 q 575 -96 572 -101 m 842 -96 q 872 -76 850 -76 q 898 -88 890 -76 q 906 -115 906 -100 l 906 -119 l 857 -119 q 872 -136 857 -136 q 882 -133 876 -136 l 886 -128 l 904 -128 q 872 -151 897 -151 q 839 -112 839 -151 q 842 -96 839 -107 m 894 67 q 897 53 897 58 l 897 -1 l 878 -1 l 878 46 q 864 61 878 61 q 849 43 849 61 l 849 -1 l 828 -1 l 828 76 l 847 76 l 847 65 q 871 78 856 78 q 885 75 881 78 l 894 67 m 540 10 q 528 0 535 3 q 517 -3 521 -3 q 490 25 490 -3 l 490 76 l 510 76 l 510 29 q 524 15 510 15 l 531 15 l 538 22 q 539 26 538 24 q 540 31 540 28 l 540 76 l 558 76 l 558 -1 l 540 -1 l 540 10 m 415 -83 l 414 -78 l 436 -78 l 450 -131 l 464 -78 l 485 -78 l 460 -149 l 450 -172 q 433 -178 444 -178 l 424 -178 l 424 -162 l 435 -162 q 439 -160 436 -162 l 439 -157 q 440 -153 440 -156 l 415 -83 m 215 -78 l 232 -78 l 232 -89 q 254 -76 240 -76 q 271 -81 263 -76 q 279 -101 279 -86 l 279 -150 l 260 -150 l 260 -107 q 258 -96 260 -100 q 247 -92 256 -92 q 236 -97 239 -92 q 233 -108 233 -103 l 233 -150 l 215 -150 l 215 -78 m 957 -87 q 983 -76 965 -76 q 1006 -83 994 -76 q 1017 -104 1017 -90 l 997 -104 l 993 -96 q 985 -92 989 -92 q 974 -97 979 -92 q 969 -112 969 -103 q 983 -135 969 -135 q 996 -124 996 -135 l 1017 -124 q 1007 -143 1014 -135 q 983 -151 1000 -151 q 960 -144 971 -151 q 950 -115 950 -136 q 957 -87 950 -104 m 772 -87 q 799 -76 781 -76 q 822 -85 811 -76 q 832 -104 832 -93 l 811 -104 q 809 -97 811 -101 q 800 -92 807 -92 q 788 -98 793 -92 q 783 -112 783 -104 q 784 -119 783 -117 q 785 -125 785 -122 l 790 -132 q 799 -135 793 -135 q 806 -133 801 -135 q 811 -124 811 -131 l 829 -124 q 820 -144 829 -136 q 799 -151 811 -151 q 775 -143 785 -151 q 765 -115 765 -135 q 772 -87 765 -104 m 468 88 q 465 85 465 88 l 465 76 l 478 76 l 478 63 l 465 63 l 465 -1 l 444 -1 l 444 63 l 435 63 l 435 76 l 444 76 l 444 82 q 468 104 444 104 l 478 104 l 478 88 l 468 88 m 715 76 l 729 76 l 729 63 l 715 63 l 715 -1 l 694 -1 l 694 63 l 685 63 l 685 76 l 694 76 l 694 82 q 718 104 694 104 l 726 104 l 726 88 l 718 88 q 715 85 717 88 l 715 76 m 1119 -1 l 1107 -1 q 1093 1 1101 -1 q 1085 15 1085 3 l 1085 63 l 1075 63 l 1075 76 l 1085 76 l 1085 96 l 1107 96 l 1107 76 l 1119 76 l 1119 63 l 1107 63 l 1107 15 q 1110 15 1108 15 q 1114 14 1111 14 l 1119 15 l 1119 -1 m 378 96 l 378 76 l 389 76 l 389 63 l 378 63 l 378 21 q 378 15 378 17 q 386 14 379 14 l 388 15 l 389 -1 l 378 -1 q 364 0 371 -1 q 357 15 357 1 l 357 63 l 346 63 l 346 76 l 357 76 l 357 96 l 378 96 m 640 606 q 638 607 638 606 l 638 615 q 644 629 640 625 l 654 644 l 678 674 q 684 680 681 676 q 690 686 688 683 l 703 694 q 710 696 706 696 q 714 689 714 696 q 711 682 714 688 l 704 669 l 686 642 l 661 615 q 656 611 658 613 q 651 608 653 608 q 646 606 649 607 l 640 606 m 865 664 l 871 671 l 881 686 l 911 725 l 926 739 q 932 741 928 740 q 938 742 936 742 l 942 739 q 942 737 942 738 q 943 735 943 736 q 939 725 943 729 l 919 694 l 908 685 l 890 667 l 875 654 q 869 651 872 654 q 863 649 865 649 l 861 650 l 860 650 q 858 653 858 651 q 860 654 860 653 q 861 657 860 656 l 865 664 m 951 -1 l 938 -1 q 919 7 921 -1 l 919 63 l 907 63 l 907 76 l 919 76 l 919 96 l 938 96 l 938 76 l 951 76 l 951 63 l 938 63 l 938 21 q 946 14 938 14 l 951 15 l 951 -1 m 669 479 q 672 472 669 475 q 675 457 675 468 q 672 437 675 447 q 653 426 668 426 q 636 435 638 426 l 632 443 q 629 457 629 451 q 630 463 629 460 q 631 468 631 465 l 639 483 q 644 487 640 485 q 654 489 649 489 q 656 488 654 488 l 658 488 l 669 479 m 654 -92 l 643 -92 l 643 -78 l 654 -78 l 654 -72 q 675 -53 654 -53 l 683 -53 l 683 -68 l 675 -68 q 674 -69 674 -69 l 672 -78 l 685 -78 l 685 -92 l 672 -92 l 672 -150 l 654 -150 l 654 -92 m 379 -92 l 369 -92 l 369 -78 l 379 -78 l 379 -60 l 399 -60 l 399 -78 l 410 -78 l 410 -92 l 399 -92 l 399 -129 q 399 -134 399 -132 q 406 -136 399 -136 l 410 -135 l 410 -150 l 399 -150 q 379 -135 379 -150 l 379 -92 m 597 -1 l 578 -1 l 578 104 l 597 104 l 597 -1 m 632 -1 l 613 -1 l 613 104 l 632 104 l 632 -1 m 572 489 l 503 489 l 503 486 l 506 486 q 517 476 517 486 l 517 438 q 506 426 517 426 l 503 425 l 572 425 l 572 451 l 561 433 q 556 429 557 429 l 549 428 q 540 426 546 426 l 531 426 l 532 454 q 544 450 538 454 l 547 446 q 548 444 547 444 q 549 442 549 443 l 549 436 l 549 476 l 546 464 q 533 457 539 457 l 531 457 l 531 486 l 542 486 q 557 485 553 486 l 563 481 l 569 464 l 572 464 l 572 489 m 126 -78 l 143 -78 l 144 -90 l 149 -83 q 152 -78 151 -81 q 164 -76 153 -76 l 168 -76 l 168 -96 l 163 -96 q 144 -112 144 -96 l 144 -150 l 126 -150 l 126 -78 m 788 489 l 756 489 l 756 486 l 761 486 l 765 482 q 771 469 771 476 l 771 443 l 726 489 l 701 489 l 701 486 q 712 483 710 486 q 714 476 714 481 l 714 440 q 713 433 714 436 l 708 428 q 703 427 706 428 q 700 426 701 426 l 700 425 l 733 426 q 726 428 729 426 l 721 428 l 718 435 q 717 443 717 436 l 717 481 l 771 425 l 774 425 l 774 469 q 775 481 774 476 q 788 486 776 486 l 788 489 m 492 454 q 483 460 490 457 l 472 464 l 464 465 q 451 469 461 465 q 443 476 440 472 l 443 482 q 445 485 443 481 q 458 489 447 489 q 478 483 474 489 q 490 467 483 476 l 492 467 l 490 488 q 485 483 489 483 l 479 483 q 458 490 468 490 q 444 488 453 490 l 436 482 q 434 477 435 479 q 433 471 433 475 q 435 464 433 468 q 440 460 438 460 l 449 456 q 463 451 450 454 l 468 450 q 479 447 471 449 q 488 436 488 444 q 485 431 488 435 q 479 426 483 428 l 472 426 q 461 428 465 426 l 450 432 l 443 439 q 436 453 436 446 l 435 453 l 436 424 q 439 428 436 426 q 444 431 442 431 q 448 429 446 431 q 453 428 450 428 l 463 425 q 472 424 465 424 q 485 428 482 424 q 496 436 489 433 l 496 450 l 492 454 m 789 22 q 793 38 793 26 q 789 54 793 47 q 775 61 785 61 q 756 38 756 61 q 761 19 756 24 q 775 15 767 15 q 789 22 786 15 m 178 -78 l 197 -78 l 197 -150 l 178 -150 l 178 -78 m 938 483 q 940 485 938 483 q 944 486 942 485 l 944 489 l 913 489 l 913 486 l 917 486 q 926 481 926 486 q 922 474 926 478 l 910 456 l 893 476 q 890 482 890 482 l 890 483 q 896 486 890 486 l 901 486 l 901 489 l 860 489 l 861 486 q 869 485 865 486 q 876 478 874 485 l 896 451 l 896 438 q 885 426 896 426 l 881 425 l 926 425 l 921 426 q 910 438 910 426 l 910 453 l 929 481 q 936 483 935 483 l 938 483 m 864 453 l 863 453 q 858 446 860 450 q 856 439 856 442 l 853 435 q 846 428 849 431 q 835 426 843 426 l 818 426 l 818 476 q 831 486 818 486 l 835 486 l 835 489 l 792 489 l 792 486 l 794 486 q 806 476 806 486 l 806 438 q 794 426 806 426 l 792 425 l 864 425 l 864 453 m 1074 -99 q 1061 -92 1071 -92 q 1047 -99 1050 -92 q 1043 -114 1043 -106 q 1047 -128 1043 -122 q 1061 -135 1050 -135 q 1075 -128 1072 -135 q 1078 -114 1078 -121 q 1074 -99 1078 -106 m 401 590 q 393 589 397 589 q 385 590 386 589 l 394 606 l 411 625 l 425 638 l 433 640 q 435 641 435 640 q 439 642 436 642 q 441 641 440 642 q 443 640 442 640 l 443 633 l 439 628 q 431 615 433 622 q 417 601 428 607 l 401 590 m 518 -129 q 529 -135 522 -135 q 544 -114 544 -135 q 542 -99 544 -107 q 529 -92 539 -92 q 513 -115 513 -92 q 518 -129 513 -125 m 406 431 q 411 443 411 435 q 404 432 408 436 l 396 426 l 386 426 q 372 428 379 426 q 364 443 364 431 l 364 476 q 368 485 364 483 q 376 486 372 486 l 381 486 l 381 489 l 338 489 l 338 486 q 351 476 351 486 l 351 443 q 358 428 351 438 l 369 425 q 382 424 372 424 q 406 431 399 424 m 314 -124 q 319 -131 314 -129 q 326 -133 324 -133 q 343 -114 343 -133 q 338 -99 343 -107 q 326 -92 333 -92 q 313 -114 313 -92 q 314 -124 313 -119 m 572 626 q 573 622 572 624 q 574 619 574 621 q 572 614 572 617 l 572 606 l 569 600 l 558 589 q 551 587 556 589 q 544 585 547 585 q 538 589 539 585 l 538 594 l 544 607 q 557 619 550 614 l 572 626 m 1018 21 q 1022 14 1018 15 q 1028 13 1025 13 l 1036 14 q 1046 28 1046 18 l 1046 38 q 1038 33 1042 33 l 1028 31 q 1018 21 1018 31 m 917 -129 l 938 -129 l 938 -150 l 917 -150 l 917 -129 m 85 -118 l 78 -119 q 65 -129 65 -122 q 69 -135 65 -132 q 75 -139 72 -139 q 78 -138 76 -139 q 89 -132 81 -137 q 92 -124 92 -126 l 92 -115 q 85 -118 90 -115 m 321 46 q 315 57 318 51 q 306 63 313 63 q 290 46 290 63 l 321 46 m 728 -118 l 718 -119 q 710 -129 710 -119 q 718 -139 710 -139 q 722 -136 721 -139 l 732 -132 q 733 -124 733 -129 l 733 -115 q 728 -118 733 -115 m 886 -107 q 883 -97 886 -101 q 871 -92 879 -92 q 857 -107 860 -92 l 886 -107 m 619 -107 q 616 -97 619 -101 q 604 -92 613 -92 q 590 -107 593 -92 l 619 -107 m 178 -53 l 197 -53 l 197 -69 l 178 -69 l 178 -53 m 1068 799 q 1063 792 1065 793 l 1082 817 l 1090 832 l 1108 856 q 1110 858 1108 857 q 1114 861 1113 860 q 1113 854 1114 856 l 1107 847 l 1099 835 l 1075 807 l 1068 799 m 425 489 l 393 489 l 393 486 l 400 486 q 408 481 406 486 q 411 469 411 475 l 411 479 l 418 485 q 419 486 418 485 l 425 486 l 425 489 z "},"8":{"ha":1260,"x_min":47,"x_max":1211,"o":"m 85 718 l 267 758 l 260 783 l 288 792 l 282 818 l 310 824 l 306 856 l 333 856 l 333 883 l 358 883 l 361 908 l 388 904 l 393 932 l 422 928 l 429 954 l 456 947 l 467 972 l 493 961 l 508 988 l 532 975 l 547 999 l 572 982 l 589 1004 l 613 986 l 631 1006 l 649 989 l 667 1004 l 685 985 l 708 1000 l 724 975 l 750 989 l 763 965 l 788 976 l 799 949 l 828 957 l 836 931 l 863 938 l 868 908 l 897 911 l 899 893 l 1172 953 l 1172 617 l 1047 589 l 1050 588 l 1033 569 l 1050 550 l 1028 532 l 1043 508 l 1018 493 l 1033 468 l 1010 454 l 1019 429 l 993 418 l 1001 389 l 976 381 l 981 354 l 954 349 l 954 319 l 928 317 l 928 290 l 904 290 l 900 267 l 874 267 l 868 242 l 839 246 l 832 218 l 806 226 l 796 200 l 767 211 l 754 185 l 729 199 l 714 175 l 689 190 l 672 168 l 651 186 l 631 168 l 613 185 l 594 168 l 578 189 l 554 174 l 538 199 l 513 185 l 500 208 l 474 197 l 461 225 l 435 217 l 426 242 l 399 236 l 393 265 l 364 263 l 361 290 l 333 290 l 333 314 l 310 317 l 313 344 l 285 349 l 290 378 l 263 386 l 271 411 l 251 419 l 85 383 l 85 718 m 826 647 l 842 663 q 840 658 840 661 q 844 647 840 651 q 854 642 847 642 q 881 653 865 642 l 894 663 q 899 667 897 665 q 904 672 901 669 l 913 681 l 913 678 q 912 676 913 676 q 911 674 911 675 l 911 669 q 910 665 910 668 q 912 658 910 663 q 917 654 914 654 l 928 654 l 932 657 l 946 665 l 979 694 l 976 686 q 974 674 974 682 l 974 669 q 976 668 976 669 q 981 667 976 667 q 988 669 982 667 q 994 674 993 671 l 1010 686 q 1018 692 1013 686 q 1029 704 1024 699 l 1042 718 l 1042 721 q 1040 722 1042 722 q 1035 719 1038 722 l 1033 717 l 1018 699 q 1010 690 1011 694 l 1000 682 l 989 676 q 988 675 989 676 q 985 676 986 675 l 992 686 q 997 694 994 692 l 1001 703 q 1007 710 1004 704 l 1050 772 q 1058 783 1057 779 l 1094 824 q 1106 838 1101 831 q 1117 851 1111 844 l 1124 864 l 1124 869 q 1118 871 1122 871 q 1108 868 1115 871 q 1096 860 1101 865 l 1090 856 l 1064 831 q 1053 818 1057 824 q 1042 801 1049 813 l 1006 743 l 988 710 l 976 700 q 971 693 974 696 q 964 686 968 690 l 951 675 l 940 667 q 938 665 940 667 l 935 663 l 928 663 l 936 676 q 942 687 936 679 q 950 697 947 694 l 961 717 l 976 739 l 982 747 q 983 750 979 747 q 988 754 988 753 q 983 758 988 758 l 969 751 l 947 735 q 933 747 947 747 q 923 745 929 747 q 913 740 917 743 l 896 732 l 883 721 q 858 696 868 710 q 844 669 849 682 l 842 669 l 831 657 q 816 644 824 651 q 800 638 808 638 l 799 638 q 797 639 797 638 l 799 640 l 807 653 l 829 681 q 835 690 832 685 q 842 700 839 694 l 847 711 q 849 718 849 714 q 843 729 849 729 q 838 728 839 729 l 821 719 l 807 708 q 799 703 801 703 l 785 688 q 778 681 782 685 q 772 675 775 678 l 758 660 l 760 663 l 794 711 q 797 715 794 713 q 799 721 799 718 l 794 725 q 792 726 793 725 q 790 726 792 726 q 788 726 789 726 q 783 725 786 725 l 774 718 q 771 715 771 717 q 769 713 771 714 l 714 618 q 713 615 713 617 l 713 614 q 715 613 714 614 q 717 613 715 613 q 722 614 719 613 l 728 617 q 733 622 728 622 l 736 626 q 739 629 736 629 l 764 658 l 790 686 l 817 711 l 832 719 q 833 718 833 719 l 829 715 q 824 710 828 711 l 813 696 q 808 691 810 693 q 804 686 807 689 l 785 657 l 781 644 q 779 638 779 642 q 786 629 779 629 l 799 629 q 805 633 801 631 q 814 638 808 635 l 826 647 m 551 581 q 576 591 564 581 q 594 608 588 601 l 600 621 q 604 633 604 626 l 604 644 q 601 654 604 649 l 597 665 l 593 669 q 591 674 593 672 q 589 678 589 676 l 589 685 l 583 685 q 581 682 581 682 l 572 676 l 568 667 l 543 632 l 536 621 l 535 619 q 532 618 533 619 l 525 607 l 500 581 l 492 576 q 483 574 489 574 l 483 575 l 493 589 l 503 601 l 515 621 l 518 631 q 519 640 519 635 q 518 646 518 642 l 517 649 q 515 653 517 651 l 515 668 l 519 675 l 519 678 q 517 682 519 679 q 513 685 515 685 q 495 678 506 685 q 485 663 485 672 q 486 654 485 657 l 489 653 q 492 650 489 653 l 483 642 l 454 606 q 451 603 451 606 l 450 600 q 449 599 450 599 l 442 589 q 421 572 431 579 q 400 558 411 564 l 386 553 q 378 550 381 550 q 368 558 368 550 q 371 565 368 560 l 379 582 q 388 581 382 581 l 400 581 q 415 588 407 583 q 435 599 422 592 l 444 610 q 449 615 447 613 q 451 621 451 618 l 457 629 q 449 646 457 640 l 436 646 q 430 646 433 646 q 424 643 426 646 l 410 638 q 369 609 388 626 q 346 568 351 592 l 346 557 q 364 543 350 543 q 396 551 378 543 q 429 574 414 558 l 456 597 q 458 601 456 599 q 460 604 460 603 l 463 608 l 483 633 q 490 640 488 636 q 496 647 493 644 l 503 642 q 504 639 503 640 l 504 638 q 503 635 504 636 q 500 631 501 633 l 489 619 l 471 593 l 468 581 q 467 575 467 579 l 469 565 l 475 565 q 486 567 482 565 l 497 574 q 510 586 503 579 q 524 597 517 593 l 535 613 l 540 619 q 543 622 543 622 l 565 654 q 567 642 565 647 q 569 635 569 638 l 572 629 q 556 621 561 626 l 542 611 q 535 599 538 604 q 532 588 532 594 q 539 581 532 583 l 551 581 m 621 611 q 624 606 621 606 l 631 600 q 633 599 632 600 q 636 599 635 599 l 638 600 l 646 600 q 656 603 651 601 q 664 606 660 604 l 682 615 l 710 640 l 719 654 l 731 678 q 731 681 731 679 q 732 683 732 682 q 731 691 732 681 q 710 701 729 701 q 701 700 706 701 q 689 696 696 699 l 681 693 l 649 669 l 629 644 q 621 626 622 633 l 621 611 m 174 11 q 163 29 165 18 q 160 51 160 40 l 160 63 q 176 94 160 82 q 210 106 192 106 l 214 106 q 246 92 233 106 q 256 72 258 79 l 233 72 q 225 83 232 79 q 211 88 218 88 l 201 88 l 192 79 q 183 68 185 76 q 182 50 182 60 q 207 15 182 15 l 210 15 q 227 21 218 15 q 236 38 236 26 l 211 38 l 211 56 l 256 56 l 256 -1 l 242 -1 l 239 13 q 204 -4 228 -4 q 187 0 196 -4 q 174 11 178 4 m 296 -96 q 322 -76 304 -76 q 335 -79 329 -76 q 343 -89 340 -82 l 344 -78 l 361 -78 l 361 -146 q 354 -169 361 -160 q 325 -178 347 -178 q 304 -173 313 -178 q 296 -157 296 -168 l 314 -157 l 318 -162 q 326 -164 319 -164 q 342 -158 342 -164 q 343 -153 343 -151 l 343 -140 q 324 -150 335 -150 q 303 -143 314 -150 q 292 -112 292 -136 q 293 -104 292 -108 q 296 -96 294 -100 m 803 68 q 814 38 814 57 q 806 12 814 26 q 775 -3 799 -3 q 745 8 756 -3 q 735 38 735 19 q 735 47 735 40 q 740 61 736 54 q 752 73 744 68 q 775 78 760 78 q 791 76 782 78 q 803 68 800 74 m 496 -78 l 513 -78 l 513 -89 l 515 -89 q 518 -87 517 -89 l 529 -78 q 535 -76 531 -76 q 554 -85 543 -76 q 565 -114 565 -93 q 556 -140 565 -129 q 535 -151 546 -151 q 525 -150 528 -151 l 519 -146 q 516 -144 518 -144 q 514 -142 514 -144 l 514 -176 l 496 -176 l 496 -78 m 1110 -78 l 1128 -78 l 1128 -89 q 1149 -76 1133 -76 q 1168 -87 1161 -76 q 1186 -76 1172 -76 q 1211 -101 1211 -76 l 1211 -150 l 1193 -150 l 1193 -107 q 1182 -92 1193 -92 q 1169 -107 1169 -92 l 1169 -150 l 1151 -150 l 1151 -100 q 1147 -94 1151 -96 q 1139 -92 1143 -92 q 1128 -107 1128 -92 l 1128 -150 l 1110 -150 l 1110 -78 m 1026 -100 q 1061 -76 1035 -76 q 1084 -84 1072 -76 q 1096 -114 1096 -92 q 1088 -140 1096 -129 q 1061 -151 1081 -151 q 1025 -114 1025 -151 q 1026 -100 1025 -106 m 172 479 l 179 486 l 192 500 q 197 508 194 506 l 240 567 l 267 608 q 274 619 271 614 q 281 629 278 624 l 292 651 q 292 653 292 653 q 293 654 293 653 q 289 657 293 657 q 282 656 283 657 l 276 653 l 254 625 q 244 613 250 621 l 233 599 l 178 517 l 160 483 l 160 476 l 167 476 l 172 479 m 1033 -1 q 1027 -2 1029 -1 q 1022 -3 1025 -3 q 1008 1 1017 -3 q 999 21 999 4 q 1006 38 999 33 q 1021 44 1013 42 l 1039 47 q 1046 53 1046 47 q 1033 63 1046 63 q 1019 50 1021 63 l 1001 50 q 1007 69 1001 60 q 1025 78 1013 78 l 1033 78 q 1057 74 1049 78 q 1065 56 1065 69 l 1065 7 q 1071 3 1065 3 l 1071 -1 l 1049 -1 q 1047 0 1047 -1 l 1047 1 l 1047 3 q 1047 6 1047 6 q 1046 8 1046 7 l 1040 3 q 1038 1 1039 1 q 1036 0 1038 1 q 1033 -1 1035 -1 m 340 31 l 288 31 q 292 19 288 25 q 306 14 296 14 q 316 17 313 14 q 319 22 319 19 l 340 22 l 333 8 l 322 0 q 314 -2 317 -1 q 306 -3 311 -3 q 268 39 268 -3 q 279 69 268 61 q 306 78 290 78 q 333 65 326 78 q 340 36 340 51 l 340 31 m 686 440 q 690 457 690 446 q 681 479 690 468 q 653 490 671 490 q 624 479 633 490 q 614 457 614 468 q 628 431 614 438 q 653 424 643 424 q 673 428 667 424 q 686 440 679 433 m 188 614 q 186 607 186 611 q 194 594 186 600 l 207 590 q 218 591 210 590 q 226 596 226 592 q 225 597 226 597 l 222 597 q 217 596 219 597 q 213 594 215 594 q 192 610 192 594 q 193 618 192 614 q 227 649 201 633 q 276 675 253 665 l 296 678 q 314 681 307 681 q 326 678 317 681 q 339 674 336 676 l 346 665 l 346 654 q 344 640 346 646 l 338 628 q 323 608 331 618 q 300 588 315 597 l 285 578 l 258 567 q 255 566 257 567 q 250 565 253 565 l 247 565 q 242 564 246 565 q 239 560 239 563 q 240 558 239 558 l 243 558 q 247 560 246 558 l 268 565 l 304 581 l 338 603 l 363 629 q 372 649 369 640 q 375 663 375 657 q 374 665 375 664 q 374 668 374 665 l 369 678 l 360 685 q 331 689 344 689 q 260 673 299 689 q 193 628 222 657 l 188 614 m 697 -115 q 711 -108 704 -108 l 728 -106 q 733 -101 733 -106 q 724 -90 733 -90 q 715 -94 718 -90 q 711 -101 711 -99 l 693 -101 q 706 -80 693 -83 q 724 -76 718 -76 q 753 -97 753 -76 l 753 -135 q 753 -143 753 -142 q 757 -147 754 -144 l 757 -150 l 736 -149 q 735 -147 736 -147 q 735 -146 735 -147 l 735 -142 q 723 -149 725 -146 q 713 -151 721 -151 q 703 -150 707 -151 l 693 -143 q 690 -131 690 -137 q 697 -115 690 -119 m 53 -115 q 67 -108 60 -108 l 85 -106 q 92 -101 92 -106 q 81 -90 92 -90 q 70 -94 74 -90 q 67 -101 67 -99 l 50 -101 q 60 -81 50 -85 q 81 -76 71 -76 q 104 -83 100 -76 q 108 -97 108 -90 l 108 -135 q 109 -143 108 -142 q 113 -147 110 -144 l 113 -150 l 93 -150 l 93 -146 q 92 -142 92 -144 l 86 -147 q 77 -151 81 -150 q 71 -151 74 -151 q 55 -147 63 -151 q 47 -131 47 -143 q 53 -115 47 -119 m 575 -96 q 604 -76 583 -76 q 639 -115 639 -76 l 639 -119 l 590 -119 q 606 -136 590 -136 q 615 -133 610 -136 l 619 -128 l 638 -128 q 626 -147 635 -143 q 606 -151 618 -151 q 572 -112 572 -151 q 575 -96 572 -101 m 842 -96 q 872 -76 850 -76 q 898 -88 890 -76 q 906 -115 906 -100 l 906 -119 l 857 -119 q 872 -136 857 -136 q 882 -133 876 -136 l 886 -128 l 904 -128 q 872 -151 897 -151 q 839 -112 839 -151 q 842 -96 839 -107 m 894 67 q 897 53 897 58 l 897 -1 l 878 -1 l 878 46 q 864 61 878 61 q 849 43 849 61 l 849 -1 l 828 -1 l 828 76 l 847 76 l 847 65 q 871 78 856 78 q 885 75 881 78 l 894 67 m 540 10 q 528 0 535 3 q 517 -3 521 -3 q 490 25 490 -3 l 490 76 l 510 76 l 510 29 q 524 15 510 15 l 531 15 l 538 22 q 539 26 538 24 q 540 31 540 28 l 540 76 l 558 76 l 558 -1 l 540 -1 l 540 10 m 415 -83 l 414 -78 l 436 -78 l 450 -131 l 464 -78 l 485 -78 l 460 -149 l 450 -172 q 433 -178 444 -178 l 424 -178 l 424 -162 l 435 -162 q 439 -160 436 -162 l 439 -157 q 440 -153 440 -156 l 415 -83 m 215 -78 l 232 -78 l 232 -89 q 254 -76 240 -76 q 271 -81 263 -76 q 279 -101 279 -86 l 279 -150 l 260 -150 l 260 -107 q 258 -96 260 -100 q 247 -92 256 -92 q 236 -97 239 -92 q 233 -108 233 -103 l 233 -150 l 215 -150 l 215 -78 m 957 -87 q 983 -76 965 -76 q 1006 -83 994 -76 q 1017 -104 1017 -90 l 997 -104 l 993 -96 q 985 -92 989 -92 q 974 -97 979 -92 q 969 -112 969 -103 q 983 -135 969 -135 q 996 -124 996 -135 l 1017 -124 q 1007 -143 1014 -135 q 983 -151 1000 -151 q 960 -144 971 -151 q 950 -115 950 -136 q 957 -87 950 -104 m 772 -87 q 799 -76 781 -76 q 822 -85 811 -76 q 832 -104 832 -93 l 811 -104 q 809 -97 811 -101 q 800 -92 807 -92 q 788 -98 793 -92 q 783 -112 783 -104 q 784 -119 783 -117 q 785 -125 785 -122 l 790 -132 q 799 -135 793 -135 q 806 -133 801 -135 q 811 -124 811 -131 l 829 -124 q 820 -144 829 -136 q 799 -151 811 -151 q 775 -143 785 -151 q 765 -115 765 -135 q 772 -87 765 -104 m 468 88 q 465 85 465 88 l 465 76 l 478 76 l 478 63 l 465 63 l 465 -1 l 444 -1 l 444 63 l 435 63 l 435 76 l 444 76 l 444 82 q 468 104 444 104 l 478 104 l 478 88 l 468 88 m 715 76 l 729 76 l 729 63 l 715 63 l 715 -1 l 694 -1 l 694 63 l 685 63 l 685 76 l 694 76 l 694 82 q 718 104 694 104 l 726 104 l 726 88 l 718 88 q 715 85 717 88 l 715 76 m 1119 -1 l 1107 -1 q 1093 1 1101 -1 q 1085 15 1085 3 l 1085 63 l 1075 63 l 1075 76 l 1085 76 l 1085 96 l 1107 96 l 1107 76 l 1119 76 l 1119 63 l 1107 63 l 1107 15 q 1110 15 1108 15 q 1114 14 1111 14 l 1119 15 l 1119 -1 m 378 96 l 378 76 l 389 76 l 389 63 l 378 63 l 378 21 q 378 15 378 17 q 386 14 379 14 l 388 15 l 389 -1 l 378 -1 q 364 0 371 -1 q 357 15 357 1 l 357 63 l 346 63 l 346 76 l 357 76 l 357 96 l 378 96 m 640 606 q 638 607 638 606 l 638 615 q 644 629 640 625 l 654 644 l 678 674 q 684 680 681 676 q 690 686 688 683 l 703 694 q 710 696 706 696 q 714 689 714 696 q 711 682 714 688 l 704 669 l 686 642 l 661 615 q 656 611 658 613 q 651 608 653 608 q 646 606 649 607 l 640 606 m 865 664 l 871 671 l 881 686 l 911 725 l 926 739 q 932 741 928 740 q 938 742 936 742 l 942 739 q 942 737 942 738 q 943 735 943 736 q 939 725 943 729 l 919 694 l 908 685 l 890 667 l 875 654 q 869 651 872 654 q 863 649 865 649 l 861 650 l 860 650 q 858 653 858 651 q 860 654 860 653 q 861 657 860 656 l 865 664 m 951 -1 l 938 -1 q 919 7 921 -1 l 919 63 l 907 63 l 907 76 l 919 76 l 919 96 l 938 96 l 938 76 l 951 76 l 951 63 l 938 63 l 938 21 q 946 14 938 14 l 951 15 l 951 -1 m 669 479 q 672 472 669 475 q 675 457 675 468 q 672 437 675 447 q 653 426 668 426 q 636 435 638 426 l 632 443 q 629 457 629 451 q 630 463 629 460 q 631 468 631 465 l 639 483 q 644 487 640 485 q 654 489 649 489 q 656 488 654 488 l 658 488 l 669 479 m 654 -92 l 643 -92 l 643 -78 l 654 -78 l 654 -72 q 675 -53 654 -53 l 683 -53 l 683 -68 l 675 -68 q 674 -69 674 -69 l 672 -78 l 685 -78 l 685 -92 l 672 -92 l 672 -150 l 654 -150 l 654 -92 m 379 -92 l 369 -92 l 369 -78 l 379 -78 l 379 -60 l 399 -60 l 399 -78 l 410 -78 l 410 -92 l 399 -92 l 399 -129 q 399 -134 399 -132 q 406 -136 399 -136 l 410 -135 l 410 -150 l 399 -150 q 379 -135 379 -150 l 379 -92 m 597 -1 l 578 -1 l 578 104 l 597 104 l 597 -1 m 632 -1 l 613 -1 l 613 104 l 632 104 l 632 -1 m 572 489 l 503 489 l 503 486 l 506 486 q 517 476 517 486 l 517 438 q 506 426 517 426 l 503 425 l 572 425 l 572 451 l 561 433 q 556 429 557 429 l 549 428 q 540 426 546 426 l 531 426 l 532 454 q 544 450 538 454 l 547 446 q 548 444 547 444 q 549 442 549 443 l 549 436 l 549 476 l 546 464 q 533 457 539 457 l 531 457 l 531 486 l 542 486 q 557 485 553 486 l 563 481 l 569 464 l 572 464 l 572 489 m 126 -78 l 143 -78 l 144 -90 l 149 -83 q 152 -78 151 -81 q 164 -76 153 -76 l 168 -76 l 168 -96 l 163 -96 q 144 -112 144 -96 l 144 -150 l 126 -150 l 126 -78 m 788 489 l 756 489 l 756 486 l 761 486 l 765 482 q 771 469 771 476 l 771 443 l 726 489 l 701 489 l 701 486 q 712 483 710 486 q 714 476 714 481 l 714 440 q 713 433 714 436 l 708 428 q 703 427 706 428 q 700 426 701 426 l 700 425 l 733 426 q 726 428 729 426 l 721 428 l 718 435 q 717 443 717 436 l 717 481 l 771 425 l 774 425 l 774 469 q 775 481 774 476 q 788 486 776 486 l 788 489 m 492 454 q 483 460 490 457 l 472 464 l 464 465 q 451 469 461 465 q 443 476 440 472 l 443 482 q 445 485 443 481 q 458 489 447 489 q 478 483 474 489 q 490 467 483 476 l 492 467 l 490 488 q 485 483 489 483 l 479 483 q 458 490 468 490 q 444 488 453 490 l 436 482 q 434 477 435 479 q 433 471 433 475 q 435 464 433 468 q 440 460 438 460 l 449 456 q 463 451 450 454 l 468 450 q 479 447 471 449 q 488 436 488 444 q 485 431 488 435 q 479 426 483 428 l 472 426 q 461 428 465 426 l 450 432 l 443 439 q 436 453 436 446 l 435 453 l 436 424 q 439 428 436 426 q 444 431 442 431 q 448 429 446 431 q 453 428 450 428 l 463 425 q 472 424 465 424 q 485 428 482 424 q 496 436 489 433 l 496 450 l 492 454 m 789 22 q 793 38 793 26 q 789 54 793 47 q 775 61 785 61 q 756 38 756 61 q 761 19 756 24 q 775 15 767 15 q 789 22 786 15 m 178 -78 l 197 -78 l 197 -150 l 178 -150 l 178 -78 m 938 483 q 940 485 938 483 q 944 486 942 485 l 944 489 l 913 489 l 913 486 l 917 486 q 926 481 926 486 q 922 474 926 478 l 910 456 l 893 476 q 890 482 890 482 l 890 483 q 896 486 890 486 l 901 486 l 901 489 l 860 489 l 861 486 q 869 485 865 486 q 876 478 874 485 l 896 451 l 896 438 q 885 426 896 426 l 881 425 l 926 425 l 921 426 q 910 438 910 426 l 910 453 l 929 481 q 936 483 935 483 l 938 483 m 864 453 l 863 453 q 858 446 860 450 q 856 439 856 442 l 853 435 q 846 428 849 431 q 835 426 843 426 l 818 426 l 818 476 q 831 486 818 486 l 835 486 l 835 489 l 792 489 l 792 486 l 794 486 q 806 476 806 486 l 806 438 q 794 426 806 426 l 792 425 l 864 425 l 864 453 m 1074 -99 q 1061 -92 1071 -92 q 1047 -99 1050 -92 q 1043 -114 1043 -106 q 1047 -128 1043 -122 q 1061 -135 1050 -135 q 1075 -128 1072 -135 q 1078 -114 1078 -121 q 1074 -99 1078 -106 m 401 590 q 393 589 397 589 q 385 590 386 589 l 394 606 l 411 625 l 425 638 l 433 640 q 435 641 435 640 q 439 642 436 642 q 441 641 440 642 q 443 640 442 640 l 443 633 l 439 628 q 431 615 433 622 q 417 601 428 607 l 401 590 m 518 -129 q 529 -135 522 -135 q 544 -114 544 -135 q 542 -99 544 -107 q 529 -92 539 -92 q 513 -115 513 -92 q 518 -129 513 -125 m 406 431 q 411 443 411 435 q 404 432 408 436 l 396 426 l 386 426 q 372 428 379 426 q 364 443 364 431 l 364 476 q 368 485 364 483 q 376 486 372 486 l 381 486 l 381 489 l 338 489 l 338 486 q 351 476 351 486 l 351 443 q 358 428 351 438 l 369 425 q 382 424 372 424 q 406 431 399 424 m 314 -124 q 319 -131 314 -129 q 326 -133 324 -133 q 343 -114 343 -133 q 338 -99 343 -107 q 326 -92 333 -92 q 313 -114 313 -92 q 314 -124 313 -119 m 572 626 q 573 622 572 624 q 574 619 574 621 q 572 614 572 617 l 572 606 l 569 600 l 558 589 q 551 587 556 589 q 544 585 547 585 q 538 589 539 585 l 538 594 l 544 607 q 557 619 550 614 l 572 626 m 1018 21 q 1022 14 1018 15 q 1028 13 1025 13 l 1036 14 q 1046 28 1046 18 l 1046 38 q 1038 33 1042 33 l 1028 31 q 1018 21 1018 31 m 917 -129 l 938 -129 l 938 -150 l 917 -150 l 917 -129 m 85 -118 l 78 -119 q 65 -129 65 -122 q 69 -135 65 -132 q 75 -139 72 -139 q 78 -138 76 -139 q 89 -132 81 -137 q 92 -124 92 -126 l 92 -115 q 85 -118 90 -115 m 321 46 q 315 57 318 51 q 306 63 313 63 q 290 46 290 63 l 321 46 m 728 -118 l 718 -119 q 710 -129 710 -119 q 718 -139 710 -139 q 722 -136 721 -139 l 732 -132 q 733 -124 733 -129 l 733 -115 q 728 -118 733 -115 m 886 -107 q 883 -97 886 -101 q 871 -92 879 -92 q 857 -107 860 -92 l 886 -107 m 619 -107 q 616 -97 619 -101 q 604 -92 613 -92 q 590 -107 593 -92 l 619 -107 m 178 -53 l 197 -53 l 197 -69 l 178 -69 l 178 -53 m 1068 799 q 1063 792 1065 793 l 1082 817 l 1090 832 l 1108 856 q 1110 858 1108 857 q 1114 861 1113 860 q 1113 854 1114 856 l 1107 847 l 1099 835 l 1075 807 l 1068 799 m 425 489 l 393 489 l 393 486 l 400 486 q 408 481 406 486 q 411 469 411 475 l 411 479 l 418 485 q 419 486 418 485 l 425 486 l 425 489 z "},"9":{"ha":1260,"x_min":47,"x_max":1211,"o":"m 85 718 l 267 758 l 260 783 l 288 792 l 282 818 l 310 824 l 306 856 l 333 856 l 333 883 l 358 883 l 361 908 l 388 904 l 393 932 l 422 928 l 429 954 l 456 947 l 467 972 l 493 961 l 508 988 l 532 975 l 547 999 l 572 982 l 589 1004 l 613 986 l 631 1006 l 649 989 l 667 1004 l 685 985 l 708 1000 l 724 975 l 750 989 l 763 965 l 788 976 l 799 949 l 828 957 l 836 931 l 863 938 l 868 908 l 897 911 l 899 893 l 1172 953 l 1172 617 l 1047 589 l 1050 588 l 1033 569 l 1050 550 l 1028 532 l 1043 508 l 1018 493 l 1033 468 l 1010 454 l 1019 429 l 993 418 l 1001 389 l 976 381 l 981 354 l 954 349 l 954 319 l 928 317 l 928 290 l 904 290 l 900 267 l 874 267 l 868 242 l 839 246 l 832 218 l 806 226 l 796 200 l 767 211 l 754 185 l 729 199 l 714 175 l 689 190 l 672 168 l 651 186 l 631 168 l 613 185 l 594 168 l 578 189 l 554 174 l 538 199 l 513 185 l 500 208 l 474 197 l 461 225 l 435 217 l 426 242 l 399 236 l 393 265 l 364 263 l 361 290 l 333 290 l 333 314 l 310 317 l 313 344 l 285 349 l 290 378 l 263 386 l 271 411 l 251 419 l 85 383 l 85 718 m 826 647 l 842 663 q 840 658 840 661 q 844 647 840 651 q 854 642 847 642 q 881 653 865 642 l 894 663 q 899 667 897 665 q 904 672 901 669 l 913 681 l 913 678 q 912 676 913 676 q 911 674 911 675 l 911 669 q 910 665 910 668 q 912 658 910 663 q 917 654 914 654 l 928 654 l 932 657 l 946 665 l 979 694 l 976 686 q 974 674 974 682 l 974 669 q 976 668 976 669 q 981 667 976 667 q 988 669 982 667 q 994 674 993 671 l 1010 686 q 1018 692 1013 686 q 1029 704 1024 699 l 1042 718 l 1042 721 q 1040 722 1042 722 q 1035 719 1038 722 l 1033 717 l 1018 699 q 1010 690 1011 694 l 1000 682 l 989 676 q 988 675 989 676 q 985 676 986 675 l 992 686 q 997 694 994 692 l 1001 703 q 1007 710 1004 704 l 1050 772 q 1058 783 1057 779 l 1094 824 q 1106 838 1101 831 q 1117 851 1111 844 l 1124 864 l 1124 869 q 1118 871 1122 871 q 1108 868 1115 871 q 1096 860 1101 865 l 1090 856 l 1064 831 q 1053 818 1057 824 q 1042 801 1049 813 l 1006 743 l 988 710 l 976 700 q 971 693 974 696 q 964 686 968 690 l 951 675 l 940 667 q 938 665 940 667 l 935 663 l 928 663 l 936 676 q 942 687 936 679 q 950 697 947 694 l 961 717 l 976 739 l 982 747 q 983 750 979 747 q 988 754 988 753 q 983 758 988 758 l 969 751 l 947 735 q 933 747 947 747 q 923 745 929 747 q 913 740 917 743 l 896 732 l 883 721 q 858 696 868 710 q 844 669 849 682 l 842 669 l 831 657 q 816 644 824 651 q 800 638 808 638 l 799 638 q 797 639 797 638 l 799 640 l 807 653 l 829 681 q 835 690 832 685 q 842 700 839 694 l 847 711 q 849 718 849 714 q 843 729 849 729 q 838 728 839 729 l 821 719 l 807 708 q 799 703 801 703 l 785 688 q 778 681 782 685 q 772 675 775 678 l 758 660 l 760 663 l 794 711 q 797 715 794 713 q 799 721 799 718 l 794 725 q 792 726 793 725 q 790 726 792 726 q 788 726 789 726 q 783 725 786 725 l 774 718 q 771 715 771 717 q 769 713 771 714 l 714 618 q 713 615 713 617 l 713 614 q 715 613 714 614 q 717 613 715 613 q 722 614 719 613 l 728 617 q 733 622 728 622 l 736 626 q 739 629 736 629 l 764 658 l 790 686 l 817 711 l 832 719 q 833 718 833 719 l 829 715 q 824 710 828 711 l 813 696 q 808 691 810 693 q 804 686 807 689 l 785 657 l 781 644 q 779 638 779 642 q 786 629 779 629 l 799 629 q 805 633 801 631 q 814 638 808 635 l 826 647 m 551 581 q 576 591 564 581 q 594 608 588 601 l 600 621 q 604 633 604 626 l 604 644 q 601 654 604 649 l 597 665 l 593 669 q 591 674 593 672 q 589 678 589 676 l 589 685 l 583 685 q 581 682 581 682 l 572 676 l 568 667 l 543 632 l 536 621 l 535 619 q 532 618 533 619 l 525 607 l 500 581 l 492 576 q 483 574 489 574 l 483 575 l 493 589 l 503 601 l 515 621 l 518 631 q 519 640 519 635 q 518 646 518 642 l 517 649 q 515 653 517 651 l 515 668 l 519 675 l 519 678 q 517 682 519 679 q 513 685 515 685 q 495 678 506 685 q 485 663 485 672 q 486 654 485 657 l 489 653 q 492 650 489 653 l 483 642 l 454 606 q 451 603 451 606 l 450 600 q 449 599 450 599 l 442 589 q 421 572 431 579 q 400 558 411 564 l 386 553 q 378 550 381 550 q 368 558 368 550 q 371 565 368 560 l 379 582 q 388 581 382 581 l 400 581 q 415 588 407 583 q 435 599 422 592 l 444 610 q 449 615 447 613 q 451 621 451 618 l 457 629 q 449 646 457 640 l 436 646 q 430 646 433 646 q 424 643 426 646 l 410 638 q 369 609 388 626 q 346 568 351 592 l 346 557 q 364 543 350 543 q 396 551 378 543 q 429 574 414 558 l 456 597 q 458 601 456 599 q 460 604 460 603 l 463 608 l 483 633 q 490 640 488 636 q 496 647 493 644 l 503 642 q 504 639 503 640 l 504 638 q 503 635 504 636 q 500 631 501 633 l 489 619 l 471 593 l 468 581 q 467 575 467 579 l 469 565 l 475 565 q 486 567 482 565 l 497 574 q 510 586 503 579 q 524 597 517 593 l 535 613 l 540 619 q 543 622 543 622 l 565 654 q 567 642 565 647 q 569 635 569 638 l 572 629 q 556 621 561 626 l 542 611 q 535 599 538 604 q 532 588 532 594 q 539 581 532 583 l 551 581 m 621 611 q 624 606 621 606 l 631 600 q 633 599 632 600 q 636 599 635 599 l 638 600 l 646 600 q 656 603 651 601 q 664 606 660 604 l 682 615 l 710 640 l 719 654 l 731 678 q 731 681 731 679 q 732 683 732 682 q 731 691 732 681 q 710 701 729 701 q 701 700 706 701 q 689 696 696 699 l 681 693 l 649 669 l 629 644 q 621 626 622 633 l 621 611 m 174 11 q 163 29 165 18 q 160 51 160 40 l 160 63 q 176 94 160 82 q 210 106 192 106 l 214 106 q 246 92 233 106 q 256 72 258 79 l 233 72 q 225 83 232 79 q 211 88 218 88 l 201 88 l 192 79 q 183 68 185 76 q 182 50 182 60 q 207 15 182 15 l 210 15 q 227 21 218 15 q 236 38 236 26 l 211 38 l 211 56 l 256 56 l 256 -1 l 242 -1 l 239 13 q 204 -4 228 -4 q 187 0 196 -4 q 174 11 178 4 m 296 -96 q 322 -76 304 -76 q 335 -79 329 -76 q 343 -89 340 -82 l 344 -78 l 361 -78 l 361 -146 q 354 -169 361 -160 q 325 -178 347 -178 q 304 -173 313 -178 q 296 -157 296 -168 l 314 -157 l 318 -162 q 326 -164 319 -164 q 342 -158 342 -164 q 343 -153 343 -151 l 343 -140 q 324 -150 335 -150 q 303 -143 314 -150 q 292 -112 292 -136 q 293 -104 292 -108 q 296 -96 294 -100 m 803 68 q 814 38 814 57 q 806 12 814 26 q 775 -3 799 -3 q 745 8 756 -3 q 735 38 735 19 q 735 47 735 40 q 740 61 736 54 q 752 73 744 68 q 775 78 760 78 q 791 76 782 78 q 803 68 800 74 m 496 -78 l 513 -78 l 513 -89 l 515 -89 q 518 -87 517 -89 l 529 -78 q 535 -76 531 -76 q 554 -85 543 -76 q 565 -114 565 -93 q 556 -140 565 -129 q 535 -151 546 -151 q 525 -150 528 -151 l 519 -146 q 516 -144 518 -144 q 514 -142 514 -144 l 514 -176 l 496 -176 l 496 -78 m 1110 -78 l 1128 -78 l 1128 -89 q 1149 -76 1133 -76 q 1168 -87 1161 -76 q 1186 -76 1172 -76 q 1211 -101 1211 -76 l 1211 -150 l 1193 -150 l 1193 -107 q 1182 -92 1193 -92 q 1169 -107 1169 -92 l 1169 -150 l 1151 -150 l 1151 -100 q 1147 -94 1151 -96 q 1139 -92 1143 -92 q 1128 -107 1128 -92 l 1128 -150 l 1110 -150 l 1110 -78 m 1026 -100 q 1061 -76 1035 -76 q 1084 -84 1072 -76 q 1096 -114 1096 -92 q 1088 -140 1096 -129 q 1061 -151 1081 -151 q 1025 -114 1025 -151 q 1026 -100 1025 -106 m 172 479 l 179 486 l 192 500 q 197 508 194 506 l 240 567 l 267 608 q 274 619 271 614 q 281 629 278 624 l 292 651 q 292 653 292 653 q 293 654 293 653 q 289 657 293 657 q 282 656 283 657 l 276 653 l 254 625 q 244 613 250 621 l 233 599 l 178 517 l 160 483 l 160 476 l 167 476 l 172 479 m 1033 -1 q 1027 -2 1029 -1 q 1022 -3 1025 -3 q 1008 1 1017 -3 q 999 21 999 4 q 1006 38 999 33 q 1021 44 1013 42 l 1039 47 q 1046 53 1046 47 q 1033 63 1046 63 q 1019 50 1021 63 l 1001 50 q 1007 69 1001 60 q 1025 78 1013 78 l 1033 78 q 1057 74 1049 78 q 1065 56 1065 69 l 1065 7 q 1071 3 1065 3 l 1071 -1 l 1049 -1 q 1047 0 1047 -1 l 1047 1 l 1047 3 q 1047 6 1047 6 q 1046 8 1046 7 l 1040 3 q 1038 1 1039 1 q 1036 0 1038 1 q 1033 -1 1035 -1 m 340 31 l 288 31 q 292 19 288 25 q 306 14 296 14 q 316 17 313 14 q 319 22 319 19 l 340 22 l 333 8 l 322 0 q 314 -2 317 -1 q 306 -3 311 -3 q 268 39 268 -3 q 279 69 268 61 q 306 78 290 78 q 333 65 326 78 q 340 36 340 51 l 340 31 m 686 440 q 690 457 690 446 q 681 479 690 468 q 653 490 671 490 q 624 479 633 490 q 614 457 614 468 q 628 431 614 438 q 653 424 643 424 q 673 428 667 424 q 686 440 679 433 m 188 614 q 186 607 186 611 q 194 594 186 600 l 207 590 q 218 591 210 590 q 226 596 226 592 q 225 597 226 597 l 222 597 q 217 596 219 597 q 213 594 215 594 q 192 610 192 594 q 193 618 192 614 q 227 649 201 633 q 276 675 253 665 l 296 678 q 314 681 307 681 q 326 678 317 681 q 339 674 336 676 l 346 665 l 346 654 q 344 640 346 646 l 338 628 q 323 608 331 618 q 300 588 315 597 l 285 578 l 258 567 q 255 566 257 567 q 250 565 253 565 l 247 565 q 242 564 246 565 q 239 560 239 563 q 240 558 239 558 l 243 558 q 247 560 246 558 l 268 565 l 304 581 l 338 603 l 363 629 q 372 649 369 640 q 375 663 375 657 q 374 665 375 664 q 374 668 374 665 l 369 678 l 360 685 q 331 689 344 689 q 260 673 299 689 q 193 628 222 657 l 188 614 m 697 -115 q 711 -108 704 -108 l 728 -106 q 733 -101 733 -106 q 724 -90 733 -90 q 715 -94 718 -90 q 711 -101 711 -99 l 693 -101 q 706 -80 693 -83 q 724 -76 718 -76 q 753 -97 753 -76 l 753 -135 q 753 -143 753 -142 q 757 -147 754 -144 l 757 -150 l 736 -149 q 735 -147 736 -147 q 735 -146 735 -147 l 735 -142 q 723 -149 725 -146 q 713 -151 721 -151 q 703 -150 707 -151 l 693 -143 q 690 -131 690 -137 q 697 -115 690 -119 m 53 -115 q 67 -108 60 -108 l 85 -106 q 92 -101 92 -106 q 81 -90 92 -90 q 70 -94 74 -90 q 67 -101 67 -99 l 50 -101 q 60 -81 50 -85 q 81 -76 71 -76 q 104 -83 100 -76 q 108 -97 108 -90 l 108 -135 q 109 -143 108 -142 q 113 -147 110 -144 l 113 -150 l 93 -150 l 93 -146 q 92 -142 92 -144 l 86 -147 q 77 -151 81 -150 q 71 -151 74 -151 q 55 -147 63 -151 q 47 -131 47 -143 q 53 -115 47 -119 m 575 -96 q 604 -76 583 -76 q 639 -115 639 -76 l 639 -119 l 590 -119 q 606 -136 590 -136 q 615 -133 610 -136 l 619 -128 l 638 -128 q 626 -147 635 -143 q 606 -151 618 -151 q 572 -112 572 -151 q 575 -96 572 -101 m 842 -96 q 872 -76 850 -76 q 898 -88 890 -76 q 906 -115 906 -100 l 906 -119 l 857 -119 q 872 -136 857 -136 q 882 -133 876 -136 l 886 -128 l 904 -128 q 872 -151 897 -151 q 839 -112 839 -151 q 842 -96 839 -107 m 894 67 q 897 53 897 58 l 897 -1 l 878 -1 l 878 46 q 864 61 878 61 q 849 43 849 61 l 849 -1 l 828 -1 l 828 76 l 847 76 l 847 65 q 871 78 856 78 q 885 75 881 78 l 894 67 m 540 10 q 528 0 535 3 q 517 -3 521 -3 q 490 25 490 -3 l 490 76 l 510 76 l 510 29 q 524 15 510 15 l 531 15 l 538 22 q 539 26 538 24 q 540 31 540 28 l 540 76 l 558 76 l 558 -1 l 540 -1 l 540 10 m 415 -83 l 414 -78 l 436 -78 l 450 -131 l 464 -78 l 485 -78 l 460 -149 l 450 -172 q 433 -178 444 -178 l 424 -178 l 424 -162 l 435 -162 q 439 -160 436 -162 l 439 -157 q 440 -153 440 -156 l 415 -83 m 215 -78 l 232 -78 l 232 -89 q 254 -76 240 -76 q 271 -81 263 -76 q 279 -101 279 -86 l 279 -150 l 260 -150 l 260 -107 q 258 -96 260 -100 q 247 -92 256 -92 q 236 -97 239 -92 q 233 -108 233 -103 l 233 -150 l 215 -150 l 215 -78 m 957 -87 q 983 -76 965 -76 q 1006 -83 994 -76 q 1017 -104 1017 -90 l 997 -104 l 993 -96 q 985 -92 989 -92 q 974 -97 979 -92 q 969 -112 969 -103 q 983 -135 969 -135 q 996 -124 996 -135 l 1017 -124 q 1007 -143 1014 -135 q 983 -151 1000 -151 q 960 -144 971 -151 q 950 -115 950 -136 q 957 -87 950 -104 m 772 -87 q 799 -76 781 -76 q 822 -85 811 -76 q 832 -104 832 -93 l 811 -104 q 809 -97 811 -101 q 800 -92 807 -92 q 788 -98 793 -92 q 783 -112 783 -104 q 784 -119 783 -117 q 785 -125 785 -122 l 790 -132 q 799 -135 793 -135 q 806 -133 801 -135 q 811 -124 811 -131 l 829 -124 q 820 -144 829 -136 q 799 -151 811 -151 q 775 -143 785 -151 q 765 -115 765 -135 q 772 -87 765 -104 m 468 88 q 465 85 465 88 l 465 76 l 478 76 l 478 63 l 465 63 l 465 -1 l 444 -1 l 444 63 l 435 63 l 435 76 l 444 76 l 444 82 q 468 104 444 104 l 478 104 l 478 88 l 468 88 m 715 76 l 729 76 l 729 63 l 715 63 l 715 -1 l 694 -1 l 694 63 l 685 63 l 685 76 l 694 76 l 694 82 q 718 104 694 104 l 726 104 l 726 88 l 718 88 q 715 85 717 88 l 715 76 m 1119 -1 l 1107 -1 q 1093 1 1101 -1 q 1085 15 1085 3 l 1085 63 l 1075 63 l 1075 76 l 1085 76 l 1085 96 l 1107 96 l 1107 76 l 1119 76 l 1119 63 l 1107 63 l 1107 15 q 1110 15 1108 15 q 1114 14 1111 14 l 1119 15 l 1119 -1 m 378 96 l 378 76 l 389 76 l 389 63 l 378 63 l 378 21 q 378 15 378 17 q 386 14 379 14 l 388 15 l 389 -1 l 378 -1 q 364 0 371 -1 q 357 15 357 1 l 357 63 l 346 63 l 346 76 l 357 76 l 357 96 l 378 96 m 640 606 q 638 607 638 606 l 638 615 q 644 629 640 625 l 654 644 l 678 674 q 684 680 681 676 q 690 686 688 683 l 703 694 q 710 696 706 696 q 714 689 714 696 q 711 682 714 688 l 704 669 l 686 642 l 661 615 q 656 611 658 613 q 651 608 653 608 q 646 606 649 607 l 640 606 m 865 664 l 871 671 l 881 686 l 911 725 l 926 739 q 932 741 928 740 q 938 742 936 742 l 942 739 q 942 737 942 738 q 943 735 943 736 q 939 725 943 729 l 919 694 l 908 685 l 890 667 l 875 654 q 869 651 872 654 q 863 649 865 649 l 861 650 l 860 650 q 858 653 858 651 q 860 654 860 653 q 861 657 860 656 l 865 664 m 951 -1 l 938 -1 q 919 7 921 -1 l 919 63 l 907 63 l 907 76 l 919 76 l 919 96 l 938 96 l 938 76 l 951 76 l 951 63 l 938 63 l 938 21 q 946 14 938 14 l 951 15 l 951 -1 m 669 479 q 672 472 669 475 q 675 457 675 468 q 672 437 675 447 q 653 426 668 426 q 636 435 638 426 l 632 443 q 629 457 629 451 q 630 463 629 460 q 631 468 631 465 l 639 483 q 644 487 640 485 q 654 489 649 489 q 656 488 654 488 l 658 488 l 669 479 m 654 -92 l 643 -92 l 643 -78 l 654 -78 l 654 -72 q 675 -53 654 -53 l 683 -53 l 683 -68 l 675 -68 q 674 -69 674 -69 l 672 -78 l 685 -78 l 685 -92 l 672 -92 l 672 -150 l 654 -150 l 654 -92 m 379 -92 l 369 -92 l 369 -78 l 379 -78 l 379 -60 l 399 -60 l 399 -78 l 410 -78 l 410 -92 l 399 -92 l 399 -129 q 399 -134 399 -132 q 406 -136 399 -136 l 410 -135 l 410 -150 l 399 -150 q 379 -135 379 -150 l 379 -92 m 597 -1 l 578 -1 l 578 104 l 597 104 l 597 -1 m 632 -1 l 613 -1 l 613 104 l 632 104 l 632 -1 m 572 489 l 503 489 l 503 486 l 506 486 q 517 476 517 486 l 517 438 q 506 426 517 426 l 503 425 l 572 425 l 572 451 l 561 433 q 556 429 557 429 l 549 428 q 540 426 546 426 l 531 426 l 532 454 q 544 450 538 454 l 547 446 q 548 444 547 444 q 549 442 549 443 l 549 436 l 549 476 l 546 464 q 533 457 539 457 l 531 457 l 531 486 l 542 486 q 557 485 553 486 l 563 481 l 569 464 l 572 464 l 572 489 m 126 -78 l 143 -78 l 144 -90 l 149 -83 q 152 -78 151 -81 q 164 -76 153 -76 l 168 -76 l 168 -96 l 163 -96 q 144 -112 144 -96 l 144 -150 l 126 -150 l 126 -78 m 788 489 l 756 489 l 756 486 l 761 486 l 765 482 q 771 469 771 476 l 771 443 l 726 489 l 701 489 l 701 486 q 712 483 710 486 q 714 476 714 481 l 714 440 q 713 433 714 436 l 708 428 q 703 427 706 428 q 700 426 701 426 l 700 425 l 733 426 q 726 428 729 426 l 721 428 l 718 435 q 717 443 717 436 l 717 481 l 771 425 l 774 425 l 774 469 q 775 481 774 476 q 788 486 776 486 l 788 489 m 492 454 q 483 460 490 457 l 472 464 l 464 465 q 451 469 461 465 q 443 476 440 472 l 443 482 q 445 485 443 481 q 458 489 447 489 q 478 483 474 489 q 490 467 483 476 l 492 467 l 490 488 q 485 483 489 483 l 479 483 q 458 490 468 490 q 444 488 453 490 l 436 482 q 434 477 435 479 q 433 471 433 475 q 435 464 433 468 q 440 460 438 460 l 449 456 q 463 451 450 454 l 468 450 q 479 447 471 449 q 488 436 488 444 q 485 431 488 435 q 479 426 483 428 l 472 426 q 461 428 465 426 l 450 432 l 443 439 q 436 453 436 446 l 435 453 l 436 424 q 439 428 436 426 q 444 431 442 431 q 448 429 446 431 q 453 428 450 428 l 463 425 q 472 424 465 424 q 485 428 482 424 q 496 436 489 433 l 496 450 l 492 454 m 789 22 q 793 38 793 26 q 789 54 793 47 q 775 61 785 61 q 756 38 756 61 q 761 19 756 24 q 775 15 767 15 q 789 22 786 15 m 178 -78 l 197 -78 l 197 -150 l 178 -150 l 178 -78 m 938 483 q 940 485 938 483 q 944 486 942 485 l 944 489 l 913 489 l 913 486 l 917 486 q 926 481 926 486 q 922 474 926 478 l 910 456 l 893 476 q 890 482 890 482 l 890 483 q 896 486 890 486 l 901 486 l 901 489 l 860 489 l 861 486 q 869 485 865 486 q 876 478 874 485 l 896 451 l 896 438 q 885 426 896 426 l 881 425 l 926 425 l 921 426 q 910 438 910 426 l 910 453 l 929 481 q 936 483 935 483 l 938 483 m 864 453 l 863 453 q 858 446 860 450 q 856 439 856 442 l 853 435 q 846 428 849 431 q 835 426 843 426 l 818 426 l 818 476 q 831 486 818 486 l 835 486 l 835 489 l 792 489 l 792 486 l 794 486 q 806 476 806 486 l 806 438 q 794 426 806 426 l 792 425 l 864 425 l 864 453 m 1074 -99 q 1061 -92 1071 -92 q 1047 -99 1050 -92 q 1043 -114 1043 -106 q 1047 -128 1043 -122 q 1061 -135 1050 -135 q 1075 -128 1072 -135 q 1078 -114 1078 -121 q 1074 -99 1078 -106 m 401 590 q 393 589 397 589 q 385 590 386 589 l 394 606 l 411 625 l 425 638 l 433 640 q 435 641 435 640 q 439 642 436 642 q 441 641 440 642 q 443 640 442 640 l 443 633 l 439 628 q 431 615 433 622 q 417 601 428 607 l 401 590 m 518 -129 q 529 -135 522 -135 q 544 -114 544 -135 q 542 -99 544 -107 q 529 -92 539 -92 q 513 -115 513 -92 q 518 -129 513 -125 m 406 431 q 411 443 411 435 q 404 432 408 436 l 396 426 l 386 426 q 372 428 379 426 q 364 443 364 431 l 364 476 q 368 485 364 483 q 376 486 372 486 l 381 486 l 381 489 l 338 489 l 338 486 q 351 476 351 486 l 351 443 q 358 428 351 438 l 369 425 q 382 424 372 424 q 406 431 399 424 m 314 -124 q 319 -131 314 -129 q 326 -133 324 -133 q 343 -114 343 -133 q 338 -99 343 -107 q 326 -92 333 -92 q 313 -114 313 -92 q 314 -124 313 -119 m 572 626 q 573 622 572 624 q 574 619 574 621 q 572 614 572 617 l 572 606 l 569 600 l 558 589 q 551 587 556 589 q 544 585 547 585 q 538 589 539 585 l 538 594 l 544 607 q 557 619 550 614 l 572 626 m 1018 21 q 1022 14 1018 15 q 1028 13 1025 13 l 1036 14 q 1046 28 1046 18 l 1046 38 q 1038 33 1042 33 l 1028 31 q 1018 21 1018 31 m 917 -129 l 938 -129 l 938 -150 l 917 -150 l 917 -129 m 85 -118 l 78 -119 q 65 -129 65 -122 q 69 -135 65 -132 q 75 -139 72 -139 q 78 -138 76 -139 q 89 -132 81 -137 q 92 -124 92 -126 l 92 -115 q 85 -118 90 -115 m 321 46 q 315 57 318 51 q 306 63 313 63 q 290 46 290 63 l 321 46 m 728 -118 l 718 -119 q 710 -129 710 -119 q 718 -139 710 -139 q 722 -136 721 -139 l 732 -132 q 733 -124 733 -129 l 733 -115 q 728 -118 733 -115 m 886 -107 q 883 -97 886 -101 q 871 -92 879 -92 q 857 -107 860 -92 l 886 -107 m 619 -107 q 616 -97 619 -101 q 604 -92 613 -92 q 590 -107 593 -92 l 619 -107 m 178 -53 l 197 -53 l 197 -69 l 178 -69 l 178 -53 m 1068 799 q 1063 792 1065 793 l 1082 817 l 1090 832 l 1108 856 q 1110 858 1108 857 q 1114 861 1113 860 q 1113 854 1114 856 l 1107 847 l 1099 835 l 1075 807 l 1068 799 m 425 489 l 393 489 l 393 486 l 400 486 q 408 481 406 486 q 411 469 411 475 l 411 479 l 418 485 q 419 486 418 485 l 425 486 l 425 489 z "}," ":{"ha":368,"x_min":0,"x_max":0,"o":""},"":{"ha":368,"x_min":0,"x_max":0,"o":""},"l":{"ha":457,"x_min":-37,"x_max":1276,"o":"m 328 0 q 251 24 279 0 q 231 50 240 33 q 221 93 221 67 q 256 210 221 142 q 347 356 292 279 q 472 509 403 432 q 607 651 540 586 q 668 712 629 674 q 757 793 707 750 q 863 880 807 836 q 977 960 919 924 q 1090 1018 1035 996 q 1190 1040 1144 1040 q 1245 1026 1229 1040 q 1268 997 1261 1013 q 1251 919 1276 964 q 1151 803 1225 875 q 1038 699 1106 757 q 883 572 971 642 q 738 458 810 513 q 610 361 667 403 q 517 294 553 319 q 482 268 482 268 q 456 263 471 261 q 432 278 440 265 q 425 304 422 289 q 440 328 428 319 q 474 351 440 328 q 561 415 507 375 q 684 507 615 454 q 824 617 753 560 q 1008 767 938 706 q 1118 871 1078 829 q 1175 935 1158 913 q 1196 968 1192 958 l 1190 968 q 1095 942 1153 968 q 967 867 1038 915 q 817 751 897 818 q 657 601 738 683 q 511 446 578 522 q 396 301 444 369 q 320 180 347 233 q 293 93 293 126 q 299 78 293 86 q 306 74 300 76 q 328 72 313 72 q 382 85 347 72 q 456 119 417 99 q 536 163 496 139 q 607 207 576 186 q 632 212 618 215 q 657 197 646 208 q 660 170 664 185 q 646 147 657 156 q 593 113 632 138 q 506 64 554 89 q 410 19 458 39 q 328 0 361 0 m 457 -117 l 0 -117 q -26 -106 -15 -117 q -37 -81 -37 -96 q -26 -54 -37 -65 q 0 -43 -15 -43 l 457 -43 q 482 -54 472 -43 q 492 -81 492 -65 q 482 -106 492 -96 q 457 -117 472 -117 z "},"y":{"ha":494,"x_min":40,"x_max":781,"o":"m 196 -251 q 169 -250 183 -251 q 142 -242 154 -249 q 65 -185 89 -225 q 53 -97 40 -144 q 81 -41 60 -68 q 134 5 101 -14 q 210 32 167 24 q 306 32 253 40 q 330 19 321 31 q 336 -8 339 7 q 322 -33 333 -24 q 296 -39 310 -42 q 223 -38 254 -33 q 170 -55 192 -43 q 137 -82 149 -67 q 122 -111 125 -97 q 164 -174 110 -158 q 210 -179 188 -182 q 256 -158 232 -176 q 309 -103 281 -139 q 375 -11 338 -67 q 423 63 393 15 q 489 168 453 110 q 544 258 515 211 q 603 350 574 304 q 660 439 632 396 q 714 518 689 482 q 737 533 722 529 q 764 528 751 536 q 778 504 775 519 q 774 478 781 489 q 720 399 749 442 q 663 311 692 357 q 604 219 633 265 q 549 131 575 172 q 485 24 514 71 q 436 -51 456 -24 q 379 -130 407 -93 q 322 -194 351 -167 q 262 -236 293 -221 q 196 -251 231 -251 m 278 67 q 228 86 243 67 q 307 293 174 146 q 330 317 319 306 q 349 340 340 329 q 408 406 379 372 q 449 458 438 439 q 424 468 433 458 q 414 493 414 478 q 424 519 414 508 q 449 531 433 531 q 465 530 454 531 q 487 526 475 529 q 508 515 499 522 q 525 493 518 507 q 508 415 540 460 q 404 292 475 371 q 383 269 393 281 q 363 247 372 258 q 306 176 321 201 q 286 139 290 150 q 336 156 301 142 q 424 211 371 171 q 450 218 435 221 q 474 203 465 215 q 481 178 483 192 q 465 153 478 164 q 428 127 450 142 q 380 99 406 113 q 327 76 354 85 q 278 67 300 67 z "},"z":{"ha":514,"x_min":-36,"x_max":718,"o":"m 514 -117 l 0 -117 q -26 -106 -15 -117 q -36 -81 -36 -96 q -26 -54 -36 -65 q 0 -43 -15 -43 l 514 -43 q 539 -54 528 -43 q 550 -81 550 -65 q 539 -106 550 -96 q 514 -117 528 -117 m 183 22 q 157 33 168 22 q 147 60 146 44 q 160 83 149 75 l 485 368 q 511 378 496 379 q 535 367 526 378 q 545 340 546 354 q 533 314 544 325 l 207 31 q 183 22 199 22 m 431 17 l 410 17 q 349 34 365 22 q 328 51 333 46 q 317 77 315 63 q 329 101 319 92 q 354 113 339 111 q 385 103 369 115 q 401 93 392 97 q 431 89 410 89 q 517 110 463 89 q 657 203 571 132 q 683 213 668 214 q 707 200 699 211 q 717 173 718 188 q 704 150 717 158 q 557 49 625 82 q 431 17 489 17 m 464 390 q 424 395 442 390 q 390 407 406 400 q 351 447 363 422 q 347 501 340 471 q 365 524 353 517 q 392 528 376 532 q 413 512 406 525 q 417 486 421 499 q 424 469 415 475 q 460 463 436 463 q 513 469 485 463 q 567 487 540 475 q 613 518 594 499 q 637 530 622 529 q 663 519 651 531 q 674 495 674 510 q 664 469 674 481 q 624 437 647 451 q 574 412 601 422 q 519 396 547 401 q 464 390 490 390 z "},"x":{"ha":642,"x_min":-36,"x_max":847,"o":"m 158 1 q 140 8 149 1 q 124 30 126 15 q 128 58 121 44 q 180 117 147 89 q 254 173 213 146 q 344 226 296 200 q 443 278 393 251 q 547 333 494 304 q 642 390 599 361 q 719 448 686 418 q 769 510 753 478 q 792 528 778 524 q 819 526 806 532 q 836 504 832 519 q 833 478 840 489 q 775 403 813 438 q 690 336 738 368 q 588 274 643 304 q 478 217 533 244 q 388 167 432 192 q 304 119 343 143 q 235 69 265 94 q 190 19 206 44 q 158 1 176 1 m 642 -117 l 0 -117 q -26 -106 -15 -117 q -36 -81 -36 -96 q -26 -54 -36 -65 q 0 -43 -15 -43 l 642 -43 q 667 -54 657 -43 q 678 -81 678 -65 q 667 -106 678 -96 q 642 -117 657 -117 m 528 0 q 513 1 522 0 q 494 4 504 1 q 473 13 483 7 q 457 31 463 19 q 449 81 442 54 q 472 132 457 107 q 485 162 479 147 q 493 190 490 176 q 511 213 499 206 q 539 218 524 221 q 560 202 553 215 q 564 174 568 189 q 552 135 560 154 q 536 100 544 117 l 522 72 l 528 72 q 583 86 550 72 q 649 119 615 100 q 715 158 683 138 q 768 192 747 179 q 780 200 775 197 q 790 207 785 203 q 817 212 803 215 q 840 197 831 208 q 845 170 847 185 q 828 147 843 156 q 819 140 824 143 q 808 132 815 138 q 733 85 771 108 q 658 42 694 61 q 589 12 622 24 q 528 0 556 0 m 460 307 l 453 307 q 429 322 438 310 q 424 349 421 335 q 444 399 431 375 q 472 442 457 422 q 478 451 475 447 q 483 458 481 454 l 472 458 q 447 468 457 458 q 433 493 436 478 q 444 519 433 507 q 469 531 454 531 q 520 526 494 532 q 558 499 546 521 q 560 450 572 475 q 531 401 547 425 q 509 369 519 386 q 497 336 499 351 q 483 315 493 322 q 460 307 472 307 z "},"w":{"ha":742,"x_min":-36,"x_max":1139,"o":"m 531 0 q 485 15 499 0 q 465 39 471 29 q 460 65 461 49 q 467 106 458 81 q 495 169 475 132 q 553 260 515 207 q 655 391 597 322 q 772 519 713 460 q 797 531 782 531 q 822 519 811 531 q 832 495 832 510 q 822 469 832 481 q 714 348 768 411 q 618 226 660 285 q 551 119 567 154 q 533 72 535 85 q 592 92 557 74 q 666 141 626 111 q 749 208 706 171 q 833 285 792 246 q 910 360 874 324 q 975 426 947 397 q 1044 493 1019 469 q 1082 524 1069 517 q 1108 528 1094 531 q 1132 514 1122 526 q 1137 486 1139 501 q 1119 464 1135 471 q 1085 431 1113 458 q 1028 374 1058 404 q 886 236 957 303 q 751 117 815 169 q 629 32 686 64 q 531 0 572 0 m 285 -8 q 263 -5 274 -8 q 242 3 253 -1 q 222 26 231 11 q 213 67 213 42 q 228 131 214 93 q 281 224 243 169 q 328 291 303 258 q 378 353 353 324 q 422 410 399 381 q 458 460 446 440 l 444 460 q 418 465 429 457 q 403 489 407 474 q 410 516 401 504 q 433 531 418 528 q 453 533 440 532 q 481 533 467 535 q 509 524 496 531 q 531 503 522 517 q 519 424 549 471 q 433 310 490 378 q 385 247 410 279 q 339 183 361 215 q 293 100 303 129 q 285 61 283 71 q 326 78 296 61 q 390 139 356 94 q 413 153 399 150 q 440 147 428 156 q 454 122 451 136 q 449 97 457 107 q 367 19 411 47 q 285 -8 322 -8 m 742 -117 l 0 -117 q -26 -106 -15 -117 q -36 -81 -36 -96 q -26 -54 -36 -65 q 0 -43 -15 -43 l 742 -43 q 767 -54 757 -43 q 778 -81 778 -65 q 767 -106 778 -96 q 742 -117 757 -117 z "},"u":{"ha":633,"x_min":-36,"x_max":885,"o":"m 521 0 q 483 13 493 0 q 471 32 474 25 q 465 60 465 43 q 481 108 465 76 q 533 190 496 139 q 638 318 569 240 q 704 393 671 357 q 764 457 738 429 q 807 502 790 485 q 824 519 824 519 q 849 531 835 531 q 874 519 863 531 q 885 495 885 510 q 875 469 885 481 q 860 454 875 469 q 820 413 844 439 q 765 354 796 388 q 704 283 735 321 q 636 204 664 239 q 590 144 608 169 q 560 103 571 119 q 543 76 549 86 q 599 97 568 82 q 659 128 629 111 q 715 162 689 144 q 760 192 742 179 q 771 200 765 197 q 782 207 776 203 q 808 212 793 215 q 832 197 824 208 q 836 170 839 185 q 822 147 833 156 q 811 140 817 143 q 800 132 806 138 q 726 85 764 108 q 651 42 688 61 q 581 12 615 24 q 521 0 547 0 m 263 0 q 213 19 229 0 q 292 228 157 79 l 367 308 q 403 347 383 326 q 441 389 422 368 q 475 428 460 410 q 500 460 490 446 l 492 460 q 465 465 476 457 q 450 489 453 474 q 456 516 447 504 q 481 531 465 528 q 499 532 486 531 q 525 531 511 533 q 551 523 539 529 q 572 501 564 517 q 577 460 582 482 q 552 410 572 439 q 499 344 532 382 q 421 258 467 307 q 381 219 400 239 q 346 181 361 200 q 290 110 306 135 q 271 72 274 85 q 319 90 286 75 q 407 147 353 106 q 434 153 419 156 q 457 139 449 150 q 465 112 468 126 q 450 89 461 97 q 413 63 435 78 q 365 33 390 47 q 312 10 339 19 q 263 0 285 0 m 633 -117 l 0 -117 q -26 -106 -15 -117 q -36 -81 -36 -96 q -26 -54 -36 -65 q 0 -43 -15 -43 l 633 -43 q 660 -54 649 -43 q 671 -81 671 -65 q 660 -106 671 -96 q 633 -117 649 -117 z "},"v":{"ha":483,"x_min":-35,"x_max":888,"o":"m 279 0 q 232 11 247 0 q 210 33 217 22 q 228 137 190 75 q 343 299 265 199 q 374 339 357 317 q 406 383 390 361 q 435 425 422 406 q 454 458 447 444 q 435 454 446 457 q 406 447 424 451 q 378 448 392 442 q 358 468 364 454 q 362 496 356 482 q 383 514 368 510 q 460 530 422 526 q 518 507 497 533 q 510 412 544 471 q 399 253 475 353 q 364 206 383 232 q 327 156 344 181 q 297 108 310 131 q 279 72 283 86 q 335 90 301 72 q 410 138 369 108 q 493 206 450 168 q 578 283 536 243 q 658 360 621 322 q 725 426 696 397 q 794 493 769 469 q 831 524 818 517 q 857 528 843 531 q 879 514 871 526 q 884 486 888 501 q 868 464 881 471 q 833 431 860 458 q 775 374 807 404 q 634 236 704 303 q 499 117 564 169 q 377 32 433 64 q 279 0 321 0 m 483 -117 l 0 -117 q -25 -106 -15 -117 q -35 -81 -35 -96 q -25 -54 -35 -65 q 0 -43 -15 -43 l 483 -43 q 508 -54 499 -43 q 518 -81 518 -65 q 508 -106 518 -96 q 483 -117 499 -117 z "},"t":{"ha":493,"x_min":-36,"x_max":1315,"o":"m 301 0 q 253 17 268 0 q 233 42 238 33 q 258 169 217 86 q 303 247 276 206 q 367 333 331 288 q 527 528 436 428 q 717 719 618 628 q 742 731 728 731 q 767 719 756 731 q 767 668 790 692 q 583 482 671 579 q 426 297 494 385 q 361 206 386 244 q 323 139 336 167 q 305 95 310 111 q 300 72 300 79 l 301 72 q 411 93 351 72 q 522 140 471 114 q 607 186 572 165 q 642 207 642 207 q 669 212 654 215 q 692 197 685 208 q 697 170 699 185 q 682 147 694 156 q 640 122 678 144 q 547 72 603 99 q 425 22 490 44 q 301 0 360 0 m 631 410 q 600 426 613 410 q 595 452 593 438 q 610 476 597 467 q 638 494 610 476 q 710 542 665 513 q 811 612 754 572 q 928 693 868 651 q 1076 808 1018 760 q 1167 888 1133 856 q 1217 940 1201 921 q 1236 968 1232 958 l 1226 968 q 1113 933 1182 968 q 953 831 1043 897 q 928 824 943 821 q 903 839 914 826 q 897 864 894 849 q 911 889 900 879 q 1226 1040 1111 1040 q 1287 1024 1269 1040 q 1310 993 1304 1008 q 1308 953 1315 976 q 1268 890 1301 929 q 1168 792 1235 850 q 986 649 1101 733 q 865 561 925 603 q 757 487 804 519 q 680 435 710 454 q 650 417 650 417 q 631 410 642 410 m 493 -117 l 0 -117 q -26 -106 -15 -117 q -36 -81 -36 -96 q -26 -54 -36 -65 q 0 -43 -15 -43 l 493 -43 q 519 -54 508 -43 q 531 -81 531 -65 q 519 -106 531 -96 q 493 -117 508 -117 m 947 739 l 608 739 q 583 749 593 739 q 572 774 572 758 q 583 799 572 789 q 608 810 593 810 l 947 810 q 972 799 963 810 q 982 774 982 789 q 972 749 982 758 q 947 739 963 739 z "},"s":{"ha":485,"x_min":-35,"x_max":603,"o":"m 385 -3 l 374 -3 q 313 13 335 0 q 281 42 290 26 q 258 91 263 63 q 263 151 254 119 q 277 173 265 165 q 304 178 289 181 q 326 162 319 175 q 331 133 333 149 q 328 108 328 122 q 338 83 328 94 q 376 68 344 71 q 467 99 436 65 q 507 236 511 142 q 507 253 507 246 q 506 269 507 261 q 506 363 504 315 q 532 461 508 410 q 551 482 539 476 q 576 481 564 488 q 597 460 592 474 q 596 432 603 446 q 577 355 579 393 q 576 272 575 317 q 578 256 576 264 q 581 239 581 247 q 517 47 583 114 q 385 -3 467 -3 m 485 -117 l 0 -117 q -24 -106 -14 -117 q -35 -81 -35 -96 q -24 -54 -35 -65 q 0 -43 -14 -43 l 485 -43 q 511 -54 500 -43 q 522 -81 522 -65 q 511 -106 522 -96 q 485 -117 500 -117 m 171 140 q 140 157 150 140 q 133 185 129 169 q 150 207 138 200 l 424 386 q 451 391 436 394 q 474 376 465 388 q 478 348 481 363 q 463 326 476 333 l 190 147 q 179 142 185 143 q 171 140 174 140 z "},"r":{"ha":567,"x_min":-36,"x_max":772,"o":"m 149 207 q 268 291 215 254 q 358 360 321 328 q 412 424 394 393 q 424 490 429 456 q 408 508 421 508 q 389 506 396 507 q 375 497 379 504 q 371 482 371 490 q 374 466 371 474 q 383 454 378 458 q 392 431 393 443 q 385 409 392 418 q 366 395 378 400 q 342 397 354 390 q 315 423 325 406 q 301 461 304 440 q 303 503 299 482 q 319 542 307 525 q 345 565 329 557 q 379 576 361 574 q 455 564 417 582 q 503 497 493 546 q 486 405 511 450 q 415 317 461 360 q 309 231 369 274 q 188 147 249 189 q 161 142 175 139 q 139 156 147 146 q 131 181 131 167 q 149 207 132 194 m 456 0 q 390 31 408 0 q 395 91 378 58 q 443 168 413 124 q 488 226 468 204 q 506 275 508 247 q 501 285 504 279 q 488 297 497 290 q 472 319 475 304 q 475 347 468 333 q 499 363 485 360 q 525 357 513 365 q 558 327 547 344 q 575 289 569 310 q 576 244 581 264 q 560 207 571 225 q 534 170 550 189 q 500 126 518 151 q 483 99 493 114 q 465 72 472 85 q 531 94 497 79 q 598 127 565 108 q 660 167 631 146 q 715 207 690 188 q 744 212 729 215 q 765 197 758 208 q 769 170 772 185 q 756 147 767 156 q 694 103 732 128 q 614 55 657 78 q 529 16 571 32 q 456 0 488 0 m 567 -117 l 0 -117 q -26 -106 -15 -117 q -36 -81 -36 -96 q -26 -54 -36 -65 q 0 -43 -15 -43 l 567 -43 q 592 -54 582 -43 q 603 -81 603 -65 q 592 -106 603 -96 q 567 -117 582 -117 z "},"q":{"ha":592,"x_min":-36,"x_max":863,"o":"m 296 3 q 246 18 272 3 q 213 93 210 42 q 244 185 214 135 q 319 285 274 236 q 419 376 365 335 q 522 442 472 418 q 585 466 557 460 q 637 471 614 472 q 676 463 660 469 q 706 449 693 457 q 720 424 718 439 q 714 399 722 410 q 691 383 706 386 q 664 390 676 381 q 607 397 640 406 q 553 378 574 389 q 457 316 504 354 q 372 236 410 278 q 309 155 333 194 q 283 89 285 115 q 286 78 282 78 q 312 76 293 72 q 353 91 331 81 q 401 117 376 101 q 446 153 426 133 q 472 164 457 164 q 496 153 486 164 q 507 128 507 143 q 496 103 507 114 q 461 74 483 92 q 412 41 439 57 q 354 14 385 25 q 296 3 324 3 m 294 -314 q 282 -312 288 -314 q 272 -307 276 -310 q 258 -282 260 -296 q 264 -257 256 -268 l 797 476 q 820 491 804 488 q 847 483 836 494 q 861 461 860 476 q 856 433 863 446 l 322 -299 q 294 -314 311 -314 m 311 -117 l 0 -117 q -26 -106 -15 -117 q -36 -81 -36 -96 q -26 -54 -36 -65 q 0 -43 -15 -43 l 311 -43 q 336 -54 326 -43 q 346 -81 346 -65 q 336 -106 346 -96 q 311 -117 326 -117 m 592 -117 l 557 -117 q 532 -106 542 -117 q 522 -81 522 -96 q 532 -54 522 -65 q 557 -43 542 -43 l 592 -43 q 617 -54 607 -43 q 628 -81 628 -65 q 617 -106 628 -96 q 592 -117 607 -117 z "},"p":{"ha":556,"x_min":-58,"x_max":764,"o":"m -22 -314 q -32 -312 -26 -314 q -42 -307 -37 -310 q -56 -282 -54 -296 q -50 -257 -58 -268 l 482 476 q 505 491 490 488 q 532 483 519 494 q 547 461 544 476 q 540 433 549 446 l 8 -299 q -22 -314 -4 -314 m 425 0 q 388 8 406 0 q 360 32 371 17 q 351 126 335 72 q 369 149 357 142 q 394 149 382 156 q 417 131 410 143 q 419 103 424 118 q 415 84 415 92 q 418 74 415 76 q 420 73 419 74 q 425 72 421 72 q 467 85 443 72 q 517 122 490 99 q 571 178 543 146 q 624 250 599 211 q 678 354 664 313 q 692 410 693 396 q 641 394 668 410 q 599 364 614 378 q 572 356 588 354 q 549 368 557 357 q 538 394 538 379 q 551 418 539 410 q 567 431 554 421 q 599 453 579 442 q 642 473 618 464 q 692 482 667 482 q 728 474 715 482 q 744 458 740 467 q 760 436 756 450 q 764 407 764 422 q 753 349 764 381 q 726 283 743 317 q 689 219 710 250 q 649 161 668 188 q 607 111 632 139 q 553 58 582 83 q 491 17 524 33 q 425 0 458 0 m 556 -117 l 243 -117 q 219 -106 229 -117 q 210 -81 210 -96 q 219 -54 210 -65 q 243 -43 229 -43 l 556 -43 q 581 -54 571 -43 q 592 -81 592 -65 q 581 -106 592 -96 q 556 -117 571 -117 z "},"o":{"ha":513,"x_min":-36,"x_max":756,"o":"m 350 0 q 251 53 285 0 q 242 156 229 96 q 299 283 254 215 q 373 378 332 335 q 457 453 414 422 q 543 501 500 483 q 624 518 586 518 q 701 494 668 518 q 750 426 735 469 q 749 400 756 413 q 726 381 742 388 q 700 381 713 375 q 682 403 688 388 q 624 447 668 447 q 566 434 599 447 q 498 396 533 421 q 426 333 463 371 q 358 247 389 296 q 313 146 319 186 q 317 89 306 106 q 324 78 318 85 q 350 72 331 72 q 442 99 396 72 q 528 166 489 126 q 591 249 567 206 q 618 328 615 293 q 614 354 621 350 q 600 360 607 358 q 576 374 585 363 q 571 401 568 386 q 584 425 572 417 q 610 432 596 433 q 672 396 650 425 q 690 322 693 367 q 656 221 686 276 q 579 116 626 165 q 472 33 532 67 q 350 0 413 0 m 513 -117 l 0 -117 q -26 -106 -15 -117 q -36 -81 -36 -96 q -26 -54 -36 -65 q 0 -43 -15 -43 l 513 -43 q 538 -54 528 -43 q 549 -81 549 -65 q 538 -106 549 -96 q 513 -117 528 -117 z "}}}
